<?xml version="1.0" encoding="UTF-8"?>
<!DOCTYPE svg PUBLIC "-//W3C//DTD SVG 1.1//EN" "http://www.w3.org/Graphics/SVG/1.1/DTD/svg11.dtd">
<svg xmlns="http://www.w3.org/2000/svg" version="1.1" width="180px" height="180px" style="shape-rendering:geometricPrecision; text-rendering:geometricPrecision; image-rendering:optimizeQuality; fill-rule:evenodd; clip-rule:evenodd" xmlns:xlink="http://www.w3.org/1999/xlink">
<g><path style="opacity:0.392" fill="#497ae9" d="M 76.5,37.5 C 79.6248,36.5206 82.9581,36.1872 86.5,36.5C 93.9163,37.4138 100.583,40.0805 106.5,44.5C 106.893,46.2838 107.559,47.9505 108.5,49.5C 104.448,45.6244 99.7811,42.4577 94.5,40C 89.6158,38.4263 84.6158,37.593 79.5,37.5C 78.5,37.5 77.5,37.5 76.5,37.5 Z"/></g>
<g><path style="opacity:0.361" fill="#22a8f6" d="M 86.5,36.5 C 82.9581,36.1872 79.6248,36.5206 76.5,37.5C 64.8457,39.3169 56.0124,45.3169 50,55.5C 45.5078,66.7141 45.3411,78.0474 49.5,89.5C 48.8333,89.5 48.1667,89.5 47.5,89.5C 39.5335,66.4673 46.2002,49.3006 67.5,38C 73.8594,35.6469 80.1927,35.1469 86.5,36.5 Z"/></g>
<g><path style="opacity:0.945" fill="#6158e0" d="M 109.5,61.5 C 109.631,62.2389 109.464,62.9056 109,63.5C 108.722,62.5842 108.222,61.9175 107.5,61.5C 103.894,53.5558 97.8943,48.5558 89.5,46.5C 83.4093,46.2114 77.4093,46.5447 71.5,47.5C 69.2972,47.6036 67.2972,48.2702 65.5,49.5C 65.3691,48.6236 65.7025,47.9569 66.5,47.5C 81.4883,40.5242 94.6549,42.8575 106,54.5C 107.646,56.6093 108.812,58.9427 109.5,61.5 Z"/></g>
<g><path style="opacity:0.596" fill="#23a3f5" d="M 89.5,46.5 C 97.8943,48.5558 103.894,53.5558 107.5,61.5C 106.5,60.8333 105.5,60.1667 104.5,59.5C 104.5,58.8333 104.167,58.5 103.5,58.5C 102.214,56.1231 100.548,53.9565 98.5,52C 95.248,50.4339 92.248,48.6006 89.5,46.5 Z"/></g>
<g><path style="opacity:0.667" fill="#6849dd" d="M 65.5,49.5 C 59.6871,54.8151 55.6871,61.1485 53.5,68.5C 53.8498,61.6321 56.5165,55.7988 61.5,51C 62.745,50.2086 64.0783,49.7086 65.5,49.5 Z"/></g>
<g><path style="opacity:0.529" fill="#219eef" d="M 106.5,44.5 C 113.954,50.7379 118.288,58.7379 119.5,68.5C 119.665,71.8499 119.498,75.1832 119,78.5C 118.768,79.7375 118.268,80.7375 117.5,81.5C 119.325,71.1334 117.491,61.4668 112,52.5C 110.961,51.2899 109.794,50.2899 108.5,49.5C 107.559,47.9505 106.893,46.2838 106.5,44.5 Z"/></g>
<g><path style="opacity:0.887" fill="#2e3877" d="M 90.5,67.5 C 86.029,61.8477 80.3624,60.3477 73.5,63C 71.9297,64.3968 70.5964,65.8968 69.5,67.5C 69.8786,60.9558 73.3786,57.6225 80,57.5C 86.6214,57.6225 90.1214,60.9558 90.5,67.5 Z"/></g>
<g><path style="opacity:0.971" fill="#285bb4" d="M 103.5,58.5 C 104.167,58.5 104.5,58.8333 104.5,59.5C 105.5,60.1667 106.5,60.8333 107.5,61.5C 108.222,61.9175 108.722,62.5842 109,63.5C 109.464,62.9056 109.631,62.2389 109.5,61.5C 110.82,62.9418 112.486,63.6085 114.5,63.5C 114.5,64.1667 114.833,64.5 115.5,64.5C 116.995,70.5626 116.828,76.5626 115,82.5C 109.576,76.5694 103.742,71.2361 97.5,66.5C 96.9866,63.7908 95.9866,61.2908 94.5,59C 94.8333,58.5 95.1667,58 95.5,57.5C 98.0841,58.3928 100.751,58.7261 103.5,58.5 Z"/></g>
<g><path style="opacity:0.952" fill="#3a4db9" d="M 90.5,67.5 C 87.8037,75.0112 82.4704,77.5112 74.5,75C 71.3995,73.4089 69.7328,70.9089 69.5,67.5C 70.5964,65.8968 71.9297,64.3968 73.5,63C 80.3624,60.3477 86.029,61.8477 90.5,67.5 Z"/></g>
<g><path style="opacity:0.196" fill="#25a1f4" d="M 71.5,47.5 C 61.9757,53.5511 56.1424,62.2178 54,73.5C 53.5065,71.8659 53.3398,70.1992 53.5,68.5C 55.6871,61.1485 59.6871,54.8151 65.5,49.5C 67.2972,48.2702 69.2972,47.6036 71.5,47.5 Z"/></g>
<g><path style="opacity:0.993" fill="#3556bb" d="M 108.5,49.5 C 109.794,50.2899 110.961,51.2899 112,52.5C 117.491,61.4668 119.325,71.1334 117.5,81.5C 116.566,82.5676 116.232,83.901 116.5,85.5C 114.654,87.0301 113.654,89.0301 113.5,91.5C 108.513,85.5325 102.513,79.8659 95.5,74.5C 96.7496,71.994 97.4162,69.3274 97.5,66.5C 103.742,71.2361 109.576,76.5694 115,82.5C 116.828,76.5626 116.995,70.5626 115.5,64.5C 114.833,64.5 114.5,64.1667 114.5,63.5C 113.057,58.612 111.057,53.9453 108.5,49.5 Z"/></g>
<g><path style="opacity:0.96" fill="#523ec3" d="M 70.5,87.5 C 64.942,84.2836 59.942,80.2836 55.5,75.5C 57.0941,72.2358 59.4275,69.5691 62.5,67.5C 63.8581,71.5613 66.1915,74.8946 69.5,77.5C 70.487,80.7683 70.8204,84.1016 70.5,87.5 Z"/></g>
<g><path style="opacity:0.998" fill="#3352b6" d="M 95.5,74.5 C 102.513,79.8659 108.513,85.5325 113.5,91.5C 120.527,97.8604 127.194,104.527 133.5,111.5C 133.672,112.492 133.338,113.158 132.5,113.5C 119.586,102.089 107.086,90.0893 95,77.5C 94.5357,76.9056 94.369,76.2389 94.5,75.5C 94.5,74.8333 94.8333,74.5 95.5,74.5 Z"/></g>
<g><path style="opacity:0.981" fill="#3650b8" d="M 94.5,75.5 C 94.369,76.2389 94.5357,76.9056 95,77.5C 107.086,90.0893 119.586,102.089 132.5,113.5C 132.634,115.292 132.301,116.958 131.5,118.5C 118.794,105.145 105.628,92.1448 92,79.5C 91.5357,78.9056 91.369,78.2389 91.5,77.5C 92.5,76.8333 93.5,76.1667 94.5,75.5 Z"/></g>
<g><path style="opacity:0.975" fill="#275bb3" d="M 119.5,68.5 C 124.99,73.1622 129.157,78.8288 132,85.5C 133.569,89.7028 134.402,94.0361 134.5,98.5C 133.883,98.6107 133.383,98.944 133,99.5C 128.195,93.8491 122.695,89.1824 116.5,85.5C 116.232,83.901 116.566,82.5676 117.5,81.5C 118.268,80.7375 118.768,79.7375 119,78.5C 119.498,75.1832 119.665,71.8499 119.5,68.5 Z"/></g>
<g><path style="opacity:0.986" fill="#3b4dba" d="M 91.5,77.5 C 91.369,78.2389 91.5357,78.9056 92,79.5C 105.628,92.1448 118.794,105.145 131.5,118.5C 130.4,119.605 129.733,120.938 129.5,122.5C 117.199,109.366 104.366,96.6998 91,84.5C 90.7679,83.2625 90.2679,82.2625 89.5,81.5C 89.2291,79.6203 89.8958,78.287 91.5,77.5 Z"/></g>
<g><path style="opacity:0.945" fill="#6136ca" d="M 55.5,75.5 C 59.942,80.2836 64.942,84.2836 70.5,87.5C 69.2162,91.0136 67.5495,94.347 65.5,97.5C 60.4945,92.8274 55.8278,87.8274 51.5,82.5C 51.9977,79.6737 53.3311,77.3403 55.5,75.5 Z"/></g>
<g><path style="opacity:0.991" fill="#3e4bbb" d="M 89.5,81.5 C 90.2679,82.2625 90.7679,83.2625 91,84.5C 104.366,96.6998 117.199,109.366 129.5,122.5C 129.5,123.167 129.167,123.5 128.5,123.5C 116.066,112.568 104.066,101.068 92.5,89C 91.5632,88.3083 90.8966,88.475 90.5,89.5C 89.5269,87.0521 89.1936,84.3854 89.5,81.5 Z"/></g>
<g><path style="opacity:0.972" fill="#2d56b5" d="M 116.5,85.5 C 122.695,89.1824 128.195,93.8491 133,99.5C 133.383,98.944 133.883,98.6107 134.5,98.5C 134.769,102.931 134.436,107.265 133.5,111.5C 127.194,104.527 120.527,97.8604 113.5,91.5C 113.654,89.0301 114.654,87.0301 116.5,85.5 Z"/></g>
<g><path style="opacity:0.972" fill="#4248be" d="M 128.5,123.5 C 128.201,125.455 127.201,126.789 125.5,127.5C 125.649,126.448 125.483,125.448 125,124.5C 114.276,114.272 103.443,104.272 92.5,94.5C 91.5592,92.9505 90.8925,91.2838 90.5,89.5C 90.8966,88.475 91.5632,88.3083 92.5,89C 104.066,101.068 116.066,112.568 128.5,123.5 Z"/></g>
<g><path style="opacity:0.971" fill="#7c26d4" d="M 47.5,89.5 C 48.1667,89.5 48.8333,89.5 49.5,89.5C 49.7086,90.9217 50.2086,92.255 51,93.5C 55.0413,97.0469 59.208,100.38 63.5,103.5C 60.2803,110.672 56.7803,117.672 53,124.5C 46.6095,113.668 44.7761,102.001 47.5,89.5 Z"/></g>
<g><path style="opacity:0.988" fill="#6b38d3" d="M 76.5,37.5 C 77.5,37.5 78.5,37.5 79.5,37.5C 55.9139,43.325 45.7472,58.325 49,82.5C 49.7697,83.5981 50.603,83.5981 51.5,82.5C 55.8278,87.8274 60.4945,92.8274 65.5,97.5C 64.8333,99.5 64.1667,101.5 63.5,103.5C 59.208,100.38 55.0413,97.0469 51,93.5C 50.2086,92.255 49.7086,90.9217 49.5,89.5C 45.3411,78.0474 45.5078,66.7141 50,55.5C 56.0124,45.3169 64.8457,39.3169 76.5,37.5 Z"/></g>
<g><path style="opacity:0.972" fill="#4746bf" d="M 92.5,94.5 C 103.443,104.272 114.276,114.272 125,124.5C 125.483,125.448 125.649,126.448 125.5,127.5C 125.5,127.833 125.5,128.167 125.5,128.5C 124.448,128.649 123.448,128.483 122.5,128C 115.245,120.478 107.745,113.312 100,106.5C 99.6012,106.728 99.4346,107.062 99.5,107.5C 96.9138,103.329 94.5804,98.9958 92.5,94.5 Z"/></g>
<g><path style="opacity:0.963" fill="#5d39c8" d="M 89.5,106.5 C 83.2657,107.807 76.9324,107.807 70.5,106.5C 72.7703,101.725 75.2703,97.0579 78,92.5C 78.7247,91.9415 79.5581,91.6082 80.5,91.5C 83.3634,93.5369 85.5301,96.2036 87,99.5C 88.4114,101.65 89.2447,103.984 89.5,106.5 Z"/></g>
<g><path style="opacity:0.541" fill="#31357c" d="M 70.5,106.5 C 76.9324,107.807 83.2657,107.807 89.5,106.5C 90.6527,107.313 90.6527,108.313 89.5,109.5C 83.8625,110.663 78.1959,110.83 72.5,110C 71.0267,109.29 70.3601,108.124 70.5,106.5 Z"/></g>
<g><path style="opacity:0.964" fill="#5040c2" d="M 125.5,128.5 C 122.478,132.521 118.811,135.855 114.5,138.5C 108.915,128.389 103.915,118.055 99.5,107.5C 99.4346,107.062 99.6012,106.728 100,106.5C 107.745,113.312 115.245,120.478 122.5,128C 123.448,128.483 124.448,128.649 125.5,128.5 Z"/></g>
<g><path style="opacity:0.938" fill="#6632cb" d="M 80.5,115.5 C 85.2137,115.173 89.8804,115.507 94.5,116.5C 96.2302,119.37 97.5635,122.37 98.5,125.5C 95.6085,126.403 92.6085,126.736 89.5,126.5C 86.0985,123.105 83.0985,119.438 80.5,115.5 Z"/></g>
<g><path style="opacity:0.995" fill="#7a26d4" d="M 80.5,115.5 C 83.0985,119.438 86.0985,123.105 89.5,126.5C 80.4161,126.804 71.4161,126.471 62.5,125.5C 63.1585,122.021 64.4918,118.855 66.5,116C 71.1548,115.501 75.8215,115.334 80.5,115.5 Z"/></g>
<g><path style="opacity:0.532" fill="#303679" d="M 62.5,125.5 C 71.4161,126.471 80.4161,126.804 89.5,126.5C 92.6085,126.736 95.6085,126.403 98.5,125.5C 98.4894,127.017 97.8228,128.184 96.5,129C 85.8333,129.667 75.1667,129.667 64.5,129C 63.1772,128.184 62.5106,127.017 62.5,125.5 Z"/></g>
</svg>
