<?xml version="1.0" encoding="UTF-8"?>
<!DOCTYPE svg PUBLIC "-//W3C//DTD SVG 1.1//EN" "http://www.w3.org/Graphics/SVG/1.1/DTD/svg11.dtd">
<svg xmlns="http://www.w3.org/2000/svg" version="1.1" width="2363px" height="2363px" style="shape-rendering:geometricPrecision; text-rendering:geometricPrecision; image-rendering:optimizeQuality; fill-rule:evenodd; clip-rule:evenodd" xmlns:xlink="http://www.w3.org/1999/xlink">
<g><path style="opacity:0.974" fill="#fefffe" d="M 600.5,929.5 C 659.631,928.479 705.797,952.146 739,1000.5C 749.115,1017.85 755.449,1036.51 758,1056.5C 806.082,1100.07 824.749,1154.07 814,1218.5C 804.253,1265.36 779.586,1302.03 740,1328.5C 708.349,1263.2 676.683,1197.86 645,1132.5C 644.167,1120.82 644.334,1109.15 645.5,1097.5C 669.204,1084.76 679.038,1065.09 675,1038.5C 672.632,1030.09 668.466,1022.76 662.5,1016.5C 663,1016.17 663.5,1015.83 664,1015.5C 667.128,1016.2 670.294,1016.7 673.5,1017C 685.013,1019.29 696.346,1021.96 707.5,1025C 680.965,981.732 642.298,962.399 591.5,967C 564.565,973.932 543.065,988.765 527,1011.5C 514.222,1030.66 506.055,1051.66 502.5,1074.5C 499.614,1032.56 515.947,1000.39 551.5,978C 586.044,958.625 622.044,955.292 659.5,968C 688.549,980.05 708.383,1000.88 719,1030.5C 728.833,1035.41 738.166,1041.08 747,1047.5C 735.837,994.333 704.67,958.499 653.5,940C 586.204,925.741 533.704,947.241 496,1004.5C 473.857,1044.04 470.523,1085.04 486,1127.5C 496.76,1098.58 513.927,1074.25 537.5,1054.5C 540.692,1072.23 549.859,1085.9 565,1095.5C 565.667,1108.17 565.667,1120.83 565,1133.5C 543.59,1179.98 521.924,1226.32 500,1272.5C 475.624,1230.03 469.791,1185.03 482.5,1137.5C 458.722,1083.69 463.555,1032.69 497,984.5C 523.867,951.816 558.367,933.483 600.5,929.5 Z"/></g>
<g><path style="opacity:0.973" fill="#333b78" d="M 644.5,1054.5 C 633.65,1032.46 615.983,1024.29 591.5,1030C 578.719,1033.95 570.052,1042.12 565.5,1054.5C 563.723,1036.89 571.056,1024.73 587.5,1018C 608.026,1011.01 625.526,1015.51 640,1031.5C 644.305,1038.67 645.805,1046.34 644.5,1054.5 Z"/></g>
<g><path style="opacity:0.984" fill="#fefefe" d="M 644.5,1054.5 C 638.246,1073.21 625.079,1082.55 605,1082.5C 589.859,1082.6 577.859,1076.6 569,1064.5C 567.132,1061.39 565.965,1058.06 565.5,1054.5C 570.052,1042.12 578.719,1033.95 591.5,1030C 615.983,1024.29 633.65,1032.46 644.5,1054.5 Z"/></g>
<g><path style="opacity:0.978" fill="#fefffe" d="M 894.5,1050.5 C 922.169,1050.33 949.835,1050.5 977.5,1051C 1025.69,1060.18 1050.35,1089.35 1051.5,1138.5C 1050.34,1187.69 1025.68,1216.86 977.5,1226C 949.835,1226.5 922.169,1226.67 894.5,1226.5C 894.5,1167.83 894.5,1109.17 894.5,1050.5 Z M 928.5,1076.5 C 943.527,1076.24 958.527,1076.74 973.5,1078C 995.552,1083.05 1009.38,1096.55 1015,1118.5C 1020.22,1140.64 1016.89,1161.31 1005,1180.5C 996.862,1190.65 986.362,1196.82 973.5,1199C 958.529,1200.28 943.529,1200.78 928.5,1200.5C 928.5,1159.17 928.5,1117.83 928.5,1076.5 Z"/></g>
<g><path style="opacity:0.97" fill="#fefffe" d="M 1107.5,1050.5 C 1119.19,1050.17 1130.85,1050.5 1142.5,1051.5C 1165.41,1110.06 1188.41,1168.56 1211.5,1227C 1200.43,1227.93 1189.43,1227.6 1178.5,1226C 1176.62,1224.46 1175.12,1222.62 1174,1220.5C 1169.89,1208.16 1165.39,1196 1160.5,1184C 1136.83,1183.33 1113.17,1183.33 1089.5,1184C 1084.48,1196.74 1079.64,1209.57 1075,1222.5C 1073.27,1224.62 1071.1,1226.12 1068.5,1227C 1058.48,1227.83 1048.48,1227.67 1038.5,1226.5C 1061.52,1167.81 1084.52,1109.14 1107.5,1050.5 Z M 1124.5,1083.5 C 1133.48,1108.76 1142.48,1134.09 1151.5,1159.5C 1133.83,1159.5 1116.17,1159.5 1098.5,1159.5C 1107.73,1134.37 1116.4,1109.03 1124.5,1083.5 Z"/></g>
<g><path style="opacity:0.991" fill="#fefffe" d="M 1180.5,1050.5 C 1227.17,1050.5 1273.83,1050.5 1320.5,1050.5C 1320.5,1059.5 1320.5,1068.5 1320.5,1077.5C 1302.83,1077.5 1285.17,1077.5 1267.5,1077.5C 1267.5,1127.5 1267.5,1177.5 1267.5,1227.5C 1256.5,1227.5 1245.5,1227.5 1234.5,1227.5C 1234.5,1177.5 1234.5,1127.5 1234.5,1077.5C 1216.5,1077.5 1198.5,1077.5 1180.5,1077.5C 1180.5,1068.5 1180.5,1059.5 1180.5,1050.5 Z"/></g>
<g><path style="opacity:0.97" fill="#fefffe" d="M 1359.5,1050.5 C 1371.19,1050.17 1382.85,1050.5 1394.5,1051.5C 1417.41,1110.06 1440.41,1168.56 1463.5,1227C 1452.43,1227.93 1441.43,1227.6 1430.5,1226C 1428.62,1224.46 1427.12,1222.62 1426,1220.5C 1421.89,1208.16 1417.39,1196 1412.5,1184C 1388.83,1183.33 1365.17,1183.33 1341.5,1184C 1336.48,1196.74 1331.64,1209.57 1327,1222.5C 1325.27,1224.62 1323.1,1226.12 1320.5,1227C 1310.48,1227.83 1300.48,1227.67 1290.5,1226.5C 1313.52,1167.81 1336.52,1109.14 1359.5,1050.5 Z M 1376.5,1083.5 C 1385.48,1108.76 1394.48,1134.09 1403.5,1159.5C 1385.83,1159.5 1368.17,1159.5 1350.5,1159.5C 1359.73,1134.37 1368.4,1109.03 1376.5,1083.5 Z"/></g>
<g><path style="opacity:0.92" fill="#fefffe" d="M 1925.5,1057.5 C 1942.14,1055.28 1957.81,1058.12 1972.5,1066C 1975.65,1067.98 1978.31,1070.48 1980.5,1073.5C 1979.5,1077.18 1977.34,1079.85 1974,1081.5C 1966.29,1075.56 1957.79,1071.06 1948.5,1068C 1935.47,1065.51 1923.47,1067.85 1912.5,1075C 1902.25,1084.49 1899.08,1095.99 1903,1109.5C 1907.58,1117.41 1914.08,1123.25 1922.5,1127C 1937.56,1131.69 1952.23,1137.35 1966.5,1144C 1982.51,1154.67 1988.34,1169.5 1984,1188.5C 1979.42,1210.75 1965.92,1223.91 1943.5,1228C 1921.75,1231.73 1902.42,1226.73 1885.5,1213C 1880.77,1210.12 1880.27,1206.62 1884,1202.5C 1886.63,1200.01 1889.46,1199.85 1892.5,1202C 1908.25,1217.94 1926.92,1222.6 1948.5,1216C 1970.38,1205.37 1977.22,1188.53 1969,1165.5C 1964.36,1159.53 1958.52,1155.03 1951.5,1152C 1936.08,1147.4 1921.08,1141.73 1906.5,1135C 1891.34,1123.86 1885.84,1109.03 1890,1090.5C 1895.3,1072.36 1907.13,1061.36 1925.5,1057.5 Z"/></g>
<g><path style="opacity:0.943" fill="#fefffe" d="M 1507.5,1059.5 C 1527.17,1059.33 1546.84,1059.5 1566.5,1060C 1599.12,1065.3 1613.62,1084.47 1610,1117.5C 1604.12,1140.71 1589.28,1154.21 1565.5,1158C 1550.5,1158.5 1535.5,1158.67 1520.5,1158.5C 1520.5,1181.17 1520.5,1203.83 1520.5,1226.5C 1516.17,1226.5 1511.83,1226.5 1507.5,1226.5C 1507.5,1170.83 1507.5,1115.17 1507.5,1059.5 Z M 1520.5,1068.5 C 1534.86,1068.29 1549.19,1068.79 1563.5,1070C 1588.39,1074.91 1599.55,1090.07 1597,1115.5C 1592.67,1133.82 1581.17,1144.66 1562.5,1148C 1548.53,1149.23 1534.53,1149.73 1520.5,1149.5C 1520.5,1122.5 1520.5,1095.5 1520.5,1068.5 Z"/></g>
<g><path style="opacity:0.958" fill="#fefffe" d="M 1629.5,1059.5 C 1633.83,1059.5 1638.17,1059.5 1642.5,1059.5C 1642.5,1111.83 1642.5,1164.17 1642.5,1216.5C 1668.83,1216.5 1695.17,1216.5 1721.5,1216.5C 1721.5,1219.83 1721.5,1223.17 1721.5,1226.5C 1690.83,1226.5 1660.17,1226.5 1629.5,1226.5C 1629.5,1170.83 1629.5,1115.17 1629.5,1059.5 Z"/></g>
<g><path style="opacity:0.942" fill="#fefffe" d="M 1735.5,1059.5 C 1739.83,1059.5 1744.17,1059.5 1748.5,1059.5C 1748.33,1096.83 1748.5,1134.17 1749,1171.5C 1753.43,1200.27 1770.1,1215.27 1799,1216.5C 1827.47,1215.36 1844.14,1200.7 1849,1172.5C 1849.5,1134.83 1849.67,1097.17 1849.5,1059.5C 1853.83,1059.5 1858.17,1059.5 1862.5,1059.5C 1862.67,1097.83 1862.5,1136.17 1862,1174.5C 1855.42,1209.41 1834.42,1227.41 1799,1228.5C 1763.58,1227.41 1742.58,1209.41 1736,1174.5C 1735.5,1136.17 1735.33,1097.83 1735.5,1059.5 Z"/></g>
<g><path style="opacity:0.974" fill="#fcfcfd" d="M 643.5,1204.5 C 641.954,1207.2 639.621,1209.03 636.5,1210C 616.833,1210.67 597.167,1210.67 577.5,1210C 574.977,1208.64 572.977,1206.81 571.5,1204.5C 580.731,1185.42 591.064,1166.92 602.5,1149C 606.93,1146.92 610.763,1147.75 614,1151.5C 623.858,1169.22 633.691,1186.89 643.5,1204.5 Z"/></g>
<g><path style="opacity:1" fill="#3b427d" d="M 571.5,1204.5 C 572.977,1206.81 574.977,1208.64 577.5,1210C 597.167,1210.67 616.833,1210.67 636.5,1210C 639.621,1209.03 641.954,1207.2 643.5,1204.5C 644.3,1209.13 642.966,1212.96 639.5,1216C 628.722,1217.12 617.889,1217.62 607,1217.5C 596.431,1217.63 585.931,1217.13 575.5,1216C 571.114,1213.09 569.78,1209.26 571.5,1204.5 Z"/></g>
<g><path style="opacity:0.979" fill="#fefefe" d="M 675.5,1276.5 C 673.359,1279.47 670.692,1281.97 667.5,1284C 627.167,1284.67 586.833,1284.67 546.5,1284C 543.308,1281.97 540.641,1279.47 538.5,1276.5C 543.05,1266.4 547.883,1256.4 553,1246.5C 554.255,1245.79 555.421,1244.96 556.5,1244C 573.27,1242.85 590.103,1242.35 607,1242.5C 623.897,1242.35 640.73,1242.85 657.5,1244C 658.931,1244.47 660.097,1245.3 661,1246.5C 666.117,1256.4 670.95,1266.4 675.5,1276.5 Z"/></g>
<g><path style="opacity:0.853" fill="#fefffe" d="M 1571.5,1266.5 C 1579.49,1266 1581.49,1269.16 1577.5,1276C 1572.82,1277.58 1569.82,1276.08 1568.5,1271.5C 1568.76,1269.31 1569.76,1267.64 1571.5,1266.5 Z"/></g>
<g><path style="opacity:0.877" fill="#fefffe" d="M 1618.5,1266.5 C 1621.5,1266.5 1624.5,1266.5 1627.5,1266.5C 1627.5,1283.17 1627.5,1299.83 1627.5,1316.5C 1625.14,1316.66 1622.81,1316.5 1620.5,1316C 1619.81,1314.93 1619.31,1313.77 1619,1312.5C 1614.14,1316.28 1608.64,1317.45 1602.5,1316C 1597.56,1313.3 1594.73,1309.14 1594,1303.5C 1593.08,1285.73 1601.08,1279.07 1618,1283.5C 1618.5,1277.84 1618.67,1272.18 1618.5,1266.5 Z M 1609.5,1287.5 C 1617.23,1287.23 1620.23,1290.9 1618.5,1298.5C 1620.17,1305.48 1617.51,1309.48 1610.5,1310.5C 1604.53,1309.09 1601.87,1305.26 1602.5,1299C 1602.45,1293.57 1604.79,1289.74 1609.5,1287.5 Z"/></g>
<g><path style="opacity:0.877" fill="#fefffe" d="M 1665.5,1266.5 C 1668.5,1266.5 1671.5,1266.5 1674.5,1266.5C 1674.5,1283.17 1674.5,1299.83 1674.5,1316.5C 1672.14,1316.66 1669.81,1316.5 1667.5,1316C 1666.81,1314.93 1666.31,1313.77 1666,1312.5C 1661.14,1316.28 1655.64,1317.45 1649.5,1316C 1644.56,1313.3 1641.73,1309.14 1641,1303.5C 1640.08,1285.73 1648.08,1279.07 1665,1283.5C 1665.5,1277.84 1665.67,1272.18 1665.5,1266.5 Z M 1656.5,1287.5 C 1664.23,1287.23 1667.23,1290.9 1665.5,1298.5C 1667.17,1305.48 1664.51,1309.48 1657.5,1310.5C 1651.53,1309.09 1648.87,1305.26 1649.5,1299C 1649.45,1293.57 1651.79,1289.74 1656.5,1287.5 Z"/></g>
<g><path style="opacity:0.852" fill="#fefffe" d="M 1690.5,1266.5 C 1693.5,1266.5 1696.5,1266.5 1699.5,1266.5C 1699.5,1283.17 1699.5,1299.83 1699.5,1316.5C 1696.5,1316.5 1693.5,1316.5 1690.5,1316.5C 1690.5,1299.83 1690.5,1283.17 1690.5,1266.5 Z"/></g>
<g><path style="opacity:0.919" fill="#fefffe" d="M 897.5,1267.5 C 900.5,1267.5 903.5,1267.5 906.5,1267.5C 906.5,1283.83 906.5,1300.17 906.5,1316.5C 903.5,1316.5 900.5,1316.5 897.5,1316.5C 897.5,1300.17 897.5,1283.83 897.5,1267.5 Z"/></g>
<g><path style="opacity:0.919" fill="#fefffe" d="M 1236.5,1267.5 C 1239.5,1267.5 1242.5,1267.5 1245.5,1267.5C 1245.5,1283.83 1245.5,1300.17 1245.5,1316.5C 1242.5,1316.5 1239.5,1316.5 1236.5,1316.5C 1236.5,1300.17 1236.5,1283.83 1236.5,1267.5 Z"/></g>
<g><path style="opacity:0.906" fill="#fefffe" d="M 1343.5,1267.5 C 1362.94,1264.7 1374.27,1272.86 1377.5,1292C 1374.28,1311.29 1362.95,1319.29 1343.5,1316C 1327.18,1309.85 1321.68,1298.35 1327,1281.5C 1330.56,1274.43 1336.06,1269.76 1343.5,1267.5 Z M 1348.5,1274.5 C 1366.02,1276.51 1371.52,1285.85 1365,1302.5C 1355.69,1311.73 1346.35,1311.73 1337,1302.5C 1331.05,1288.8 1334.89,1279.46 1348.5,1274.5 Z"/></g>
<g><path style="opacity:0.902" fill="#fefffe" d="M 1498.5,1267.5 C 1501.78,1267.22 1504.94,1267.55 1508,1268.5C 1513.75,1279 1519.75,1289.33 1526,1299.5C 1531.83,1289.17 1537.67,1278.83 1543.5,1268.5C 1546.77,1267.51 1550.1,1267.18 1553.5,1267.5C 1553.5,1283.83 1553.5,1300.17 1553.5,1316.5C 1550.83,1316.5 1548.17,1316.5 1545.5,1316.5C 1545.67,1304.83 1545.5,1293.16 1545,1281.5C 1540,1290.5 1535,1299.5 1530,1308.5C 1527.33,1311.17 1524.67,1311.17 1522,1308.5C 1517,1299.83 1512,1291.17 1507,1282.5C 1506.5,1293.83 1506.33,1305.16 1506.5,1316.5C 1503.83,1316.5 1501.17,1316.5 1498.5,1316.5C 1498.5,1300.17 1498.5,1283.83 1498.5,1267.5 Z"/></g>
<g><path style="opacity:0.906" fill="#fefffe" d="M 1788.5,1267.5 C 1790.86,1267.34 1793.19,1267.5 1795.5,1268C 1804.67,1279.17 1813.83,1290.33 1823,1301.5C 1823.5,1290.17 1823.67,1278.84 1823.5,1267.5C 1826.17,1267.5 1828.83,1267.5 1831.5,1267.5C 1831.5,1283.83 1831.5,1300.17 1831.5,1316.5C 1828.75,1316.81 1826.09,1316.48 1823.5,1315.5C 1814.67,1304.5 1805.83,1293.5 1797,1282.5C 1796.5,1293.83 1796.33,1305.16 1796.5,1316.5C 1793.83,1316.5 1791.17,1316.5 1788.5,1316.5C 1788.5,1300.17 1788.5,1283.83 1788.5,1267.5 Z"/></g>
<g><path style="opacity:0.881" fill="#fefffe" d="M 975.5,1270.5 C 977.5,1270.5 979.5,1270.5 981.5,1270.5C 981.5,1274.5 981.5,1278.5 981.5,1282.5C 984.833,1282.5 988.167,1282.5 991.5,1282.5C 991.5,1284.17 991.5,1285.83 991.5,1287.5C 988.167,1287.5 984.833,1287.5 981.5,1287.5C 981.334,1294.51 981.5,1301.51 982,1308.5C 984.005,1310.8 986.172,1310.8 988.5,1308.5C 989.941,1309.87 991.274,1311.37 992.5,1313C 989.736,1315.64 986.402,1316.81 982.5,1316.5C 978.719,1317.17 975.886,1315.84 974,1312.5C 972.63,1304.24 972.13,1295.9 972.5,1287.5C 970.833,1287.5 969.167,1287.5 967.5,1287.5C 967.5,1285.83 967.5,1284.17 967.5,1282.5C 969.5,1282.5 971.5,1282.5 973.5,1282.5C 973.74,1278.39 974.407,1274.39 975.5,1270.5 Z"/></g>
<g><path style="opacity:0.881" fill="#fefffe" d="M 1180.5,1270.5 C 1182.5,1270.5 1184.5,1270.5 1186.5,1270.5C 1186.5,1274.5 1186.5,1278.5 1186.5,1282.5C 1189.83,1282.5 1193.17,1282.5 1196.5,1282.5C 1196.5,1284.17 1196.5,1285.83 1196.5,1287.5C 1193.17,1287.5 1189.83,1287.5 1186.5,1287.5C 1186.33,1294.51 1186.5,1301.51 1187,1308.5C 1189.01,1310.8 1191.17,1310.8 1193.5,1308.5C 1194.94,1309.87 1196.27,1311.37 1197.5,1313C 1194.74,1315.64 1191.4,1316.81 1187.5,1316.5C 1183.72,1317.17 1180.89,1315.84 1179,1312.5C 1177.63,1304.24 1177.13,1295.9 1177.5,1287.5C 1175.83,1287.5 1174.17,1287.5 1172.5,1287.5C 1172.5,1285.83 1172.5,1284.17 1172.5,1282.5C 1174.5,1282.5 1176.5,1282.5 1178.5,1282.5C 1178.74,1278.39 1179.41,1274.39 1180.5,1270.5 Z"/></g>
<g><path style="opacity:1" fill="#39407b" d="M 538.5,1276.5 C 540.641,1279.47 543.308,1281.97 546.5,1284C 586.833,1284.67 627.167,1284.67 667.5,1284C 670.692,1281.97 673.359,1279.47 675.5,1276.5C 676.86,1283.62 674.193,1288.45 667.5,1291C 627.167,1291.67 586.833,1291.67 546.5,1291C 539.807,1288.45 537.14,1283.62 538.5,1276.5 Z"/></g>
<g><path style="opacity:0.861" fill="#fefffe" d="M 938.5,1281.5 C 941.85,1281.33 945.183,1281.5 948.5,1282C 951,1283.17 952.833,1285 954,1287.5C 955.42,1297.09 955.92,1306.75 955.5,1316.5C 952.5,1316.5 949.5,1316.5 946.5,1316.5C 946.666,1307.83 946.5,1299.16 946,1290.5C 941.467,1286.53 937.133,1286.87 933,1291.5C 932.5,1299.83 932.334,1308.16 932.5,1316.5C 929.5,1316.5 926.5,1316.5 923.5,1316.5C 923.5,1305.17 923.5,1293.83 923.5,1282.5C 925.857,1282.34 928.19,1282.5 930.5,1283C 931.126,1283.75 931.626,1284.58 932,1285.5C 934.314,1284.27 936.481,1282.93 938.5,1281.5 Z"/></g>
<g><path style="opacity:0.896" fill="#fefffe" d="M 1013.5,1281.5 C 1025.82,1279.14 1033.15,1283.97 1035.5,1296C 1035.41,1297.11 1035.08,1298.11 1034.5,1299C 1026.51,1299.5 1018.51,1299.67 1010.5,1299.5C 1010.39,1306.28 1013.73,1309.95 1020.5,1310.5C 1023.94,1309.81 1027.27,1308.81 1030.5,1307.5C 1032.4,1307.73 1033.73,1308.73 1034.5,1310.5C 1030.84,1315.12 1026,1317.12 1020,1316.5C 1006.04,1315.86 1000.04,1308.53 1002,1294.5C 1003.62,1288.06 1007.45,1283.72 1013.5,1281.5 Z M 1017.5,1287.5 C 1023.26,1287.36 1026.59,1290.02 1027.5,1295.5C 1021.79,1295.83 1016.13,1295.5 1010.5,1294.5C 1011.91,1291.09 1014.24,1288.76 1017.5,1287.5 Z"/></g>
<g><path style="opacity:0.867" fill="#fefffe" d="M 1063.5,1281.5 C 1070.66,1279.82 1072.99,1282.32 1070.5,1289C 1067.43,1288.01 1064.43,1288.34 1061.5,1290C 1060.3,1290.9 1059.47,1292.07 1059,1293.5C 1058.5,1301.16 1058.33,1308.83 1058.5,1316.5C 1055.5,1316.5 1052.5,1316.5 1049.5,1316.5C 1049.5,1305.17 1049.5,1293.83 1049.5,1282.5C 1051.86,1282.34 1054.19,1282.5 1056.5,1283C 1057.19,1284.07 1057.69,1285.23 1058,1286.5C 1059.73,1284.6 1061.56,1282.93 1063.5,1281.5 Z"/></g>
<g><path style="opacity:0.861" fill="#fefffe" d="M 1098.5,1281.5 C 1101.85,1281.33 1105.18,1281.5 1108.5,1282C 1111,1283.17 1112.83,1285 1114,1287.5C 1115.42,1297.09 1115.92,1306.75 1115.5,1316.5C 1112.5,1316.5 1109.5,1316.5 1106.5,1316.5C 1106.67,1307.83 1106.5,1299.16 1106,1290.5C 1101.47,1286.53 1097.13,1286.87 1093,1291.5C 1092.5,1299.83 1092.33,1308.16 1092.5,1316.5C 1089.5,1316.5 1086.5,1316.5 1083.5,1316.5C 1083.5,1305.17 1083.5,1293.83 1083.5,1282.5C 1085.86,1282.34 1088.19,1282.5 1090.5,1283C 1091.13,1283.75 1091.63,1284.58 1092,1285.5C 1094.31,1284.27 1096.48,1282.93 1098.5,1281.5 Z"/></g>
<g><path style="opacity:0.896" fill="#fefffe" d="M 1140.5,1281.5 C 1152.82,1279.14 1160.15,1283.97 1162.5,1296C 1162.41,1297.11 1162.08,1298.11 1161.5,1299C 1153.51,1299.5 1145.51,1299.67 1137.5,1299.5C 1137.39,1306.28 1140.73,1309.95 1147.5,1310.5C 1150.94,1309.81 1154.27,1308.81 1157.5,1307.5C 1159.4,1307.73 1160.73,1308.73 1161.5,1310.5C 1157.84,1315.12 1153,1317.12 1147,1316.5C 1133.04,1315.86 1127.04,1308.53 1129,1294.5C 1130.62,1288.06 1134.45,1283.72 1140.5,1281.5 Z M 1144.5,1287.5 C 1150.26,1287.36 1153.59,1290.02 1154.5,1295.5C 1148.79,1295.83 1143.13,1295.5 1137.5,1294.5C 1138.91,1291.09 1141.24,1288.76 1144.5,1287.5 Z"/></g>
<g><path style="opacity:0.881" fill="#fefffe" d="M 1268.5,1281.5 C 1272.51,1281.33 1276.51,1281.5 1280.5,1282C 1283.21,1282.54 1285.21,1284.04 1286.5,1286.5C 1286.04,1288.29 1284.87,1289.29 1283,1289.5C 1278.86,1287.41 1274.69,1287.25 1270.5,1289C 1269.17,1290.67 1269.17,1292.33 1270.5,1294C 1275.29,1295.53 1279.96,1297.36 1284.5,1299.5C 1289.24,1306.8 1287.57,1312.3 1279.5,1316C 1273.28,1317.06 1267.28,1316.39 1261.5,1314C 1260.01,1310.96 1261.01,1309.12 1264.5,1308.5C 1266.61,1309.05 1268.61,1309.89 1270.5,1311C 1274.63,1312.1 1277.63,1310.76 1279.5,1307C 1279.24,1305.74 1278.57,1304.74 1277.5,1304C 1273.17,1302.33 1268.83,1300.67 1264.5,1299C 1261.68,1295.66 1260.85,1291.83 1262,1287.5C 1263.49,1284.69 1265.66,1282.69 1268.5,1281.5 Z"/></g>
<g><path style="opacity:0.867" fill="#fefffe" d="M 1452.5,1281.5 C 1459.66,1279.82 1461.99,1282.32 1459.5,1289C 1456.43,1288.01 1453.43,1288.34 1450.5,1290C 1449.3,1290.9 1448.47,1292.07 1448,1293.5C 1447.5,1301.16 1447.33,1308.83 1447.5,1316.5C 1444.5,1316.5 1441.5,1316.5 1438.5,1316.5C 1438.5,1305.17 1438.5,1293.83 1438.5,1282.5C 1440.86,1282.34 1443.19,1282.5 1445.5,1283C 1446.19,1284.07 1446.69,1285.23 1447,1286.5C 1448.73,1284.6 1450.56,1282.93 1452.5,1281.5 Z"/></g>
<g><path style="opacity:0.896" fill="#fefffe" d="M 1725.5,1281.5 C 1737.82,1279.14 1745.15,1283.97 1747.5,1296C 1747.41,1297.11 1747.08,1298.11 1746.5,1299C 1738.51,1299.5 1730.51,1299.67 1722.5,1299.5C 1722.39,1306.28 1725.73,1309.95 1732.5,1310.5C 1735.94,1309.81 1739.27,1308.81 1742.5,1307.5C 1744.4,1307.73 1745.73,1308.73 1746.5,1310.5C 1742.84,1315.12 1738,1317.12 1732,1316.5C 1718.04,1315.86 1712.04,1308.53 1714,1294.5C 1715.62,1288.06 1719.45,1283.72 1725.5,1281.5 Z M 1729.5,1287.5 C 1735.26,1287.36 1738.59,1290.02 1739.5,1295.5C 1733.79,1295.83 1728.13,1295.5 1722.5,1294.5C 1723.91,1291.09 1726.24,1288.76 1729.5,1287.5 Z"/></g>
<g><path style="opacity:0.888" fill="#fefffe" d="M 1855.5,1281.5 C 1859.51,1281.33 1863.51,1281.5 1867.5,1282C 1870.17,1283.25 1872.34,1285.08 1874,1287.5C 1875.42,1297.09 1875.92,1306.75 1875.5,1316.5C 1873.17,1316.5 1870.83,1316.5 1868.5,1316.5C 1868.5,1315.5 1868.5,1314.5 1868.5,1313.5C 1862.84,1316.22 1856.84,1317.05 1850.5,1316C 1845.85,1313.1 1844.35,1308.94 1846,1303.5C 1851.96,1297.71 1859.12,1295.38 1867.5,1296.5C 1867.59,1292.57 1865.92,1289.73 1862.5,1288C 1858.53,1287.98 1854.7,1288.82 1851,1290.5C 1848.64,1290.47 1847.14,1289.31 1846.5,1287C 1849.26,1284.63 1852.26,1282.79 1855.5,1281.5 Z M 1862.5,1301.5 C 1864.17,1301.5 1865.83,1301.5 1867.5,1301.5C 1867.81,1307.56 1864.81,1310.9 1858.5,1311.5C 1854.45,1311.29 1852.95,1309.29 1854,1305.5C 1856.56,1303.38 1859.4,1302.04 1862.5,1301.5 Z"/></g>
<g><path style="opacity:0.881" fill="#fefffe" d="M 1904.5,1281.5 C 1910.32,1280.31 1914.99,1281.97 1918.5,1286.5C 1924.01,1281.31 1930.34,1280.14 1937.5,1283C 1939.81,1284.64 1941.31,1286.8 1942,1289.5C 1942.5,1298.49 1942.67,1307.49 1942.5,1316.5C 1939.83,1316.5 1937.17,1316.5 1934.5,1316.5C 1934.91,1307.75 1934.41,1299.08 1933,1290.5C 1929.04,1286.47 1925.38,1286.8 1922,1291.5C 1921.5,1299.83 1921.33,1308.16 1921.5,1316.5C 1918.5,1316.5 1915.5,1316.5 1912.5,1316.5C 1912.67,1307.83 1912.5,1299.16 1912,1290.5C 1908.42,1286.67 1904.76,1286.67 1901,1290.5C 1900.5,1299.16 1900.33,1307.83 1900.5,1316.5C 1897.5,1316.5 1894.5,1316.5 1891.5,1316.5C 1891.5,1305.17 1891.5,1293.83 1891.5,1282.5C 1893.86,1282.34 1896.19,1282.5 1898.5,1283C 1899.13,1283.75 1899.63,1284.58 1900,1285.5C 1901.4,1283.93 1902.9,1282.6 1904.5,1281.5 Z"/></g>
<g><path style="opacity:0.896" fill="#fefffe" d="M 1967.5,1281.5 C 1979.82,1279.14 1987.15,1283.97 1989.5,1296C 1989.41,1297.11 1989.08,1298.11 1988.5,1299C 1980.51,1299.5 1972.51,1299.67 1964.5,1299.5C 1964.39,1306.28 1967.73,1309.95 1974.5,1310.5C 1977.94,1309.81 1981.27,1308.81 1984.5,1307.5C 1986.4,1307.73 1987.73,1308.73 1988.5,1310.5C 1984.84,1315.12 1980,1317.12 1974,1316.5C 1960.04,1315.86 1954.04,1308.53 1956,1294.5C 1957.62,1288.06 1961.45,1283.72 1967.5,1281.5 Z M 1971.5,1287.5 C 1977.26,1287.36 1980.59,1290.02 1981.5,1295.5C 1975.79,1295.83 1970.13,1295.5 1964.5,1294.5C 1965.91,1291.09 1968.24,1288.76 1971.5,1287.5 Z"/></g>
<g><path style="opacity:0.892" fill="#fefffe" d="M 1390.5,1282.5 C 1393.17,1282.5 1395.83,1282.5 1398.5,1282.5C 1398.33,1290.17 1398.5,1297.84 1399,1305.5C 1403.08,1311.84 1407.75,1312.17 1413,1306.5C 1413.5,1298.51 1413.67,1290.51 1413.5,1282.5C 1416.5,1282.5 1419.5,1282.5 1422.5,1282.5C 1422.5,1293.83 1422.5,1305.17 1422.5,1316.5C 1420.14,1316.66 1417.81,1316.5 1415.5,1316C 1414.81,1314.93 1414.31,1313.77 1414,1312.5C 1409.14,1316.28 1403.64,1317.45 1397.5,1316C 1395.38,1314.88 1393.54,1313.38 1392,1311.5C 1390.58,1301.91 1390.08,1292.25 1390.5,1282.5 Z"/></g>
<g><path style="opacity:0.95" fill="#fefffe" d="M 1570.5,1282.5 C 1573.17,1282.5 1575.83,1282.5 1578.5,1282.5C 1578.5,1293.83 1578.5,1305.17 1578.5,1316.5C 1575.83,1316.5 1573.17,1316.5 1570.5,1316.5C 1570.5,1305.17 1570.5,1293.83 1570.5,1282.5 Z"/></g>
</svg>
