<?xml version="1.0" encoding="UTF-8"?>
<!DOCTYPE svg PUBLIC "-//W3C//DTD SVG 1.1//EN" "http://www.w3.org/Graphics/SVG/1.1/DTD/svg11.dtd">
<svg xmlns="http://www.w3.org/2000/svg" version="1.1" width="192px" height="192px" style="shape-rendering:geometricPrecision; text-rendering:geometricPrecision; image-rendering:optimizeQuality; fill-rule:evenodd; clip-rule:evenodd" xmlns:xlink="http://www.w3.org/1999/xlink">
<g><path style="opacity:0.259" fill="#4f6ee6" d="M 78.5,40.5 C 85.017,39.3146 91.6837,39.3146 98.5,40.5C 102.102,40.6924 105.102,42.0257 107.5,44.5C 108.306,45.7281 109.306,46.7281 110.5,47.5C 106.613,45.5855 102.613,43.7522 98.5,42C 93.882,41.006 89.2153,40.506 84.5,40.5C 82.5,40.5 80.5,40.5 78.5,40.5 Z"/></g>
<g><path style="opacity:0.494" fill="#4774e9" d="M 84.5,47.5 C 87.0593,47.1984 89.3926,47.5318 91.5,48.5C 87.6286,48.185 83.9619,48.5184 80.5,49.5C 78.6976,50.4582 76.6976,51.1249 74.5,51.5C 74.8333,50.8333 75.1667,50.1667 75.5,49.5C 78.1226,47.7345 81.1226,47.0679 84.5,47.5 Z"/></g>
<g><path style="opacity:0.035" fill="#6744dc" d="M 84.5,47.5 C 95.7729,45.1258 105.106,48.4591 112.5,57.5C 114.393,59.9524 115.726,62.6191 116.5,65.5C 116.631,66.2389 116.464,66.9056 116,67.5C 115.722,66.5842 115.222,65.9175 114.5,65.5C 109.995,55.6742 102.328,50.0076 91.5,48.5C 89.3926,47.5318 87.0593,47.1984 84.5,47.5 Z"/></g>
<g><path style="opacity:0.533" fill="#20a7f6" d="M 80.5,49.5 C 83.9619,48.5184 87.6286,48.185 91.5,48.5C 102.328,50.0076 109.995,55.6742 114.5,65.5C 113.5,64.8333 112.5,64.1667 111.5,63.5C 111.5,62.8333 111.167,62.5 110.5,62.5C 103.323,52.2567 93.323,47.9233 80.5,49.5 Z"/></g>
<g><path style="opacity:0.031" fill="#21abf6" d="M 107.5,44.5 C 115.811,47.9788 121.644,53.9788 125,62.5C 125.494,64.1341 125.66,65.8008 125.5,67.5C 124.833,66.5 124.167,65.5 123.5,64.5C 121.013,57.3559 116.68,51.6892 110.5,47.5C 109.306,46.7281 108.306,45.7281 107.5,44.5 Z"/></g>
<g><path style="opacity:0.886" fill="#6741d8" d="M 75.5,49.5 C 75.1667,50.1667 74.8333,50.8333 74.5,51.5C 65.677,54.7688 60.3437,61.1022 58.5,70.5C 57.8333,71.5 57.1667,72.5 56.5,73.5C 57.7639,61.4321 64.0973,53.4321 75.5,49.5 Z"/></g>
<g><path style="opacity:0.565" fill="#6449dd" d="M 110.5,47.5 C 116.68,51.6892 121.013,57.3559 123.5,64.5C 123.517,66.5648 123.85,68.5648 124.5,70.5C 123.5,70.1667 122.833,69.5 122.5,68.5C 122.024,64.905 120.858,61.5716 119,58.5C 115.896,54.9146 113.063,51.2479 110.5,47.5 Z"/></g>
<g><path style="opacity:0.867" fill="#2e3776" d="M 96.5,72.5 C 91.9688,66.1579 85.9688,64.3246 78.5,67C 76.9297,68.3968 75.5964,69.8968 74.5,71.5C 74.6776,64.5602 78.3442,61.2268 85.5,61.5C 92.8419,61.5086 96.5086,65.1753 96.5,72.5 Z"/></g>
<g><path style="opacity:0.98" fill="#285bb4" d="M 110.5,62.5 C 111.167,62.5 111.5,62.8333 111.5,63.5C 112.5,64.1667 113.5,64.8333 114.5,65.5C 115.222,65.9175 115.722,66.5842 116,67.5C 116.464,66.9056 116.631,66.2389 116.5,65.5C 118.517,66.5294 120.517,67.5294 122.5,68.5C 122.833,69.5 123.5,70.1667 124.5,70.5C 124.697,76.5451 124.363,82.5451 123.5,88.5C 117.167,82.5 110.833,76.5 104.5,70.5C 103.395,67.5607 102.061,64.7274 100.5,62C 103.746,62.3165 107.08,62.4832 110.5,62.5 Z"/></g>
<g><path style="opacity:0.404" fill="#6549dc" d="M 78.5,40.5 C 80.5,40.5 82.5,40.5 84.5,40.5C 58.2438,46.9838 47.5771,63.6505 52.5,90.5C 52.5,90.8333 52.5,91.1667 52.5,91.5C 51.2028,89.6287 50.2028,87.6287 49.5,85.5C 46.8926,62.3433 56.5593,47.3433 78.5,40.5 Z"/></g>
<g><path style="opacity:0.118" fill="#26a4f6" d="M 74.5,51.5 C 66.7472,57.5693 61.4139,65.236 58.5,74.5C 58.5,73.1667 58.5,71.8333 58.5,70.5C 60.3437,61.1022 65.677,54.7688 74.5,51.5 Z"/></g>
<g><path style="opacity:0.987" fill="#384eb8" d="M 96.5,72.5 C 95.0634,78.4167 91.2301,81.0834 85,80.5C 83.1667,80.3333 81.3333,80.1667 79.5,80C 78.4495,78.6152 77.1161,77.6152 75.5,77C 74.5939,75.3005 74.2606,73.4672 74.5,71.5C 75.5964,69.8968 76.9297,68.3968 78.5,67C 85.9688,64.3246 91.9688,66.1579 96.5,72.5 Z"/></g>
<g><path style="opacity:0.147" fill="#3882ec" d="M 58.5,70.5 C 58.5,71.8333 58.5,73.1667 58.5,74.5C 58.762,75.9778 58.4287,77.3112 57.5,78.5C 56.5481,76.9547 56.2148,75.288 56.5,73.5C 57.1667,72.5 57.8333,71.5 58.5,70.5 Z"/></g>
<g><path style="opacity:1" fill="#485cd5" d="M 123.5,64.5 C 124.167,65.5 124.833,66.5 125.5,67.5C 126.751,73.8386 126.751,80.172 125.5,86.5C 124.833,87.5 124.167,88.5 123.5,89.5C 123.5,89.1667 123.5,88.8333 123.5,88.5C 124.363,82.5451 124.697,76.5451 124.5,70.5C 123.85,68.5648 123.517,66.5648 123.5,64.5 Z"/></g>
<g><path style="opacity:1" fill="#2085d6" d="M 125.5,67.5 C 126.537,68.9303 127.204,70.597 127.5,72.5C 127.665,76.1817 127.499,79.8484 127,83.5C 126.768,84.7375 126.268,85.7375 125.5,86.5C 126.751,80.172 126.751,73.8386 125.5,67.5 Z"/></g>
<g><path style="opacity:0.533" fill="#22a7f6" d="M 98.5,40.5 C 91.6837,39.3146 85.017,39.3146 78.5,40.5C 56.5593,47.3433 46.8926,62.3433 49.5,85.5C 49.5,86.8333 49.5,88.1667 49.5,89.5C 44.2431,69.0258 50.5764,53.1925 68.5,42C 77.5495,38.6623 86.8828,37.6623 96.5,39C 97.4158,39.2784 98.0825,39.7784 98.5,40.5 Z"/></g>
<g><path style="opacity:0.962" fill="#533ec4" d="M 73.5,96.5 C 68.4382,91.4431 63.7715,86.1098 59.5,80.5C 60.8943,77.0668 63.2276,74.4001 66.5,72.5C 67.9384,76.4642 70.4384,79.7975 74,82.5C 74.8151,87.3522 74.6484,92.0189 73.5,96.5 Z"/></g>
<g><path style="opacity:0.995" fill="#3551b8" d="M 101.5,78.5 C 113.998,91.4972 126.998,103.997 140.5,116C 141.448,116.483 142.448,116.649 143.5,116.5C 142.142,120.248 140.809,123.914 139.5,127.5C 126.589,113.086 113.089,99.0857 99,85.5C 98.5172,84.552 98.3505,83.552 98.5,82.5C 99.7888,81.3634 100.789,80.0301 101.5,78.5 Z"/></g>
<g><path style="opacity:0.975" fill="#275ab3" d="M 127.5,72.5 C 137.618,81.4096 142.951,92.7429 143.5,106.5C 137.725,101.9 132.059,97.0663 126.5,92C 125.256,91.5439 124.423,92.0439 124,93.5C 123.51,92.2068 123.343,90.8734 123.5,89.5C 124.167,88.5 124.833,87.5 125.5,86.5C 126.268,85.7375 126.768,84.7375 127,83.5C 127.499,79.8484 127.665,76.1817 127.5,72.5 Z"/></g>
<g><path style="opacity:0.984" fill="#5e37c9" d="M 59.5,80.5 C 63.7715,86.1098 68.4382,91.4431 73.5,96.5C 73.3404,98.153 72.6737,99.4863 71.5,100.5C 66.0881,95.4162 60.7547,90.4162 55.5,85.5C 56.1447,83.1737 57.478,81.507 59.5,80.5 Z"/></g>
<g><path style="opacity:0.984" fill="#3c4dba" d="M 98.5,82.5 C 98.3505,83.552 98.5172,84.552 99,85.5C 113.089,99.0857 126.589,113.086 139.5,127.5C 138.486,129.574 137.486,131.574 136.5,133.5C 124.225,119.391 111.059,106.058 97,93.5C 96.6174,94.056 96.1174,94.3893 95.5,94.5C 95.1774,90.774 95.5108,87.1073 96.5,83.5C 97.1835,83.1373 97.8501,82.8039 98.5,82.5 Z"/></g>
<g><path style="opacity:0.816" fill="#3292ef" d="M 49.5,85.5 C 50.2028,87.6287 51.2028,89.6287 52.5,91.5C 52.6287,93.2161 52.962,94.8828 53.5,96.5C 52.8333,96.1667 52.1667,95.8333 51.5,95.5C 50.6373,93.5786 49.9707,91.5786 49.5,89.5C 49.5,88.1667 49.5,86.8333 49.5,85.5 Z"/></g>
<g><path style="opacity:0.976" fill="#6c31cf" d="M 55.5,85.5 C 60.7547,90.4162 66.0881,95.4162 71.5,100.5C 70.2407,103.366 69.2407,106.366 68.5,109.5C 65.213,108.736 62.5463,106.903 60.5,104C 56.6892,102.878 54.3559,100.378 53.5,96.5C 52.962,94.8828 52.6287,93.2161 52.5,91.5C 52.5,91.1667 52.5,90.8333 52.5,90.5C 53.3077,88.7798 54.3077,87.1131 55.5,85.5 Z"/></g>
<g><path style="opacity:0.979" fill="#2d56b5" d="M 104.5,70.5 C 110.833,76.5 117.167,82.5 123.5,88.5C 123.5,88.8333 123.5,89.1667 123.5,89.5C 123.343,90.8734 123.51,92.2068 124,93.5C 124.423,92.0439 125.256,91.5439 126.5,92C 132.059,97.0663 137.725,101.9 143.5,106.5C 143.5,109.833 143.5,113.167 143.5,116.5C 142.448,116.649 141.448,116.483 140.5,116C 126.998,103.997 113.998,91.4972 101.5,78.5C 103.606,76.2812 104.606,73.6145 104.5,70.5 Z"/></g>
<g><path style="opacity:0.963" fill="#7b26d5" d="M 51.5,95.5 C 52.1667,95.8333 52.8333,96.1667 53.5,96.5C 54.3559,100.378 56.6892,102.878 60.5,104C 62.5463,106.903 65.213,108.736 68.5,109.5C 64.3822,117.017 60.5489,124.684 57,132.5C 51.4219,125.349 48.9219,117.183 49.5,108C 49.9208,103.651 50.5875,99.484 51.5,95.5 Z"/></g>
<g><path style="opacity:0.916" fill="#523cbf" d="M 95.5,113.5 C 95.3893,114.117 95.056,114.617 94.5,115C 88.6513,115.818 82.9846,115.652 77.5,114.5C 82.8746,114.828 88.2079,114.495 93.5,113.5C 90.085,109.08 86.085,105.414 81.5,102.5C 82.295,99.186 84.295,97.686 87.5,98C 91.2093,102.628 93.876,107.794 95.5,113.5 Z"/></g>
<g><path style="opacity:0.974" fill="#4547be" d="M 136.5,133.5 C 135.396,135.389 134.063,137.055 132.5,138.5C 125.671,130.838 118.338,123.671 110.5,117C 109.251,116.26 108.251,116.427 107.5,117.5C 103.507,109.872 99.5067,102.206 95.5,94.5C 96.1174,94.3893 96.6174,94.056 97,93.5C 111.059,106.058 124.225,119.391 136.5,133.5 Z"/></g>
<g><path style="opacity:0.956" fill="#5e37c8" d="M 81.5,102.5 C 86.085,105.414 90.085,109.08 93.5,113.5C 88.2079,114.495 82.8746,114.828 77.5,114.5C 76.8333,114.167 76.1667,113.833 75.5,113.5C 76.7639,109.322 78.7639,105.655 81.5,102.5 Z"/></g>
<g><path style="opacity:0.719" fill="#2e3576" d="M 75.5,113.5 C 76.1667,113.833 76.8333,114.167 77.5,114.5C 82.9846,115.652 88.6513,115.818 94.5,115C 95.056,114.617 95.3893,114.117 95.5,113.5C 96.6527,114.313 96.6527,115.313 95.5,116.5C 89.5276,117.664 83.5276,117.83 77.5,117C 76.0267,116.29 75.3601,115.124 75.5,113.5 Z"/></g>
<g><path style="opacity:0.957" fill="#5040c3" d="M 132.5,138.5 C 129.747,142.78 126.081,145.614 121.5,147C 116.154,137.447 111.487,127.614 107.5,117.5C 108.251,116.427 109.251,116.26 110.5,117C 118.338,123.671 125.671,130.838 132.5,138.5 Z"/></g>
<g><path style="opacity:0.992" fill="#7b26d4" d="M 80.5,123.5 C 83.6652,127.498 87.3319,130.998 91.5,134C 83.8406,134.5 76.1739,134.666 68.5,134.5C 67.8333,134.167 67.1667,133.833 66.5,133.5C 67.6885,130.117 69.3551,126.951 71.5,124C 74.4816,123.502 77.4816,123.335 80.5,123.5 Z"/></g>
<g><path style="opacity:1" fill="#6b2fcc" d="M 80.5,123.5 C 87.175,123.334 93.8417,123.5 100.5,124C 102.614,126.912 103.947,130.079 104.5,133.5C 103.711,133.783 103.044,134.283 102.5,135C 90.9924,135.826 79.6591,135.659 68.5,134.5C 76.1739,134.666 83.8406,134.5 91.5,134C 87.3319,130.998 83.6652,127.498 80.5,123.5 Z"/></g>
<g><path style="opacity:0.79" fill="#2f3676" d="M 66.5,133.5 C 67.1667,133.833 67.8333,134.167 68.5,134.5C 79.6591,135.659 90.9924,135.826 102.5,135C 103.044,134.283 103.711,133.783 104.5,133.5C 104.5,134.833 104.5,136.167 104.5,137.5C 92.1622,137.667 79.8288,137.5 67.5,137C 66.6634,135.989 66.33,134.822 66.5,133.5 Z"/></g>
</svg>
