<?xml version="1.0" encoding="UTF-8"?>
<!DOCTYPE svg PUBLIC "-//W3C//DTD SVG 1.1//EN" "http://www.w3.org/Graphics/SVG/1.1/DTD/svg11.dtd">
<svg xmlns="http://www.w3.org/2000/svg" version="1.1" width="2363px" height="2363px" style="shape-rendering:geometricPrecision; text-rendering:geometricPrecision; image-rendering:optimizeQuality; fill-rule:evenodd; clip-rule:evenodd" xmlns:xlink="http://www.w3.org/1999/xlink">
<g><path style="opacity:1" fill="#2798f2" d="M 1246.5,529.5 C 1231.36,526.024 1216.02,524.024 1200.5,523.5C 1199.83,523.5 1199.17,523.5 1198.5,523.5C 1194.3,522.78 1189.97,522.114 1185.5,521.5C 1167.03,522.347 1148.7,524.514 1130.5,528C 1125.51,528.905 1120.85,530.405 1116.5,532.5C 1106.65,534.616 1096.98,537.45 1087.5,541C 1027.25,567.916 982.75,611.083 954,670.5C 949.711,678.732 946.878,687.399 945.5,696.5C 943.59,697.975 942.424,699.975 942,702.5C 925.836,754.607 926.669,806.274 944.5,857.5C 949.981,867.492 954.147,878.158 957,889.5C 958.032,891.027 959.199,892.36 960.5,893.5C 961.933,895.558 962.6,897.892 962.5,900.5C 959.202,895.524 955.869,890.524 952.5,885.5C 945.472,873.092 940.805,859.758 938.5,845.5C 934.848,831.895 931.681,818.229 929,804.5C 927.618,778.695 928.785,753.028 932.5,727.5C 934.741,714.177 937.741,701.01 941.5,688C 951.506,664.024 964.006,641.524 979,620.5C 986.943,615.394 992.443,608.394 995.5,599.5C 1002.18,594.489 1008.18,588.822 1013.5,582.5C 1018.58,579.585 1023.25,576.085 1027.5,572C 1060.04,547.415 1096.71,531.415 1137.5,524C 1170.92,518.903 1204.25,519.57 1237.5,526C 1240.79,526.725 1243.79,527.892 1246.5,529.5 Z"/></g>
<g><path style="opacity:0.575" fill="#7331d7" d="M 1204.5,525.5 C 1211.51,526.084 1218.51,526.751 1225.5,527.5C 1225.5,527.833 1225.5,528.167 1225.5,528.5C 1134.73,519.988 1059.23,549.655 999,617.5C 941.21,691.545 925.377,773.878 951.5,864.5C 948.868,859.117 946.701,853.45 945,847.5C 939.27,823.861 936.103,799.861 935.5,775.5C 936.482,767.001 937.316,758.334 938,749.5C 940.825,739.013 942.825,728.346 944,717.5C 948.275,706.414 951.942,695.081 955,683.5C 960.117,674.931 964.45,665.931 968,656.5C 972.116,649.074 977.116,642.408 983,636.5C 983.333,634.833 983.667,633.167 984,631.5C 986.574,629.355 988.407,626.688 989.5,623.5C 992.229,622.938 993.729,621.272 994,618.5C 1001.16,611.366 1008,603.866 1014.5,596C 1017.79,593.712 1020.79,591.045 1023.5,588C 1027.04,587.664 1029.21,585.831 1030,582.5C 1080.76,542.328 1138.93,523.328 1204.5,525.5 Z"/></g>
<g><path style="opacity:0.923" fill="#11b5f9" d="M 1380.5,754.5 C 1376.75,732.23 1369.08,711.564 1357.5,692.5C 1317.89,622.496 1257.56,585.829 1176.5,582.5C 1153.66,582.711 1131.66,587.045 1110.5,595.5C 1110.95,594.542 1111.62,593.708 1112.5,593C 1115.37,592.058 1118.04,590.891 1120.5,589.5C 1123.57,587.698 1126.91,586.698 1130.5,586.5C 1175.4,575.84 1219.07,579.674 1261.5,598C 1273.38,604.022 1285.21,609.855 1297,615.5C 1300.75,619.72 1305.25,622.72 1310.5,624.5C 1313.37,629.044 1317.04,633.044 1321.5,636.5C 1347.15,663.763 1365.65,695.429 1377,731.5C 1378.76,738.277 1380.26,745.11 1381.5,752C 1381.47,753.07 1381.14,753.903 1380.5,754.5 Z"/></g>
<g><path style="opacity:1" fill="#2798f1" d="M 1173.5,578.5 C 1188.23,578.278 1202.89,579.111 1217.5,581C 1230.29,583.85 1242.95,587.017 1255.5,590.5C 1268.32,595.91 1280.65,602.41 1292.5,610C 1298.48,614.991 1304.82,619.491 1311.5,623.5C 1321.25,632.42 1330.42,641.753 1339,651.5C 1341.6,655.03 1343.93,658.697 1346,662.5C 1349.36,666.687 1352.86,670.687 1356.5,674.5C 1362.93,689.685 1369.6,704.685 1376.5,719.5C 1381.45,738.546 1384.45,757.88 1385.5,777.5C 1385.19,778.738 1384.69,778.738 1384,777.5C 1383.16,769.755 1381.99,762.089 1380.5,754.5C 1381.14,753.903 1381.47,753.07 1381.5,752C 1380.26,745.11 1378.76,738.277 1377,731.5C 1365.65,695.429 1347.15,663.763 1321.5,636.5C 1317.04,633.044 1313.37,629.044 1310.5,624.5C 1305.25,622.72 1300.75,619.72 1297,615.5C 1285.21,609.855 1273.38,604.022 1261.5,598C 1219.07,579.674 1175.4,575.84 1130.5,586.5C 1130.5,586.167 1130.5,585.833 1130.5,585.5C 1138.81,582.976 1147.14,580.976 1155.5,579.5C 1161.48,578.835 1167.48,578.502 1173.5,578.5 Z"/></g>
<g><path style="opacity:1" fill="#5e4dde" d="M 1220.5,576.5 C 1264.13,584.4 1301.63,603.733 1333,634.5C 1337.03,641.163 1342.03,647.163 1348,652.5C 1354.41,661.427 1360.25,670.76 1365.5,680.5C 1367.87,686.616 1370.53,692.616 1373.5,698.5C 1374.36,699.425 1375.36,700.092 1376.5,700.5C 1381.29,714.111 1384.29,728.111 1385.5,742.5C 1385.5,743.5 1385.5,744.5 1385.5,745.5C 1385.61,747.379 1385.11,747.712 1384,746.5C 1384.6,736.482 1382.1,727.482 1376.5,719.5C 1376.17,716.833 1375.83,714.167 1375.5,711.5C 1371.64,698.088 1366.14,685.421 1359,673.5C 1358.33,672.748 1357.5,672.414 1356.5,672.5C 1355.97,670.076 1355.14,667.743 1354,665.5C 1343.61,650.439 1331.77,636.606 1318.5,624C 1316.98,622.991 1315.31,622.491 1313.5,622.5C 1311.2,619.473 1308.53,616.64 1305.5,614C 1289.85,602.839 1272.85,594.339 1254.5,588.5C 1244.95,585.926 1235.45,583.259 1226,580.5C 1225.23,580.645 1224.56,580.978 1224,581.5C 1207.23,577.666 1190.39,576.666 1173.5,578.5C 1167.48,578.502 1161.48,578.835 1155.5,579.5C 1155.61,578.883 1155.94,578.383 1156.5,578C 1177.77,575.22 1199.1,574.72 1220.5,576.5 Z"/></g>
<g><path style="opacity:1" fill="#2798f2" d="M 1338.5,572.5 C 1342.78,574.977 1347.11,577.477 1351.5,580C 1366.44,593.273 1380.28,607.439 1393,622.5C 1396.64,628.467 1400.64,634.134 1405,639.5C 1406.17,644.234 1408.5,648.234 1412,651.5C 1416.33,660.167 1420.67,668.833 1425,677.5C 1429.84,694.334 1434.84,711.001 1440,727.5C 1446.73,765.557 1445.07,803.223 1435,840.5C 1434.15,841.571 1433.31,842.571 1432.5,843.5C 1432.91,837.032 1433.91,830.699 1435.5,824.5C 1436.78,822.438 1437.61,820.104 1438,817.5C 1444.23,774.132 1440.23,731.798 1426,690.5C 1425.62,689.058 1424.79,688.058 1423.5,687.5C 1423.74,686.209 1423.4,685.209 1422.5,684.5C 1422.02,679.047 1420.02,674.214 1416.5,670C 1414.86,665.887 1413.36,661.721 1412,657.5C 1410.37,655.163 1408.53,653.163 1406.5,651.5C 1406,648.674 1404.67,646.34 1402.5,644.5C 1401.96,642.407 1401.12,640.407 1400,638.5C 1390.77,624.775 1380.27,612.108 1368.5,600.5C 1367.5,599.833 1366.5,599.167 1365.5,598.5C 1362.77,594.263 1359.44,590.429 1355.5,587C 1351.01,582.492 1346.01,578.825 1340.5,576C 1339.69,574.887 1339.03,573.721 1338.5,572.5 Z"/></g>
<g><path style="opacity:1" fill="#5d4edf" d="M 1198.5,523.5 C 1199.17,523.5 1199.83,523.5 1200.5,523.5C 1201.83,524.167 1203.17,524.833 1204.5,525.5C 1138.93,523.328 1080.76,542.328 1030,582.5C 1029.21,585.831 1027.04,587.664 1023.5,588C 1020.79,591.045 1017.79,593.712 1014.5,596C 1008,603.866 1001.16,611.366 994,618.5C 993.729,621.272 992.229,622.938 989.5,623.5C 988.407,626.688 986.574,629.355 984,631.5C 983.667,633.167 983.333,634.833 983,636.5C 977.116,642.408 972.116,649.074 968,656.5C 964.45,665.931 960.117,674.931 955,683.5C 951.942,695.081 948.275,706.414 944,717.5C 942.825,728.346 940.825,739.013 938,749.5C 937.316,758.334 936.482,767.001 935.5,775.5C 935.449,762.113 936.282,748.78 938,735.5C 941.539,720.451 945.039,705.451 948.5,690.5C 949.629,689.53 950.629,688.364 951.5,687C 955.994,675.513 961.16,664.346 967,653.5C 972.382,646.85 976.549,639.516 979.5,631.5C 991.87,618.465 1003.87,605.132 1015.5,591.5C 1018.65,585.679 1023.32,581.679 1029.5,579.5C 1029.28,578.325 1029.61,577.325 1030.5,576.5C 1045.15,565.346 1060.82,556.013 1077.5,548.5C 1095.48,541.257 1113.81,535.09 1132.5,530C 1154.29,525.757 1176.29,523.591 1198.5,523.5 Z"/></g>
<g><path style="opacity:0.698" fill="#7332d7" d="M 1087.5,600.5 C 1076.09,607.081 1065.09,614.247 1054.5,622C 1044.52,630.735 1035.35,640.235 1027,650.5C 1026.21,651.745 1025.71,653.078 1025.5,654.5C 1024.28,655.028 1023.11,655.695 1022,656.5C 1013.53,668.982 1005.87,681.982 999,695.5C 997.791,702.456 995.791,709.122 993,715.5C 987.562,734.13 985.395,753.13 986.5,772.5C 986.5,774.5 986.5,776.5 986.5,778.5C 981.765,704.106 1010.76,646.94 1073.5,607C 1078.07,604.548 1082.73,602.382 1087.5,600.5 Z"/></g>
<g><path style="opacity:1" fill="#7034d7" d="M 1369.5,608.5 C 1370.24,608.369 1370.91,608.536 1371.5,609C 1378.68,617.187 1385.52,625.687 1392,634.5C 1394.09,638.355 1395.93,642.355 1397.5,646.5C 1398.32,647.386 1399.32,647.719 1400.5,647.5C 1407.48,662.438 1414.32,677.438 1421,692.5C 1424.46,702.65 1427.46,712.983 1430,723.5C 1435.37,748.552 1437.04,773.886 1435,799.5C 1434.5,795.848 1434.33,792.182 1434.5,788.5C 1434.29,778.155 1433.79,767.822 1433,757.5C 1432.4,748.602 1430.9,739.936 1428.5,731.5C 1418.68,685.542 1399.02,644.542 1369.5,608.5 Z"/></g>
<g><path style="opacity:0.995" fill="#2759b2" d="M 1357.5,692.5 C 1369.08,711.564 1376.75,732.23 1380.5,754.5C 1381.99,762.089 1383.16,769.755 1384,777.5C 1384.69,778.738 1385.19,778.738 1385.5,777.5C 1386.83,766.833 1386.83,756.167 1385.5,745.5C 1385.5,744.5 1385.5,743.5 1385.5,742.5C 1401.8,757.469 1417.8,772.802 1433.5,788.5C 1433.6,808.792 1431.27,828.792 1426.5,848.5C 1425.76,848.631 1425.09,848.464 1424.5,848C 1383.6,807.267 1342.27,767.101 1300.5,727.5C 1297.69,707.043 1289.35,689.21 1275.5,674C 1303.75,676.017 1331.08,682.184 1357.5,692.5 Z"/></g>
<g><path style="opacity:1" fill="#5b51df" d="M 1025.5,654.5 C 1020.04,663.412 1014.54,672.412 1009,681.5C 1005.32,687.852 1002.49,694.519 1000.5,701.5C 997.97,709.758 995.637,718.092 993.5,726.5C 991.123,732.58 990.123,738.913 990.5,745.5C 988.584,754.517 987.25,763.517 986.5,772.5C 985.395,753.13 987.562,734.13 993,715.5C 995.791,709.122 997.791,702.456 999,695.5C 1005.87,681.982 1013.53,668.982 1022,656.5C 1023.11,655.695 1024.28,655.028 1025.5,654.5 Z"/></g>
<g><path style="opacity:0.971" fill="#13b5f9" d="M 1110.5,595.5 C 1050.36,628.695 1011.53,678.695 994,745.5C 991.471,755.369 989.638,765.369 988.5,775.5C 988.36,777.03 987.693,778.03 986.5,778.5C 986.5,776.5 986.5,774.5 986.5,772.5C 987.25,763.517 988.584,754.517 990.5,745.5C 998.069,716.355 1010.57,689.355 1028,664.5C 1028.33,663.167 1028.67,661.833 1029,660.5C 1032.17,657.104 1035.5,653.77 1039,650.5C 1039.86,648.913 1040.53,647.246 1041,645.5C 1048.32,639.35 1055.15,632.683 1061.5,625.5C 1066.94,622.888 1071.28,619.055 1074.5,614C 1082.49,609.671 1090.16,604.838 1097.5,599.5C 1101.74,597.879 1106.08,596.546 1110.5,595.5 Z"/></g>
<g><path style="opacity:0.995" fill="#3252b6" d="M 1157.5,696.5 C 1182.67,692.21 1205,698.376 1224.5,715C 1232.63,723.101 1238.3,732.601 1241.5,743.5C 1239.68,752.139 1236.01,759.806 1230.5,766.5C 1207.03,743.201 1183.37,720.034 1159.5,697C 1158.91,696.536 1158.24,696.369 1157.5,696.5 Z"/></g>
<g><path style="opacity:0.995" fill="#3650b8" d="M 1157.5,696.5 C 1158.24,696.369 1158.91,696.536 1159.5,697C 1183.37,720.034 1207.03,743.201 1230.5,766.5C 1225.36,773.307 1219.03,778.641 1211.5,782.5C 1185.5,756.498 1159.16,730.831 1132.5,705.5C 1139.94,700.35 1148.28,697.35 1157.5,696.5 Z"/></g>
<g><path style="opacity:0.985" fill="#245bb0" d="M 1376.5,700.5 C 1394.83,709.323 1412.16,719.656 1428.5,731.5C 1430.9,739.936 1432.4,748.602 1433,757.5C 1433.79,767.822 1434.29,778.155 1434.5,788.5C 1434.17,788.5 1433.83,788.5 1433.5,788.5C 1417.8,772.802 1401.8,757.469 1385.5,742.5C 1384.29,728.111 1381.29,714.111 1376.5,700.5 Z"/></g>
<g><path style="opacity:0.995" fill="#3a4dba" d="M 1132.5,705.5 C 1159.16,730.831 1185.5,756.498 1211.5,782.5C 1202.1,787.634 1192.1,790.968 1181.5,792.5C 1158.17,769.5 1134.83,746.5 1111.5,723.5C 1116.66,715.342 1123.66,709.342 1132.5,705.5 Z"/></g>
<g><path style="opacity:1" fill="#10b7f9" d="M 1444.5,744.5 C 1446.57,763.128 1446.9,781.794 1445.5,800.5C 1442.73,819.56 1438.4,838.227 1432.5,856.5C 1431.12,860.934 1429.45,865.268 1427.5,869.5C 1426.7,865.665 1427.54,861.999 1430,858.5C 1431.16,853.543 1431.99,848.543 1432.5,843.5C 1433.31,842.571 1434.15,841.571 1435,840.5C 1445.07,803.223 1446.73,765.557 1440,727.5C 1434.84,711.001 1429.84,694.334 1425,677.5C 1420.67,668.833 1416.33,660.167 1412,651.5C 1408.5,648.234 1406.17,644.234 1405,639.5C 1400.64,634.134 1396.64,628.467 1393,622.5C 1380.28,607.439 1366.44,593.273 1351.5,580C 1347.11,577.477 1342.78,574.977 1338.5,572.5C 1336.5,571.5 1334.5,570.5 1332.5,569.5C 1329.56,567.768 1326.9,565.768 1324.5,563.5C 1319.88,559.518 1314.88,556.018 1309.5,553C 1306.47,550.985 1303.14,549.819 1299.5,549.5C 1296.5,546.504 1292.84,544.837 1288.5,544.5C 1282.01,542.788 1276.01,540.121 1270.5,536.5C 1263.03,532.684 1255.03,530.684 1246.5,530.5C 1246.5,530.167 1246.5,529.833 1246.5,529.5C 1243.79,527.892 1240.79,526.725 1237.5,526C 1204.25,519.57 1170.92,518.903 1137.5,524C 1096.71,531.415 1060.04,547.415 1027.5,572C 1023.25,576.085 1018.58,579.585 1013.5,582.5C 1008.18,588.822 1002.18,594.489 995.5,599.5C 992.443,608.394 986.943,615.394 979,620.5C 964.006,641.524 951.506,664.024 941.5,688C 937.741,701.01 934.741,714.177 932.5,727.5C 930.902,733.96 928.902,740.293 926.5,746.5C 937.27,658.612 980.937,592.779 1057.5,549C 1127.45,513.609 1199.45,508.942 1273.5,535C 1344.13,560.627 1395.29,607.46 1427,675.5C 1436.13,697.674 1441.96,720.674 1444.5,744.5 Z"/></g>
<g><path style="opacity:1" fill="#3f77e9" d="M 1356.5,674.5 C 1357.38,674.369 1358.04,674.702 1358.5,675.5C 1361.38,681.436 1364.38,687.27 1367.5,693C 1369.52,699.591 1372.18,705.757 1375.5,711.5C 1375.83,714.167 1376.17,716.833 1376.5,719.5C 1369.6,704.685 1362.93,689.685 1356.5,674.5 Z"/></g>
<g><path style="opacity:1" fill="#515ee2" d="M 1356.5,672.5 C 1357.5,672.414 1358.33,672.748 1359,673.5C 1366.14,685.421 1371.64,698.088 1375.5,711.5C 1372.18,705.757 1369.52,699.591 1367.5,693C 1364.38,687.27 1361.38,681.436 1358.5,675.5C 1358.04,674.702 1357.38,674.369 1356.5,674.5C 1356.5,673.833 1356.5,673.167 1356.5,672.5 Z"/></g>
<g><path style="opacity:1" fill="#3f77e9" d="M 1010.5,683.5 C 1009.22,689.967 1006.72,695.967 1003,701.5C 1000.1,710.06 996.93,718.394 993.5,726.5C 995.637,718.092 997.97,709.758 1000.5,701.5C 1003.82,695.532 1007.15,689.532 1010.5,683.5 Z"/></g>
<g><path style="opacity:1" fill="#2898f1" d="M 1097.5,599.5 C 1090.16,604.838 1082.49,609.671 1074.5,614C 1071.28,619.055 1066.94,622.888 1061.5,625.5C 1055.15,632.683 1048.32,639.35 1041,645.5C 1040.53,647.246 1039.86,648.913 1039,650.5C 1035.5,653.77 1032.17,657.104 1029,660.5C 1028.67,661.833 1028.33,663.167 1028,664.5C 1010.57,689.355 998.069,716.355 990.5,745.5C 990.123,738.913 991.123,732.58 993.5,726.5C 996.93,718.394 1000.1,710.06 1003,701.5C 1006.72,695.967 1009.22,689.967 1010.5,683.5C 1018.91,670.37 1028.08,657.703 1038,645.5C 1044.01,639.652 1049.85,633.652 1055.5,627.5C 1061.42,623.054 1067.09,618.387 1072.5,613.5C 1077.51,609.996 1082.51,606.496 1087.5,603C 1090.58,601.086 1093.91,599.919 1097.5,599.5 Z"/></g>
<g><path style="opacity:1" fill="#515ee3" d="M 1053.5,626.5 C 1045.93,635.21 1038.1,643.876 1030,652.5C 1022.48,662.215 1015.98,672.549 1010.5,683.5C 1007.15,689.532 1003.82,695.532 1000.5,701.5C 1002.49,694.519 1005.32,687.852 1009,681.5C 1014.54,672.412 1020.04,663.412 1025.5,654.5C 1029.03,651.796 1031.86,648.462 1034,644.5C 1040.07,637.926 1046.57,631.926 1053.5,626.5 Z"/></g>
<g><path style="opacity:0.984" fill="#2e3775" d="M 1241.5,743.5 C 1238.3,732.601 1232.63,723.101 1224.5,715C 1205,698.376 1182.67,692.21 1157.5,696.5C 1148.28,697.35 1139.94,700.35 1132.5,705.5C 1123.66,709.342 1116.66,715.342 1111.5,723.5C 1109.2,725.401 1107.37,727.734 1106,730.5C 1104.11,734.923 1102.28,739.256 1100.5,743.5C 1096.98,713.376 1108.98,691.876 1136.5,679C 1170.27,665.562 1200.77,670.728 1228,694.5C 1240.78,708.658 1245.28,724.991 1241.5,743.5 Z"/></g>
<g><path style="opacity:0.608" fill="#7431d7" d="M 1177.5,574.5 C 1234.23,569.687 1283.9,586.187 1326.5,624C 1349.07,645.642 1365.74,671.142 1376.5,700.5C 1375.36,700.092 1374.36,699.425 1373.5,698.5C 1370.53,692.616 1367.87,686.616 1365.5,680.5C 1360.25,670.76 1354.41,661.427 1348,652.5C 1342.03,647.163 1337.03,641.163 1333,634.5C 1301.63,603.733 1264.13,584.4 1220.5,576.5C 1218.03,575.683 1215.36,575.183 1212.5,575C 1200.84,574.5 1189.17,574.333 1177.5,574.5 Z"/></g>
<g><path style="opacity:1" fill="#5060e3" d="M 979.5,631.5 C 976.549,639.516 972.382,646.85 967,653.5C 961.16,664.346 955.994,675.513 951.5,687C 950.629,688.364 949.629,689.53 948.5,690.5C 955.463,668.9 965.797,649.234 979.5,631.5 Z"/></g>
<g><path style="opacity:1" fill="#3f76e9" d="M 1406.5,651.5 C 1408.53,653.163 1410.37,655.163 1412,657.5C 1413.36,661.721 1414.86,665.887 1416.5,670C 1420.02,674.214 1422.02,679.047 1422.5,684.5C 1416.79,673.717 1411.46,662.717 1406.5,651.5 Z"/></g>
<g><path style="opacity:1" fill="#515ee3" d="M 1313.5,622.5 C 1315.31,622.491 1316.98,622.991 1318.5,624C 1331.77,636.606 1343.61,650.439 1354,665.5C 1355.14,667.743 1355.97,670.076 1356.5,672.5C 1349.98,663.615 1343.48,654.615 1337,645.5C 1333.33,644.5 1331,642.167 1330,638.5C 1324.7,632.84 1319.2,627.507 1313.5,622.5 Z"/></g>
<g><path style="opacity:1" fill="#5e4ede" d="M 1130.5,585.5 C 1130.5,585.833 1130.5,586.167 1130.5,586.5C 1126.91,586.698 1123.57,587.698 1120.5,589.5C 1118.07,589.523 1115.74,590.023 1113.5,591C 1107.95,593.608 1102.61,596.441 1097.5,599.5C 1093.91,599.919 1090.58,601.086 1087.5,603C 1082.51,606.496 1077.51,609.996 1072.5,613.5C 1070.45,613.961 1068.45,614.628 1066.5,615.5C 1061.83,618.844 1057.5,622.51 1053.5,626.5C 1046.57,631.926 1040.07,637.926 1034,644.5C 1031.86,648.462 1029.03,651.796 1025.5,654.5C 1025.71,653.078 1026.21,651.745 1027,650.5C 1035.35,640.235 1044.52,630.735 1054.5,622C 1065.09,614.247 1076.09,607.081 1087.5,600.5C 1097.82,594.512 1108.82,589.846 1120.5,586.5C 1123.83,586.167 1127.17,585.833 1130.5,585.5 Z"/></g>
<g><path style="opacity:1" fill="#4274e8" d="M 1072.5,613.5 C 1067.09,618.387 1061.42,623.054 1055.5,627.5C 1049.85,633.652 1044.01,639.652 1038,645.5C 1028.08,657.703 1018.91,670.37 1010.5,683.5C 1015.98,672.549 1022.48,662.215 1030,652.5C 1038.1,643.876 1045.93,635.21 1053.5,626.5C 1057.5,622.51 1061.83,618.844 1066.5,615.5C 1068.45,614.628 1070.45,613.961 1072.5,613.5 Z"/></g>
<g><path style="opacity:1" fill="#505fe3" d="M 1015.5,591.5 C 1003.87,605.132 991.87,618.465 979.5,631.5C 985.714,622.44 992.548,613.773 1000,605.5C 1004.2,601.633 1008.03,597.467 1011.5,593C 1012.74,592.209 1014.08,591.709 1015.5,591.5 Z"/></g>
<g><path style="opacity:1" fill="#4a69e6" d="M 1368.5,600.5 C 1380.27,612.108 1390.77,624.775 1400,638.5C 1401.12,640.407 1401.96,642.407 1402.5,644.5C 1400.7,643.763 1399.03,642.763 1397.5,641.5C 1390.86,628.118 1382.03,616.451 1371,606.5C 1370.34,604.372 1369.51,602.372 1368.5,600.5 Z"/></g>
<g><path style="opacity:1" fill="#2a97f1" d="M 1120.5,589.5 C 1118.04,590.891 1115.37,592.058 1112.5,593C 1111.62,593.708 1110.95,594.542 1110.5,595.5C 1106.08,596.546 1101.74,597.879 1097.5,599.5C 1102.61,596.441 1107.95,593.608 1113.5,591C 1115.74,590.023 1118.07,589.523 1120.5,589.5 Z"/></g>
<g><path style="opacity:1" fill="#505fe3" d="M 1254.5,588.5 C 1272.85,594.339 1289.85,602.839 1305.5,614C 1308.53,616.64 1311.2,619.473 1313.5,622.5C 1301.41,613.611 1288.75,605.445 1275.5,598C 1268.94,595.203 1262.27,592.703 1255.5,590.5C 1255.17,589.833 1254.83,589.167 1254.5,588.5 Z"/></g>
<g><path style="opacity:1" fill="#3e78e9" d="M 1255.5,590.5 C 1262.27,592.703 1268.94,595.203 1275.5,598C 1288.75,605.445 1301.41,613.611 1313.5,622.5C 1319.2,627.507 1324.7,632.84 1330,638.5C 1331,642.167 1333.33,644.5 1337,645.5C 1343.48,654.615 1349.98,663.615 1356.5,672.5C 1356.5,673.167 1356.5,673.833 1356.5,674.5C 1352.86,670.687 1349.36,666.687 1346,662.5C 1343.93,658.697 1341.6,655.03 1339,651.5C 1330.42,641.753 1321.25,632.42 1311.5,623.5C 1304.82,619.491 1298.48,614.991 1292.5,610C 1280.65,602.41 1268.32,595.91 1255.5,590.5 Z"/></g>
<g><path style="opacity:1" fill="#4b68e5" d="M 1332.5,569.5 C 1334.5,570.5 1336.5,571.5 1338.5,572.5C 1339.03,573.721 1339.69,574.887 1340.5,576C 1346.01,578.825 1351.01,582.492 1355.5,587C 1359.44,590.429 1362.77,594.263 1365.5,598.5C 1359.5,593.157 1353.5,587.823 1347.5,582.5C 1344.03,579.39 1340.03,577.057 1335.5,575.5C 1334.12,573.711 1333.12,571.711 1332.5,569.5 Z"/></g>
<g><path style="opacity:1" fill="#4076e9" d="M 1173.5,578.5 C 1190.39,576.666 1207.23,577.666 1224,581.5C 1224.56,580.978 1225.23,580.645 1226,580.5C 1235.45,583.259 1244.95,585.926 1254.5,588.5C 1254.83,589.167 1255.17,589.833 1255.5,590.5C 1242.95,587.017 1230.29,583.85 1217.5,581C 1202.89,579.111 1188.23,578.278 1173.5,578.5 Z"/></g>
<g><path style="opacity:0.951" fill="#6a3fda" d="M 1177.5,574.5 C 1189.17,574.333 1200.84,574.5 1212.5,575C 1215.36,575.183 1218.03,575.683 1220.5,576.5C 1199.1,574.72 1177.77,575.22 1156.5,578C 1155.94,578.383 1155.61,578.883 1155.5,579.5C 1147.14,580.976 1138.81,582.976 1130.5,585.5C 1127.17,585.833 1123.83,586.167 1120.5,586.5C 1138.8,579.705 1157.8,575.705 1177.5,574.5 Z"/></g>
<g><path style="opacity:1" fill="#614dde" d="M 1225.5,527.5 C 1232.56,528.112 1239.56,529.112 1246.5,530.5C 1254.34,532.704 1262.34,534.704 1270.5,536.5C 1276.01,540.121 1282.01,542.788 1288.5,544.5C 1291.74,546.951 1295.41,548.618 1299.5,549.5C 1307.29,554.903 1315.63,559.57 1324.5,563.5C 1326.9,565.768 1329.56,567.768 1332.5,569.5C 1333.12,571.711 1334.12,573.711 1335.5,575.5C 1319.34,563.578 1302.01,553.411 1283.5,545C 1264.57,537.605 1245.23,532.105 1225.5,528.5C 1225.5,528.167 1225.5,527.833 1225.5,527.5 Z"/></g>
<g><path style="opacity:1" fill="#2c94f0" d="M 1299.5,549.5 C 1303.14,549.819 1306.47,550.985 1309.5,553C 1314.88,556.018 1319.88,559.518 1324.5,563.5C 1315.63,559.57 1307.29,554.903 1299.5,549.5 Z"/></g>
<g><path style="opacity:1" fill="#3e77e9" d="M 1116.5,532.5 C 1106.23,536.206 1095.89,540.039 1085.5,544C 1082.61,545.274 1079.94,546.774 1077.5,548.5C 1060.82,556.013 1045.15,565.346 1030.5,576.5C 1029.61,577.325 1029.28,578.325 1029.5,579.5C 1023.32,581.679 1018.65,585.679 1015.5,591.5C 1014.08,591.709 1012.74,592.209 1011.5,593C 1008.03,597.467 1004.2,601.633 1000,605.5C 992.548,613.773 985.714,622.44 979.5,631.5C 965.797,649.234 955.463,668.9 948.5,690.5C 947.5,692.5 946.5,694.5 945.5,696.5C 946.878,687.399 949.711,678.732 954,670.5C 982.75,611.083 1027.25,567.916 1087.5,541C 1096.98,537.45 1106.65,534.616 1116.5,532.5 Z"/></g>
<g><path style="opacity:1" fill="#328cee" d="M 1288.5,544.5 C 1292.84,544.837 1296.5,546.504 1299.5,549.5C 1295.41,548.618 1291.74,546.951 1288.5,544.5 Z"/></g>
<g><path style="opacity:1" fill="#2d93f0" d="M 1246.5,530.5 C 1255.03,530.684 1263.03,532.684 1270.5,536.5C 1262.34,534.704 1254.34,532.704 1246.5,530.5 Z"/></g>
<g><path style="opacity:1" fill="#4c65e4" d="M 1198.5,523.5 C 1176.29,523.591 1154.29,525.757 1132.5,530C 1113.81,535.09 1095.48,541.257 1077.5,548.5C 1079.94,546.774 1082.61,545.274 1085.5,544C 1095.89,540.039 1106.23,536.206 1116.5,532.5C 1120.85,530.405 1125.51,528.905 1130.5,528C 1148.7,524.514 1167.03,522.347 1185.5,521.5C 1189.97,522.114 1194.3,522.78 1198.5,523.5 Z"/></g>
<g><path style="opacity:1" fill="#5160e3" d="M 1200.5,523.5 C 1216.02,524.024 1231.36,526.024 1246.5,529.5C 1246.5,529.833 1246.5,530.167 1246.5,530.5C 1239.56,529.112 1232.56,528.112 1225.5,527.5C 1218.51,526.751 1211.51,526.084 1204.5,525.5C 1203.17,524.833 1201.83,524.167 1200.5,523.5 Z"/></g>
<g><path style="opacity:0.992" fill="#3f4abc" d="M 1111.5,723.5 C 1134.83,746.5 1158.17,769.5 1181.5,792.5C 1152.63,795.464 1128.8,786.13 1110,764.5C 1105.2,758.242 1102.04,751.242 1100.5,743.5C 1102.28,739.256 1104.11,734.923 1106,730.5C 1107.37,727.734 1109.2,725.401 1111.5,723.5 Z"/></g>
<g><path style="opacity:1" fill="#5759e0" d="M 1376.5,719.5 C 1382.1,727.482 1384.6,736.482 1384,746.5C 1385.11,747.712 1385.61,747.379 1385.5,745.5C 1386.83,756.167 1386.83,766.833 1385.5,777.5C 1384.45,757.88 1381.45,738.546 1376.5,719.5 Z"/></g>
<g><path style="opacity:1" fill="#5c4fde" d="M 1335.5,575.5 C 1340.03,577.057 1344.03,579.39 1347.5,582.5C 1353.5,587.823 1359.5,593.157 1365.5,598.5C 1366.5,599.167 1367.5,599.833 1368.5,600.5C 1369.51,602.372 1370.34,604.372 1371,606.5C 1382.03,616.451 1390.86,628.118 1397.5,641.5C 1399.03,642.763 1400.7,643.763 1402.5,644.5C 1404.67,646.34 1406,648.674 1406.5,651.5C 1411.46,662.717 1416.79,673.717 1422.5,684.5C 1423.4,685.209 1423.74,686.209 1423.5,687.5C 1429.34,705.279 1433.84,723.279 1437,741.5C 1437.5,748.158 1437.67,754.825 1437.5,761.5C 1438.29,779.178 1437.79,796.845 1436,814.5C 1433.02,827.1 1430.35,839.767 1428,852.5C 1427,854.5 1426,856.5 1425,858.5C 1424.07,863.612 1422.9,868.612 1421.5,873.5C 1418.93,878.536 1416.93,883.87 1415.5,889.5C 1411.53,895.813 1407.53,902.146 1403.5,908.5C 1404.17,906.5 1404.83,904.5 1405.5,902.5C 1408.68,897.48 1411.34,892.146 1413.5,886.5C 1418.63,874.11 1422.96,861.443 1426.5,848.5C 1431.27,828.792 1433.6,808.792 1433.5,788.5C 1433.83,788.5 1434.17,788.5 1434.5,788.5C 1434.33,792.182 1434.5,795.848 1435,799.5C 1437.04,773.886 1435.37,748.552 1430,723.5C 1427.46,712.983 1424.46,702.65 1421,692.5C 1414.32,677.438 1407.48,662.438 1400.5,647.5C 1399.32,647.719 1398.32,647.386 1397.5,646.5C 1395.93,642.355 1394.09,638.355 1392,634.5C 1385.52,625.687 1378.68,617.187 1371.5,609C 1370.91,608.536 1370.24,608.369 1369.5,608.5C 1358.8,596.801 1347.47,585.801 1335.5,575.5 Z"/></g>
<g><path style="opacity:0.997" fill="#2c56b4" d="M 1300.5,727.5 C 1342.27,767.101 1383.6,807.267 1424.5,848C 1425.09,848.464 1425.76,848.631 1426.5,848.5C 1422.96,861.443 1418.63,874.11 1413.5,886.5C 1404.72,878.896 1396.06,871.062 1387.5,863C 1355.97,832.299 1324.63,801.466 1293.5,770.5C 1298.9,756.699 1301.23,742.365 1300.5,727.5 Z"/></g>
<g><path style="opacity:1" fill="#4174e8" d="M 1423.5,687.5 C 1424.79,688.058 1425.62,689.058 1426,690.5C 1440.23,731.798 1444.23,774.132 1438,817.5C 1437.61,820.104 1436.78,822.438 1435.5,824.5C 1437.81,808.106 1439.15,791.606 1439.5,775C 1439.69,770.228 1439.03,765.728 1437.5,761.5C 1437.67,754.825 1437.5,748.158 1437,741.5C 1433.84,723.279 1429.34,705.279 1423.5,687.5 Z"/></g>
<g><path style="opacity:0.979" fill="#235bb0" d="M 1444.5,744.5 C 1491.04,784.21 1523.04,833.543 1540.5,892.5C 1508.83,861.833 1477.17,831.167 1445.5,800.5C 1446.9,781.794 1446.57,763.128 1444.5,744.5 Z"/></g>
<g><path style="opacity:1" fill="#3e78e9" d="M 945.5,696.5 C 933.217,735.023 929.717,774.356 935,814.5C 937.863,828.991 941.03,843.324 944.5,857.5C 926.669,806.274 925.836,754.607 942,702.5C 942.424,699.975 943.59,697.975 945.5,696.5 Z"/></g>
<g><path style="opacity:0.981" fill="#4e41c2" d="M 1100.5,853.5 C 1073.14,826.802 1045.47,800.468 1017.5,774.5C 1027.16,762.67 1038,752.003 1050,742.5C 1055.29,774.782 1071.79,799.449 1099.5,816.5C 1100.5,828.815 1100.83,841.149 1100.5,853.5 Z"/></g>
<g><path style="opacity:1" fill="#18abf6" d="M 932.5,727.5 C 928.785,753.028 927.618,778.695 929,804.5C 931.681,818.229 934.848,831.895 938.5,845.5C 934.946,839.953 932.279,833.953 930.5,827.5C 930.5,827.167 930.5,826.833 930.5,826.5C 930.938,826.565 931.272,826.399 931.5,826C 926.075,799.808 924.409,773.308 926.5,746.5C 928.902,740.293 930.902,733.96 932.5,727.5 Z"/></g>
<g><path style="opacity:0.997" fill="#3054b6" d="M 1293.5,770.5 C 1324.63,801.466 1355.97,832.299 1387.5,863C 1396.06,871.062 1404.72,878.896 1413.5,886.5C 1411.34,892.146 1408.68,897.48 1405.5,902.5C 1365.47,863.136 1325.14,824.136 1284.5,785.5C 1287.77,780.63 1290.77,775.63 1293.5,770.5 Z"/></g>
<g><path style="opacity:0.991" fill="#543dc4" d="M 1017.5,774.5 C 1045.47,800.468 1073.14,826.802 1100.5,853.5C 1100.67,862.839 1100.5,872.173 1100,881.5C 1099.39,883.066 1098.56,884.4 1097.5,885.5C 1065.53,854.862 1033.86,823.862 1002.5,792.5C 1006.78,785.891 1011.78,779.891 1017.5,774.5 Z"/></g>
<g><path style="opacity:1" fill="#5856e0" d="M 948.5,690.5 C 945.039,705.451 941.539,720.451 938,735.5C 936.282,748.78 935.449,762.113 935.5,775.5C 936.103,799.861 939.27,823.861 945,847.5C 946.701,853.45 948.868,859.117 951.5,864.5C 953.208,867.95 954.541,871.617 955.5,875.5C 957.191,881.533 958.858,887.533 960.5,893.5C 959.199,892.36 958.032,891.027 957,889.5C 954.147,878.158 949.981,867.492 944.5,857.5C 941.03,843.324 937.863,828.991 935,814.5C 929.717,774.356 933.217,735.023 945.5,696.5C 946.5,694.5 947.5,692.5 948.5,690.5 Z"/></g>
<g><path style="opacity:0.997" fill="#3352b7" d="M 1284.5,785.5 C 1325.14,824.136 1365.47,863.136 1405.5,902.5C 1404.83,904.5 1404.17,906.5 1403.5,908.5C 1402.32,911.153 1401.49,913.819 1401,916.5C 1404,913.151 1406.5,909.484 1408.5,905.5C 1454.2,950.53 1500.2,995.197 1546.5,1039.5C 1544.92,1048.81 1542.59,1057.81 1539.5,1066.5C 1449.47,978.806 1359.47,891.139 1269.5,803.5C 1274.53,797.475 1279.53,791.475 1284.5,785.5 Z"/></g>
<g><path style="opacity:0.995" fill="#2859b2" d="M 1445.5,800.5 C 1477.17,831.167 1508.83,861.833 1540.5,892.5C 1548.04,918.259 1552.04,944.592 1552.5,971.5C 1512.73,933.9 1473.4,895.733 1434.5,857C 1433.91,856.536 1433.24,856.369 1432.5,856.5C 1438.4,838.227 1442.73,819.56 1445.5,800.5 Z"/></g>
<g><path style="opacity:0.993" fill="#5b3ac7" d="M 1002.5,792.5 C 1033.86,823.862 1065.53,854.862 1097.5,885.5C 1094.44,893.288 1091.11,900.955 1087.5,908.5C 1053.87,877.199 1020.87,845.199 988.5,812.5C 992.687,805.446 997.353,798.779 1002.5,792.5 Z"/></g>
<g><path style="opacity:0.997" fill="#3650b8" d="M 1269.5,803.5 C 1359.47,891.139 1449.47,978.806 1539.5,1066.5C 1537.27,1075.53 1534.27,1084.2 1530.5,1092.5C 1436.83,1000.83 1342.83,909.498 1248.5,818.5C 1255.77,813.895 1262.77,808.895 1269.5,803.5 Z"/></g>
<g><path style="opacity:0.992" fill="#6036c9" d="M 988.5,812.5 C 1020.87,845.199 1053.87,877.199 1087.5,908.5C 1084.34,915.328 1081.01,921.995 1077.5,928.5C 1044.8,895.468 1011.47,863.134 977.5,831.5C 980.412,824.668 984.079,818.334 988.5,812.5 Z"/></g>
<g><path style="opacity:0.776" fill="#09bffc" d="M 926.5,746.5 C 924.409,773.308 926.075,799.808 931.5,826C 931.272,826.399 930.938,826.565 930.5,826.5C 924.515,800.056 923.181,773.389 926.5,746.5 Z"/></g>
<g><path style="opacity:0.996" fill="#3b4dba" d="M 1248.5,818.5 C 1342.83,909.498 1436.83,1000.83 1530.5,1092.5C 1527.32,1101.86 1523.32,1110.86 1518.5,1119.5C 1426.47,1029.47 1334.14,939.803 1241.5,850.5C 1241.17,840.81 1241.5,831.144 1242.5,821.5C 1244.53,820.487 1246.53,819.487 1248.5,818.5 Z"/></g>
<g><path style="opacity:0.992" fill="#6633cb" d="M 977.5,831.5 C 1011.47,863.134 1044.8,895.468 1077.5,928.5C 1075.11,934.953 1072.44,941.286 1069.5,947.5C 1035.2,915.198 1001.2,882.531 967.5,849.5C 970.342,843.143 973.675,837.143 977.5,831.5 Z"/></g>
<g><path style="opacity:1" fill="#0eb9fa" d="M 930.5,827.5 C 932.279,833.953 934.946,839.953 938.5,845.5C 940.805,859.758 945.472,873.092 952.5,885.5C 952.926,887.139 952.926,888.472 952.5,889.5C 942.211,869.971 934.878,849.305 930.5,827.5 Z"/></g>
<g><path style="opacity:0.992" fill="#6a30cd" d="M 967.5,849.5 C 1001.2,882.531 1035.2,915.198 1069.5,947.5C 1067.47,951.565 1065.47,955.565 1063.5,959.5C 1029.86,926.861 996.193,894.194 962.5,861.5C 964.164,857.504 965.831,853.504 967.5,849.5 Z"/></g>
<g><path style="opacity:1" fill="#4f63e4" d="M 1437.5,761.5 C 1439.03,765.728 1439.69,770.228 1439.5,775C 1439.15,791.606 1437.81,808.106 1435.5,824.5C 1433.91,830.699 1432.91,837.032 1432.5,843.5C 1429.41,853.693 1425.74,863.693 1421.5,873.5C 1422.9,868.612 1424.07,863.612 1425,858.5C 1426,856.5 1427,854.5 1428,852.5C 1430.35,839.767 1433.02,827.1 1436,814.5C 1437.79,796.845 1438.29,779.178 1437.5,761.5 Z"/></g>
<g><path style="opacity:1" fill="#2897f1" d="M 1432.5,843.5 C 1431.99,848.543 1431.16,853.543 1430,858.5C 1427.54,861.999 1426.7,865.665 1427.5,869.5C 1427.67,870.492 1427.34,871.158 1426.5,871.5C 1426.19,870.262 1425.69,870.262 1425,871.5C 1422.29,877.865 1419.12,883.865 1415.5,889.5C 1416.93,883.87 1418.93,878.536 1421.5,873.5C 1425.74,863.693 1429.41,853.693 1432.5,843.5 Z"/></g>
<g><path style="opacity:0.993" fill="#6e2ecf" d="M 962.5,861.5 C 996.193,894.194 1029.86,926.861 1063.5,959.5C 1062.1,963.29 1060.44,966.957 1058.5,970.5C 1024.53,938.866 991.198,906.532 958.5,873.5C 959.27,869.297 960.604,865.297 962.5,861.5 Z"/></g>
<g><path style="opacity:0.996" fill="#3f4bbc" d="M 1241.5,850.5 C 1334.14,939.803 1426.47,1029.47 1518.5,1119.5C 1516.32,1124.53 1513.66,1129.19 1510.5,1133.5C 1420.83,1046.83 1331.17,960.167 1241.5,873.5C 1241.5,865.833 1241.5,858.167 1241.5,850.5 Z"/></g>
<g><path style="opacity:0.997" fill="#2c56b4" d="M 1432.5,856.5 C 1433.24,856.369 1433.91,856.536 1434.5,857C 1473.4,895.733 1512.73,933.9 1552.5,971.5C 1553.02,987.748 1552.02,1003.75 1549.5,1019.5C 1507.4,979.566 1465.73,939.066 1424.5,898C 1421.93,895.92 1419.27,894.087 1416.5,892.5C 1420.1,885.626 1423.44,878.626 1426.5,871.5C 1427.34,871.158 1427.67,870.492 1427.5,869.5C 1429.45,865.268 1431.12,860.934 1432.5,856.5 Z"/></g>
<g><path style="opacity:0.995" fill="#4249bd" d="M 1241.5,873.5 C 1331.17,960.167 1420.83,1046.83 1510.5,1133.5C 1507.34,1139.83 1503.67,1145.83 1499.5,1151.5C 1420.83,1075.17 1342.17,998.833 1263.5,922.5C 1256.07,907.982 1248.91,893.316 1242,878.5C 1241.51,876.866 1241.34,875.199 1241.5,873.5 Z"/></g>
<g><path style="opacity:1" fill="#17aef4" d="M 1426.5,871.5 C 1423.44,878.626 1420.1,885.626 1416.5,892.5C 1414.08,897.001 1411.42,901.334 1408.5,905.5C 1406.5,909.484 1404,913.151 1401,916.5C 1401.49,913.819 1402.32,911.153 1403.5,908.5C 1407.53,902.146 1411.53,895.813 1415.5,889.5C 1419.12,883.865 1422.29,877.865 1425,871.5C 1425.69,870.262 1426.19,870.262 1426.5,871.5 Z"/></g>
<g><path style="opacity:0.995" fill="#732cd1" d="M 958.5,873.5 C 991.198,906.532 1024.53,938.866 1058.5,970.5C 1055.5,977.171 1052.5,983.838 1049.5,990.5C 1027.2,969.37 1005.04,948.037 983,926.5C 982.517,927.448 982.351,928.448 982.5,929.5C 978.079,925.776 975.079,921.109 973.5,915.5C 970.011,908.522 966.511,901.522 963,894.5C 962.329,893.748 961.496,893.414 960.5,893.5C 958.858,887.533 957.191,881.533 955.5,875.5C 956.778,875.218 957.778,874.551 958.5,873.5 Z"/></g>
<g><path style="opacity:0.998" fill="#3054b6" d="M 1416.5,892.5 C 1419.27,894.087 1421.93,895.92 1424.5,898C 1465.73,939.066 1507.4,979.566 1549.5,1019.5C 1549.15,1026.28 1548.15,1032.94 1546.5,1039.5C 1500.2,995.197 1454.2,950.53 1408.5,905.5C 1411.42,901.334 1414.08,897.001 1416.5,892.5 Z"/></g>
<g><path style="opacity:1" fill="#565be2" d="M 960.5,893.5 C 961.496,893.414 962.329,893.748 963,894.5C 966.511,901.522 970.011,908.522 973.5,915.5C 969.592,910.687 965.925,905.687 962.5,900.5C 962.6,897.892 961.933,895.558 960.5,893.5 Z"/></g>
<g><path style="opacity:0.985" fill="#7b26d4" d="M 952.5,890.5 C 963.645,910.494 976.979,928.994 992.5,946C 993.167,946.667 993.833,946.667 994.5,946C 990.601,940.344 986.601,934.844 982.5,929.5C 982.351,928.448 982.517,927.448 983,926.5C 1005.04,948.037 1027.2,969.37 1049.5,990.5C 1027.17,1038.51 1004.83,1086.51 982.5,1134.5C 948.454,1076.78 934.62,1014.45 941,947.5C 942.983,928.086 946.816,909.086 952.5,890.5 Z"/></g>
<g><path style="opacity:0.993" fill="#4646bf" d="M 1263.5,922.5 C 1342.17,998.833 1420.83,1075.17 1499.5,1151.5C 1494.21,1159.75 1488.21,1167.42 1481.5,1174.5C 1421.8,1115.13 1361.47,1056.47 1300.5,998.5C 1287.66,973.481 1275.32,948.148 1263.5,922.5 Z"/></g>
<g><path style="opacity:1" fill="#25a2f4" d="M 952.5,885.5 C 955.869,890.524 959.202,895.524 962.5,900.5C 965.925,905.687 969.592,910.687 973.5,915.5C 975.079,921.109 978.079,925.776 982.5,929.5C 986.601,934.844 990.601,940.344 994.5,946C 993.833,946.667 993.167,946.667 992.5,946C 976.979,928.994 963.645,910.494 952.5,890.5C 952.5,890.167 952.5,889.833 952.5,889.5C 952.926,888.472 952.926,887.139 952.5,885.5 Z"/></g>
<g><path style="opacity:0.987" fill="#543dc4" d="M 1239.5,1011.5 C 1238.56,1014.4 1236.89,1016.73 1234.5,1018.5C 1207.07,991.612 1179.4,964.945 1151.5,938.5C 1155.32,931.527 1159.15,924.527 1163,917.5C 1168.34,911.368 1174.84,909.868 1182.5,913C 1184.71,914.873 1186.54,917.04 1188,919.5C 1205.44,950.06 1222.61,980.726 1239.5,1011.5 Z"/></g>
<g><path style="opacity:0.995" fill="#5a3ac7" d="M 1151.5,938.5 C 1179.4,964.945 1207.07,991.612 1234.5,1018.5C 1233.03,1020.41 1231.03,1021.58 1228.5,1022C 1220.17,1022.5 1211.84,1022.67 1203.5,1022.5C 1182.5,1001.5 1161.16,980.831 1139.5,960.5C 1143.49,953.194 1147.49,945.86 1151.5,938.5 Z"/></g>
<g><path style="opacity:0.993" fill="#6036c9" d="M 1139.5,960.5 C 1161.16,980.831 1182.5,1001.5 1203.5,1022.5C 1193.83,1022.5 1184.17,1022.5 1174.5,1022.5C 1159.53,1007.86 1144.53,993.194 1129.5,978.5C 1132.33,972.17 1135.66,966.17 1139.5,960.5 Z"/></g>
<g><path style="opacity:0.99" fill="#6732cc" d="M 1129.5,978.5 C 1144.53,993.194 1159.53,1007.86 1174.5,1022.5C 1156.5,1022.67 1138.5,1022.5 1120.5,1022C 1116.31,1019.64 1112.98,1016.47 1110.5,1012.5C 1116.33,1000.84 1122.66,989.502 1129.5,978.5 Z"/></g>
<g><path style="opacity:0.991" fill="#4b43c1" d="M 1300.5,998.5 C 1361.47,1056.47 1421.8,1115.13 1481.5,1174.5C 1479.55,1178.12 1476.88,1181.12 1473.5,1183.5C 1421.16,1131.83 1368.5,1080.5 1315.5,1029.5C 1309.72,1019.6 1304.72,1009.27 1300.5,998.5 Z"/></g>
<g><path style="opacity:1" fill="#2f3777" d="M 1239.5,1011.5 C 1242.49,1020.38 1240.15,1027.54 1232.5,1033C 1213.4,1034.15 1194.23,1034.65 1175,1034.5C 1156.83,1034.33 1138.67,1034.17 1120.5,1034C 1111.1,1029.63 1107.77,1022.46 1110.5,1012.5C 1112.98,1016.47 1116.31,1019.64 1120.5,1022C 1138.5,1022.5 1156.5,1022.67 1174.5,1022.5C 1184.17,1022.5 1193.83,1022.5 1203.5,1022.5C 1211.84,1022.67 1220.17,1022.5 1228.5,1022C 1231.03,1021.58 1233.03,1020.41 1234.5,1018.5C 1236.89,1016.73 1238.56,1014.4 1239.5,1011.5 Z"/></g>
<g><path style="opacity:0.99" fill="#4f41c2" d="M 1315.5,1029.5 C 1368.5,1080.5 1421.16,1131.83 1473.5,1183.5C 1468.87,1189.8 1463.54,1195.46 1457.5,1200.5C 1419.86,1164.86 1382.53,1128.86 1345.5,1092.5C 1335.13,1071.75 1325.13,1050.75 1315.5,1029.5 Z"/></g>
<g><path style="opacity:0.991" fill="#7b26d4" d="M 1143.5,1081.5 C 1168.83,1106.5 1194.17,1131.5 1219.5,1156.5C 1168.83,1156.67 1118.17,1156.5 1067.5,1156C 1059.98,1153.65 1054.98,1148.82 1052.5,1141.5C 1060.1,1124.29 1068.27,1107.29 1077,1090.5C 1080.86,1085.96 1085.7,1083.13 1091.5,1082C 1108.83,1081.5 1126.16,1081.33 1143.5,1081.5 Z"/></g>
<g><path style="opacity:0.99" fill="#722bd0" d="M 1143.5,1081.5 C 1153.17,1081.5 1162.83,1081.5 1172.5,1081.5C 1197.83,1106.5 1223.17,1131.5 1248.5,1156.5C 1238.83,1156.5 1229.17,1156.5 1219.5,1156.5C 1194.17,1131.5 1168.83,1106.5 1143.5,1081.5 Z"/></g>
<g><path style="opacity:0.99" fill="#6b2fce" d="M 1172.5,1081.5 C 1184.17,1081.5 1195.83,1081.5 1207.5,1081.5C 1232.5,1106.17 1257.5,1130.83 1282.5,1155.5C 1271.35,1156.49 1260.01,1156.83 1248.5,1156.5C 1223.17,1131.5 1197.83,1106.5 1172.5,1081.5 Z"/></g>
<g><path style="opacity:0.989" fill="#6434cb" d="M 1207.5,1081.5 C 1224.5,1081.33 1241.5,1081.5 1258.5,1082C 1265.31,1083.15 1270.47,1086.65 1274,1092.5C 1282.39,1108.61 1290.22,1124.95 1297.5,1141.5C 1295.1,1148.9 1290.1,1153.56 1282.5,1155.5C 1257.5,1130.83 1232.5,1106.17 1207.5,1081.5 Z"/></g>
<g><path style="opacity:0.982" fill="#543dc4" d="M 1345.5,1092.5 C 1382.53,1128.86 1419.86,1164.86 1457.5,1200.5C 1451.49,1206.51 1445.16,1212.18 1438.5,1217.5C 1418.47,1196.47 1397.8,1176.14 1376.5,1156.5C 1365.66,1135.48 1355.32,1114.15 1345.5,1092.5 Z"/></g>
<g><path style="opacity:1" fill="#303677" d="M 1052.5,1141.5 C 1054.98,1148.82 1059.98,1153.65 1067.5,1156C 1118.17,1156.5 1168.83,1156.67 1219.5,1156.5C 1229.17,1156.5 1238.83,1156.5 1248.5,1156.5C 1260.01,1156.83 1271.35,1156.49 1282.5,1155.5C 1290.1,1153.56 1295.1,1148.9 1297.5,1141.5C 1300.18,1154.64 1295.18,1163.47 1282.5,1168C 1210.83,1168.67 1139.17,1168.67 1067.5,1168C 1054.77,1163.36 1049.77,1154.52 1052.5,1141.5 Z"/></g>
<g><path style="opacity:0.972" fill="#593ac7" d="M 1376.5,1156.5 C 1397.8,1176.14 1418.47,1196.47 1438.5,1217.5C 1431.66,1222.84 1424.66,1228 1417.5,1233C 1416.24,1233.98 1414.91,1234.32 1413.5,1234C 1401.03,1208.22 1388.69,1182.39 1376.5,1156.5 Z"/></g>
<g><path style="opacity:0.977" fill="#4750ba" d="M 785.5,1345.5 C 800.5,1345.5 815.5,1345.5 830.5,1345.5C 859.833,1421.17 889.167,1496.83 918.5,1572.5C 905.829,1572.67 893.162,1572.5 880.5,1572C 876,1570.17 872.833,1567 871,1562.5C 865.201,1547.24 859.701,1531.91 854.5,1516.5C 823.493,1516.17 792.493,1516.5 761.5,1517.5C 755.667,1533.17 749.833,1548.83 744,1564.5C 742.01,1568.49 738.843,1570.99 734.5,1572C 721.833,1572.67 709.167,1572.67 696.5,1572C 726.463,1496.61 756.129,1421.11 785.5,1345.5 Z M 807.5,1388.5 C 819.144,1421.09 830.81,1453.76 842.5,1486.5C 819.164,1486.67 795.831,1486.5 772.5,1486C 785.059,1453.82 796.725,1421.32 807.5,1388.5 Z"/></g>
<g><path style="opacity:0.986" fill="#4750ba" d="M 879.5,1345.5 C 939.5,1345.5 999.5,1345.5 1059.5,1345.5C 1059.5,1357.17 1059.5,1368.83 1059.5,1380.5C 1036.83,1380.5 1014.17,1380.5 991.5,1380.5C 991.5,1444.5 991.5,1508.5 991.5,1572.5C 977.167,1572.5 962.833,1572.5 948.5,1572.5C 948.5,1508.5 948.5,1444.5 948.5,1380.5C 925.5,1380.5 902.5,1380.5 879.5,1380.5C 879.5,1368.83 879.5,1357.17 879.5,1345.5 Z"/></g>
<g><path style="opacity:0.977" fill="#4750ba" d="M 1109.5,1345.5 C 1124.5,1345.5 1139.5,1345.5 1154.5,1345.5C 1183.83,1421.17 1213.17,1496.83 1242.5,1572.5C 1229.83,1572.67 1217.16,1572.5 1204.5,1572C 1200,1570.17 1196.83,1567 1195,1562.5C 1189.2,1547.24 1183.7,1531.91 1178.5,1516.5C 1147.49,1516.17 1116.49,1516.5 1085.5,1517.5C 1079.67,1533.17 1073.83,1548.83 1068,1564.5C 1066.01,1568.49 1062.84,1570.99 1058.5,1572C 1045.83,1572.67 1033.17,1572.67 1020.5,1572C 1050.46,1496.61 1080.13,1421.11 1109.5,1345.5 Z M 1131.5,1388.5 C 1143.14,1421.09 1154.81,1453.76 1166.5,1486.5C 1143.16,1486.67 1119.83,1486.5 1096.5,1486C 1109.06,1453.82 1120.73,1421.32 1131.5,1388.5 Z"/></g>
<g><path style="opacity:0.978" fill="#4750ba" d="M 512.5,1346.5 C 547.502,1346.33 582.502,1346.5 617.5,1347C 680.404,1358.07 712.737,1395.57 714.5,1459.5C 712.737,1523.43 680.404,1560.93 617.5,1572C 582.502,1572.5 547.502,1572.67 512.5,1572.5C 512.5,1497.17 512.5,1421.83 512.5,1346.5 Z M 556.5,1379.5 C 575.191,1379.2 593.858,1379.7 612.5,1381C 644.814,1387.32 663.647,1406.82 669,1439.5C 673.76,1465.53 669.426,1489.87 656,1512.5C 644.989,1526.82 630.489,1535.32 612.5,1538C 593.858,1539.3 575.191,1539.8 556.5,1539.5C 556.5,1486.17 556.5,1432.83 556.5,1379.5 Z"/></g>
<g><path style="opacity:0.937" fill="#2e8df0" d="M 1840.5,1354.5 C 1860.11,1351.79 1878.44,1355.29 1895.5,1365C 1900.6,1367.93 1904.93,1371.77 1908.5,1376.5C 1907.33,1378.83 1906.17,1381.17 1905,1383.5C 1902.67,1386.79 1899.83,1387.29 1896.5,1385C 1876.67,1367.62 1854.34,1363.62 1829.5,1373C 1811.4,1383.37 1804.23,1398.87 1808,1419.5C 1813.6,1432.43 1823.1,1441.27 1836.5,1446C 1855.3,1451.82 1873.64,1458.82 1891.5,1467C 1912.06,1481.31 1919.22,1500.81 1913,1525.5C 1905.64,1553.19 1887.81,1569.35 1859.5,1574C 1836.22,1577.68 1814.89,1573.02 1795.5,1560C 1790.15,1555.99 1785.49,1551.32 1781.5,1546C 1782.85,1541.44 1785.68,1538.28 1790,1536.5C 1796.77,1540.93 1803.27,1545.77 1809.5,1551C 1828.3,1561.27 1847.96,1563.27 1868.5,1557C 1888.36,1548.47 1898.7,1533.3 1899.5,1511.5C 1898.29,1494.25 1889.62,1482.42 1873.5,1476C 1858.28,1470.36 1842.94,1465.03 1827.5,1460C 1799.6,1449.38 1787.77,1429.22 1792,1399.5C 1798.72,1374.28 1814.89,1359.28 1840.5,1354.5 Z"/></g>
<g><path style="opacity:0.967" fill="#2e8df0" d="M 1300.5,1357.5 C 1325.17,1357.33 1349.84,1357.5 1374.5,1358C 1415.41,1363.23 1434.91,1386.4 1433,1427.5C 1430.02,1453.14 1416.52,1470.64 1392.5,1480C 1385.99,1482.29 1379.32,1483.96 1372.5,1485C 1353.84,1485.5 1335.17,1485.67 1316.5,1485.5C 1316.5,1514.5 1316.5,1543.5 1316.5,1572.5C 1311.17,1572.5 1305.83,1572.5 1300.5,1572.5C 1300.5,1500.83 1300.5,1429.17 1300.5,1357.5 Z M 1316.5,1369.5 C 1334.85,1369.27 1353.19,1369.77 1371.5,1371C 1400.7,1374.7 1415.7,1391.2 1416.5,1420.5C 1414.35,1449.82 1398.68,1466.99 1369.5,1472C 1351.86,1473.28 1334.19,1473.78 1316.5,1473.5C 1316.5,1438.83 1316.5,1404.17 1316.5,1369.5 Z"/></g>
<g><path style="opacity:0.946" fill="#2e8df0" d="M 1457.5,1357.5 C 1463.17,1357.5 1468.83,1357.5 1474.5,1357.5C 1474.5,1424.83 1474.5,1492.17 1474.5,1559.5C 1508.5,1559.5 1542.5,1559.5 1576.5,1559.5C 1576.5,1563.83 1576.5,1568.17 1576.5,1572.5C 1536.83,1572.5 1497.17,1572.5 1457.5,1572.5C 1457.5,1500.83 1457.5,1429.17 1457.5,1357.5 Z"/></g>
<g><path style="opacity:0.953" fill="#2e8df0" d="M 1592.5,1357.5 C 1598.17,1357.5 1603.83,1357.5 1609.5,1357.5C 1609.33,1404.5 1609.5,1451.5 1610,1498.5C 1612.83,1529.04 1628.66,1549.2 1657.5,1559C 1686.22,1565.32 1709.72,1557.15 1728,1534.5C 1734.79,1523.46 1738.79,1511.46 1740,1498.5C 1740.5,1451.5 1740.67,1404.5 1740.5,1357.5C 1745.83,1357.5 1751.17,1357.5 1756.5,1357.5C 1756.67,1406.5 1756.5,1455.5 1756,1504.5C 1748.27,1550.24 1721.27,1573.9 1675,1575.5C 1632.35,1574.84 1605.68,1553.84 1595,1512.5C 1594.03,1506.87 1593.37,1501.2 1593,1495.5C 1592.5,1449.5 1592.33,1403.5 1592.5,1357.5 Z"/></g>
<g><path style="opacity:0.92" fill="#4750ba" d="M 1089.5,1623.5 C 1114.77,1620.46 1128.77,1631.46 1131.5,1656.5C 1129.6,1676.9 1118.43,1687.57 1098,1688.5C 1077.34,1687.51 1066.18,1676.68 1064.5,1656C 1065.2,1639.15 1073.53,1628.32 1089.5,1623.5 Z M 1094.5,1632.5 C 1110.41,1632.25 1118.75,1640.08 1119.5,1656C 1118.07,1674.21 1108.41,1681.55 1090.5,1678C 1081.06,1673.81 1076.39,1666.47 1076.5,1656C 1076.41,1643.3 1082.41,1635.47 1094.5,1632.5 Z"/></g>
<g><path style="opacity:0.874" fill="#4750ba" d="M 1383.5,1623.5 C 1390.83,1622.33 1393.99,1625.33 1393,1632.5C 1389.34,1636.12 1385.34,1636.45 1381,1633.5C 1378.71,1629.32 1379.55,1625.98 1383.5,1623.5 Z"/></g>
<g><path style="opacity:0.905" fill="#4750ba" d="M 1442.5,1623.5 C 1446.17,1623.5 1449.83,1623.5 1453.5,1623.5C 1453.5,1644.83 1453.5,1666.17 1453.5,1687.5C 1450.48,1687.66 1447.48,1687.5 1444.5,1687C 1443.93,1685.79 1443.26,1684.63 1442.5,1683.5C 1436.63,1688.17 1429.97,1689.67 1422.5,1688C 1415.89,1684.96 1412.05,1679.79 1411,1672.5C 1409.24,1662.38 1411.74,1653.55 1418.5,1646C 1426.28,1641.58 1434.12,1641.41 1442,1645.5C 1442.5,1638.17 1442.67,1630.84 1442.5,1623.5 Z M 1431.5,1649.5 C 1441.85,1649.71 1445.52,1654.88 1442.5,1665C 1442.33,1668.83 1442.17,1672.67 1442,1676.5C 1429.22,1685.01 1422.38,1681.51 1421.5,1666C 1420.69,1657.76 1424.02,1652.26 1431.5,1649.5 Z"/></g>
<g><path style="opacity:0.905" fill="#4750ba" d="M 1504.5,1623.5 C 1508.17,1623.5 1511.83,1623.5 1515.5,1623.5C 1515.5,1644.83 1515.5,1666.17 1515.5,1687.5C 1512.48,1687.66 1509.48,1687.5 1506.5,1687C 1505.93,1685.79 1505.26,1684.63 1504.5,1683.5C 1498.63,1688.17 1491.97,1689.67 1484.5,1688C 1477.89,1684.96 1474.05,1679.79 1473,1672.5C 1471.24,1662.38 1473.74,1653.55 1480.5,1646C 1488.28,1641.58 1496.12,1641.41 1504,1645.5C 1504.5,1638.17 1504.67,1630.84 1504.5,1623.5 Z M 1493.5,1649.5 C 1503.85,1649.71 1507.52,1654.88 1504.5,1665C 1504.33,1668.83 1504.17,1672.67 1504,1676.5C 1491.22,1685.01 1484.38,1681.51 1483.5,1666C 1482.69,1657.76 1486.02,1652.26 1493.5,1649.5 Z"/></g>
<g><path style="opacity:0.973" fill="#4750ba" d="M 1536.5,1623.5 C 1539.83,1623.5 1543.17,1623.5 1546.5,1623.5C 1546.5,1644.83 1546.5,1666.17 1546.5,1687.5C 1543.17,1687.5 1539.83,1687.5 1536.5,1687.5C 1536.5,1666.17 1536.5,1644.83 1536.5,1623.5 Z"/></g>
<g><path style="opacity:0.894" fill="#4750ba" d="M 514.5,1624.5 C 518.5,1624.5 522.5,1624.5 526.5,1624.5C 526.5,1645.5 526.5,1666.5 526.5,1687.5C 522.5,1687.5 518.5,1687.5 514.5,1687.5C 514.5,1666.5 514.5,1645.5 514.5,1624.5 Z"/></g>
<g><path style="opacity:0.894" fill="#4750ba" d="M 951.5,1624.5 C 955.5,1624.5 959.5,1624.5 963.5,1624.5C 963.5,1645.5 963.5,1666.5 963.5,1687.5C 959.5,1687.5 955.5,1687.5 951.5,1687.5C 951.5,1666.5 951.5,1645.5 951.5,1624.5 Z"/></g>
<g><path style="opacity:0.902" fill="#4750ba" d="M 1287.5,1624.5 C 1291.77,1624.2 1295.93,1624.54 1300,1625.5C 1307.93,1639.04 1315.6,1652.7 1323,1666.5C 1330.92,1653 1338.59,1639.33 1346,1625.5C 1350.07,1624.54 1354.23,1624.2 1358.5,1624.5C 1358.5,1645.5 1358.5,1666.5 1358.5,1687.5C 1355.17,1687.5 1351.83,1687.5 1348.5,1687.5C 1348.67,1672.5 1348.5,1657.5 1348,1642.5C 1340.96,1654.75 1333.79,1666.92 1326.5,1679C 1323.53,1679.9 1320.87,1679.4 1318.5,1677.5C 1312.2,1666.04 1305.7,1654.7 1299,1643.5C 1298.5,1658.16 1298.33,1672.83 1298.5,1687.5C 1294.83,1687.5 1291.17,1687.5 1287.5,1687.5C 1287.5,1666.5 1287.5,1645.5 1287.5,1624.5 Z"/></g>
<g><path style="opacity:0.91" fill="#4750ba" d="M 1660.5,1624.5 C 1663.52,1624.34 1666.52,1624.5 1669.5,1625C 1681.71,1638.87 1693.54,1653.04 1705,1667.5C 1705.5,1653.17 1705.67,1638.84 1705.5,1624.5C 1708.83,1624.5 1712.17,1624.5 1715.5,1624.5C 1715.5,1645.5 1715.5,1666.5 1715.5,1687.5C 1712.42,1687.74 1709.42,1687.41 1706.5,1686.5C 1694.81,1672.65 1683.31,1658.65 1672,1644.5C 1671.5,1658.83 1671.33,1673.16 1671.5,1687.5C 1667.83,1687.5 1664.17,1687.5 1660.5,1687.5C 1660.5,1666.5 1660.5,1645.5 1660.5,1624.5 Z"/></g>
<g><path style="opacity:0.907" fill="#4750ba" d="M 615.5,1629.5 C 618.167,1629.5 620.833,1629.5 623.5,1629.5C 623.5,1634.17 623.5,1638.83 623.5,1643.5C 627.833,1643.5 632.167,1643.5 636.5,1643.5C 636.5,1645.83 636.5,1648.17 636.5,1650.5C 632.167,1650.5 627.833,1650.5 623.5,1650.5C 623.334,1659.84 623.5,1669.17 624,1678.5C 624.775,1680.22 626.108,1681.22 628,1681.5C 632.543,1678.18 635.71,1679.18 637.5,1684.5C 634.184,1687.61 630.184,1688.94 625.5,1688.5C 620.179,1689.26 616.346,1687.26 614,1682.5C 612.597,1671.9 612.097,1661.23 612.5,1650.5C 605.765,1651.63 604.098,1649.46 607.5,1644C 609.473,1643.5 611.473,1643.34 613.5,1643.5C 614.167,1638.83 614.833,1634.17 615.5,1629.5 Z"/></g>
<g><path style="opacity:0.907" fill="#4750ba" d="M 879.5,1629.5 C 882.167,1629.5 884.833,1629.5 887.5,1629.5C 887.5,1634.17 887.5,1638.83 887.5,1643.5C 891.833,1643.5 896.167,1643.5 900.5,1643.5C 900.5,1645.83 900.5,1648.17 900.5,1650.5C 896.167,1650.5 891.833,1650.5 887.5,1650.5C 887.334,1659.84 887.5,1669.17 888,1678.5C 888.775,1680.22 890.108,1681.22 892,1681.5C 896.543,1678.18 899.71,1679.18 901.5,1684.5C 898.184,1687.61 894.184,1688.94 889.5,1688.5C 884.179,1689.26 880.346,1687.26 878,1682.5C 876.597,1671.9 876.097,1661.23 876.5,1650.5C 869.765,1651.63 868.098,1649.46 871.5,1644C 873.473,1643.5 875.473,1643.34 877.5,1643.5C 878.167,1638.83 878.833,1634.17 879.5,1629.5 Z"/></g>
<g><path style="opacity:0.925" fill="#4750ba" d="M 568.5,1642.5 C 576.966,1640.66 583.466,1643.32 588,1650.5C 589.418,1662.77 589.918,1675.11 589.5,1687.5C 585.833,1687.5 582.167,1687.5 578.5,1687.5C 578.667,1676.49 578.5,1665.49 578,1654.5C 574.113,1648.99 569.279,1648.16 563.5,1652C 562.333,1653.17 561.167,1654.33 560,1655.5C 559.5,1666.16 559.333,1676.83 559.5,1687.5C 556.167,1687.5 552.833,1687.5 549.5,1687.5C 549.5,1672.83 549.5,1658.17 549.5,1643.5C 552.187,1643.34 554.854,1643.5 557.5,1644C 558.227,1645.4 558.727,1646.9 559,1648.5C 561.843,1645.84 565.009,1643.84 568.5,1642.5 Z"/></g>
<g><path style="opacity:0.924" fill="#4750ba" d="M 666.5,1642.5 C 683.475,1640.32 692.309,1647.66 693,1664.5C 682.758,1666.46 672.258,1667.13 661.5,1666.5C 661.19,1675.52 665.523,1680.52 674.5,1681.5C 678.812,1680.59 682.979,1679.26 687,1677.5C 689.515,1677.84 691.348,1679.18 692.5,1681.5C 687.481,1686.68 681.314,1689.01 674,1688.5C 661.786,1688.95 654.12,1683.28 651,1671.5C 648.351,1657.46 653.518,1647.79 666.5,1642.5 Z M 670.5,1649.5 C 678.219,1649.22 682.552,1652.89 683.5,1660.5C 676.167,1660.5 668.833,1660.5 661.5,1660.5C 662.005,1654.67 665.005,1651 670.5,1649.5 Z"/></g>
<g><path style="opacity:0.953" fill="#4750ba" d="M 728.5,1642.5 C 732.308,1642.16 735.974,1642.66 739.5,1644C 738.833,1646.67 738.167,1649.33 737.5,1652C 730.319,1650.34 725.153,1652.84 722,1659.5C 721.5,1668.83 721.334,1678.16 721.5,1687.5C 718.167,1687.5 714.833,1687.5 711.5,1687.5C 711.5,1672.83 711.5,1658.17 711.5,1643.5C 714.187,1643.34 716.854,1643.5 719.5,1644C 720.264,1646.07 720.764,1648.24 721,1650.5C 723.028,1647.31 725.528,1644.64 728.5,1642.5 Z"/></g>
<g><path style="opacity:0.925" fill="#4750ba" d="M 774.5,1642.5 C 782.966,1640.66 789.466,1643.32 794,1650.5C 795.418,1662.77 795.918,1675.11 795.5,1687.5C 791.833,1687.5 788.167,1687.5 784.5,1687.5C 784.667,1676.49 784.5,1665.49 784,1654.5C 780.113,1648.99 775.279,1648.16 769.5,1652C 768.333,1653.17 767.167,1654.33 766,1655.5C 765.5,1666.16 765.333,1676.83 765.5,1687.5C 762.167,1687.5 758.833,1687.5 755.5,1687.5C 755.5,1672.83 755.5,1658.17 755.5,1643.5C 758.187,1643.34 760.854,1643.5 763.5,1644C 764.227,1645.4 764.727,1646.9 765,1648.5C 767.843,1645.84 771.009,1643.84 774.5,1642.5 Z"/></g>
<g><path style="opacity:0.924" fill="#4750ba" d="M 829.5,1642.5 C 846.475,1640.32 855.309,1647.66 856,1664.5C 845.758,1666.46 835.258,1667.13 824.5,1666.5C 824.19,1675.52 828.523,1680.52 837.5,1681.5C 841.812,1680.59 845.979,1679.26 850,1677.5C 852.515,1677.84 854.348,1679.18 855.5,1681.5C 850.481,1686.68 844.314,1689.01 837,1688.5C 824.786,1688.95 817.12,1683.28 814,1671.5C 811.351,1657.46 816.518,1647.79 829.5,1642.5 Z M 833.5,1649.5 C 841.219,1649.22 845.552,1652.89 846.5,1660.5C 839.167,1660.5 831.833,1660.5 824.5,1660.5C 825.005,1654.67 828.005,1651 833.5,1649.5 Z"/></g>
<g><path style="opacity:0.905" fill="#4750ba" d="M 993.5,1642.5 C 998.179,1642.33 1002.85,1642.5 1007.5,1643C 1010.84,1643.66 1013.5,1645.33 1015.5,1648C 1014.77,1650.3 1013.27,1651.8 1011,1652.5C 1007.74,1651.3 1004.4,1650.3 1001,1649.5C 994.866,1649.61 992.699,1652.44 994.5,1658C 1000.91,1660.47 1007.25,1663.14 1013.5,1666C 1018.92,1676.75 1015.92,1684.08 1004.5,1688C 996.003,1689.77 988.336,1688.1 981.5,1683C 982.5,1681.33 983.5,1679.67 984.5,1678C 986.167,1677.33 987.833,1677.33 989.5,1678C 995.214,1682.82 1000.71,1682.65 1006,1677.5C 1006.82,1675.3 1006.32,1673.47 1004.5,1672C 998.833,1669.67 993.167,1667.33 987.5,1665C 982.551,1660.06 981.718,1654.56 985,1648.5C 987.671,1646.1 990.505,1644.1 993.5,1642.5 Z"/></g>
<g><path style="opacity:0.953" fill="#4750ba" d="M 1228.5,1642.5 C 1232.31,1642.16 1235.97,1642.66 1239.5,1644C 1238.83,1646.67 1238.17,1649.33 1237.5,1652C 1230.32,1650.34 1225.15,1652.84 1222,1659.5C 1221.5,1668.83 1221.33,1678.16 1221.5,1687.5C 1218.17,1687.5 1214.83,1687.5 1211.5,1687.5C 1211.5,1672.83 1211.5,1658.17 1211.5,1643.5C 1214.19,1643.34 1216.85,1643.5 1219.5,1644C 1220.26,1646.07 1220.76,1648.24 1221,1650.5C 1223.03,1647.31 1225.53,1644.64 1228.5,1642.5 Z"/></g>
<g><path style="opacity:0.924" fill="#4750ba" d="M 1581.5,1642.5 C 1598.48,1640.32 1607.31,1647.66 1608,1664.5C 1597.76,1666.46 1587.26,1667.13 1576.5,1666.5C 1576.19,1675.52 1580.52,1680.52 1589.5,1681.5C 1593.81,1680.59 1597.98,1679.26 1602,1677.5C 1604.51,1677.84 1606.35,1679.18 1607.5,1681.5C 1602.48,1686.68 1596.31,1689.01 1589,1688.5C 1576.79,1688.95 1569.12,1683.28 1566,1671.5C 1563.35,1657.46 1568.52,1647.79 1581.5,1642.5 Z M 1585.5,1649.5 C 1593.22,1649.22 1597.55,1652.89 1598.5,1660.5C 1591.17,1660.5 1583.83,1660.5 1576.5,1660.5C 1577.01,1654.67 1580.01,1651 1585.5,1649.5 Z"/></g>
<g><path style="opacity:0.9" fill="#4750ba" d="M 1748.5,1642.5 C 1757.44,1640.65 1764.94,1642.98 1771,1649.5C 1771.82,1651.79 1772.49,1654.12 1773,1656.5C 1773.5,1666.83 1773.67,1677.16 1773.5,1687.5C 1770.81,1687.66 1768.15,1687.5 1765.5,1687C 1764.93,1685.79 1764.26,1684.63 1763.5,1683.5C 1755.63,1689.02 1747.29,1689.85 1738.5,1686C 1731.72,1674.87 1734.72,1667.54 1747.5,1664C 1752.43,1662.84 1757.43,1662.34 1762.5,1662.5C 1764.1,1655.34 1761.43,1651.01 1754.5,1649.5C 1750.17,1650.75 1746,1652.42 1742,1654.5C 1739.51,1653.35 1737.68,1651.51 1736.5,1649C 1740.43,1646.54 1744.43,1644.37 1748.5,1642.5 Z M 1757.5,1668.5 C 1759.17,1668.5 1760.83,1668.5 1762.5,1668.5C 1763.67,1676.5 1760.17,1680.84 1752,1681.5C 1743.99,1680.01 1742.82,1676.51 1748.5,1671C 1751.63,1670.16 1754.63,1669.33 1757.5,1668.5 Z"/></g>
<g><path style="opacity:0.938" fill="#4750ba" d="M 1811.5,1642.5 C 1818.85,1640.76 1824.35,1643.09 1828,1649.5C 1835.87,1641.55 1844.71,1640.38 1854.5,1646C 1857.59,1649.92 1859.09,1654.42 1859,1659.5C 1859.5,1668.83 1859.67,1678.16 1859.5,1687.5C 1855.83,1687.5 1852.17,1687.5 1848.5,1687.5C 1848.67,1676.83 1848.5,1666.16 1848,1655.5C 1844.84,1649.25 1840.34,1648.09 1834.5,1652C 1833.28,1653.65 1832.45,1655.48 1832,1657.5C 1831.5,1667.49 1831.33,1677.49 1831.5,1687.5C 1828.17,1687.5 1824.83,1687.5 1821.5,1687.5C 1821.67,1677.16 1821.5,1666.83 1821,1656.5C 1816.89,1647.99 1811.56,1647.32 1805,1654.5C 1804.5,1665.49 1804.33,1676.49 1804.5,1687.5C 1801.17,1687.5 1797.83,1687.5 1794.5,1687.5C 1794.5,1672.83 1794.5,1658.17 1794.5,1643.5C 1797.19,1643.34 1799.85,1643.5 1802.5,1644C 1803.19,1645.07 1803.69,1646.23 1804,1647.5C 1806.17,1645.18 1808.67,1643.51 1811.5,1642.5 Z"/></g>
<g><path style="opacity:0.924" fill="#4750ba" d="M 1893.5,1642.5 C 1910.48,1640.32 1919.31,1647.66 1920,1664.5C 1909.76,1666.46 1899.26,1667.13 1888.5,1666.5C 1888.19,1675.52 1892.52,1680.52 1901.5,1681.5C 1905.81,1680.59 1909.98,1679.26 1914,1677.5C 1916.51,1677.84 1918.35,1679.18 1919.5,1681.5C 1914.48,1686.68 1908.31,1689.01 1901,1688.5C 1888.79,1688.95 1881.12,1683.28 1878,1671.5C 1875.35,1657.46 1880.52,1647.79 1893.5,1642.5 Z M 1897.5,1649.5 C 1905.22,1649.22 1909.55,1652.89 1910.5,1660.5C 1903.17,1660.5 1895.83,1660.5 1888.5,1660.5C 1889.01,1654.67 1892.01,1651 1897.5,1649.5 Z"/></g>
<g><path style="opacity:0.896" fill="#4750ba" d="M 1149.5,1643.5 C 1153.17,1643.5 1156.83,1643.5 1160.5,1643.5C 1160.33,1654.51 1160.5,1665.51 1161,1676.5C 1162.42,1679.71 1164.92,1681.37 1168.5,1681.5C 1172.47,1680.77 1175.97,1679.1 1179,1676.5C 1179.5,1665.51 1179.67,1654.51 1179.5,1643.5C 1183.17,1643.5 1186.83,1643.5 1190.5,1643.5C 1190.5,1658.17 1190.5,1672.83 1190.5,1687.5C 1187.48,1687.66 1184.48,1687.5 1181.5,1687C 1180.81,1685.93 1180.31,1684.77 1180,1683.5C 1173.92,1688.14 1167.09,1689.64 1159.5,1688C 1154.16,1685.99 1151,1682.16 1150,1676.5C 1149.5,1665.51 1149.33,1654.51 1149.5,1643.5 Z"/></g>
<g><path style="opacity:0.885" fill="#4750ba" d="M 1381.5,1643.5 C 1385.17,1643.5 1388.83,1643.5 1392.5,1643.5C 1392.5,1658.17 1392.5,1672.83 1392.5,1687.5C 1388.83,1687.5 1385.17,1687.5 1381.5,1687.5C 1381.5,1672.83 1381.5,1658.17 1381.5,1643.5 Z"/></g>
</svg>
