<?xml version="1.0" encoding="UTF-8"?>
<!DOCTYPE svg PUBLIC "-//W3C//DTD SVG 1.1//EN" "http://www.w3.org/Graphics/SVG/1.1/DTD/svg11.dtd">
<svg xmlns="http://www.w3.org/2000/svg" version="1.1" width="1080px" height="1080px" style="shape-rendering:geometricPrecision; text-rendering:geometricPrecision; image-rendering:optimizeQuality; fill-rule:evenodd; clip-rule:evenodd" xmlns:xlink="http://www.w3.org/1999/xlink">
<g><path style="opacity:1" fill="#4f61e4" d="M 519.5,39.5 C 405.924,30.2074 307.924,64.0407 225.5,141C 146.269,221.954 109.936,319.62 116.5,434C 116.833,438.5 117.167,443 117.5,447.5C 120.755,459.278 122.922,471.278 124,483.5C 127.406,495.031 130.239,506.698 132.5,518.5C 129.408,508.611 126.241,498.611 123,488.5C 99.723,382.155 117.89,283.655 177.5,193C 262.733,78.5639 376.733,27.3973 519.5,39.5 Z"/></g>
<g><path style="opacity:1" fill="#3d79ea" d="M 523.5,37.5 C 525.779,38.6515 528.112,39.6515 530.5,40.5C 526.821,40.2756 523.154,39.9422 519.5,39.5C 376.733,27.3973 262.733,78.5639 177.5,193C 117.89,283.655 99.723,382.155 123,488.5C 126.241,498.611 129.408,508.611 132.5,518.5C 134.621,523.973 136.287,529.64 137.5,535.5C 133.354,527.258 129.854,518.592 127,509.5C 104.256,431.514 105.756,353.847 131.5,276.5C 152.033,221.776 183.366,174.11 225.5,133.5C 309.989,57.788 409.322,25.788 523.5,37.5 Z"/></g>
<g><path style="opacity:1" fill="#5063e4" d="M 622.5,66.5 C 623.833,66.8333 625.167,67.1667 626.5,67.5C 635.547,72.6901 644.88,77.3568 654.5,81.5C 660.048,85.6425 665.715,89.6425 671.5,93.5C 667.245,91.6371 662.912,89.9704 658.5,88.5C 658.5,87.5 658.5,86.5 658.5,85.5C 655.135,84.9604 651.802,84.2937 648.5,83.5C 646.673,82.0681 645.006,80.4014 643.5,78.5C 636.833,75.1667 630.167,71.8333 623.5,68.5C 622.702,68.0431 622.369,67.3764 622.5,66.5 Z"/></g>
<g><path style="opacity:1" fill="#1ba7f6" d="M 311.5,69.5 C 288.563,81.0938 266.896,94.7605 246.5,110.5C 250.065,105.521 254.731,101.688 260.5,99C 275.1,87.8768 290.766,78.2101 307.5,70C 308.793,69.51 310.127,69.3433 311.5,69.5 Z"/></g>
<g><path style="opacity:1" fill="#4c66e5" d="M 671.5,93.5 C 675.025,94.7589 678.025,96.7589 680.5,99.5C 676.61,98.7291 673.61,96.7291 671.5,93.5 Z"/></g>
<g><path style="opacity:1" fill="#4b68e5" d="M 682.5,100.5 C 687.071,102.738 691.071,105.738 694.5,109.5C 692.821,109.108 691.154,108.608 689.5,108C 686.572,105.91 684.239,103.41 682.5,100.5 Z"/></g>
<g><path style="opacity:1" fill="#6d39d9" d="M 511.5,109.5 C 557.899,115.133 600.733,130.466 640,155.5C 660.55,169.009 679.217,185.342 696,204.5C 696.333,207.5 698,209.167 701,209.5C 710.161,221.82 718.828,234.486 727,247.5C 729.853,254.532 732.686,261.532 735.5,268.5C 734.5,267.167 733.5,265.833 732.5,264.5C 732.672,263.508 732.338,262.842 731.5,262.5C 726.812,254.457 722.645,246.124 719,237.5C 714.699,233.579 711.365,228.912 709,223.5C 702.636,217.128 696.969,210.128 692,202.5C 684.982,195.981 677.815,189.647 670.5,183.5C 667.645,180.48 664.979,177.313 662.5,174C 660.754,173.529 659.087,172.862 657.5,172C 647.476,164.635 637.476,157.302 627.5,150C 622.746,148.903 618.746,146.57 615.5,143C 605.161,138.323 594.828,133.656 584.5,129C 573.321,126.274 562.321,122.94 551.5,119C 517.91,111.356 483.91,109.356 449.5,113C 441.864,113.693 434.531,115.193 427.5,117.5C 415.651,119.037 403.984,121.537 392.5,125C 379.125,129.956 365.792,134.789 352.5,139.5C 402.896,116.265 455.896,106.265 511.5,109.5 Z"/></g>
<g><path style="opacity:1" fill="#229ef3" d="M 475.5,116.5 C 477.167,116.5 478.833,116.5 480.5,116.5C 489.029,117.401 497.696,118.401 506.5,119.5C 515.509,122.16 524.509,124.493 533.5,126.5C 517.449,123.786 501.449,121.286 485.5,119C 472.5,118.333 459.5,118.333 446.5,119C 437.95,120.985 429.284,122.152 420.5,122.5C 438.456,118.367 456.79,116.367 475.5,116.5 Z"/></g>
<g><path style="opacity:1" fill="#3586ed" d="M 446.5,115.5 C 453.5,115.5 460.5,115.5 467.5,115.5C 470.385,115.194 473.052,115.527 475.5,116.5C 456.79,116.367 438.456,118.367 420.5,122.5C 415.227,123.818 409.893,124.818 404.5,125.5C 403.167,125.5 401.833,125.5 400.5,125.5C 411.624,121.885 422.957,119.219 434.5,117.5C 438.674,117.666 442.674,117 446.5,115.5 Z"/></g>
<g><path style="opacity:1" fill="#5d4edf" d="M 731.5,262.5 C 728.003,260.555 725.67,257.555 724.5,253.5C 724.043,252.702 723.376,252.369 722.5,252.5C 721.833,251.833 721.167,251.167 720.5,250.5C 719.572,246.638 718.072,242.971 716,239.5C 708.228,230.177 700.895,220.51 694,210.5C 682.169,199.669 670.669,188.502 659.5,177C 597.224,127.503 526.224,107.003 446.5,115.5C 442.674,117 438.674,117.666 434.5,117.5C 432.167,117.5 429.833,117.5 427.5,117.5C 434.531,115.193 441.864,113.693 449.5,113C 483.91,109.356 517.91,111.356 551.5,119C 562.321,122.94 573.321,126.274 584.5,129C 594.828,133.656 605.161,138.323 615.5,143C 618.746,146.57 622.746,148.903 627.5,150C 637.476,157.302 647.476,164.635 657.5,172C 659.087,172.862 660.754,173.529 662.5,174C 664.979,177.313 667.645,180.48 670.5,183.5C 677.815,189.647 684.982,195.981 692,202.5C 696.969,210.128 702.636,217.128 709,223.5C 711.365,228.912 714.699,233.579 719,237.5C 722.645,246.124 726.812,254.457 731.5,262.5 Z"/></g>
<g><path style="opacity:1" fill="#3f76e9" d="M 467.5,115.5 C 476.577,114.84 485.743,114.506 495,114.5C 508.396,116.699 521.896,118.532 535.5,120C 536.056,120.383 536.389,120.883 536.5,121.5C 527.726,120.971 519.059,119.804 510.5,118C 500.522,117.011 490.522,116.511 480.5,116.5C 478.833,116.5 477.167,116.5 475.5,116.5C 473.052,115.527 470.385,115.194 467.5,115.5 Z"/></g>
<g><path style="opacity:1" fill="#5757e1" d="M 427.5,117.5 C 429.833,117.5 432.167,117.5 434.5,117.5C 422.957,119.219 411.624,121.885 400.5,125.5C 394.045,127.644 387.378,129.477 380.5,131C 364.49,137.419 348.823,144.586 333.5,152.5C 332.702,152.957 332.369,153.624 332.5,154.5C 331.167,154.833 329.833,155.167 328.5,155.5C 329.5,154.167 330.5,152.833 331.5,151.5C 337.499,147.834 343.832,144.667 350.5,142C 351.381,141.292 352.047,140.458 352.5,139.5C 365.792,134.789 379.125,129.956 392.5,125C 403.984,121.537 415.651,119.037 427.5,117.5 Z"/></g>
<g><path style="opacity:1" fill="#4f61e4" d="M 720.5,250.5 C 718.941,248.392 717.608,246.059 716.5,243.5C 712.834,241.496 709.834,238.829 707.5,235.5C 706.728,234.306 705.728,233.306 704.5,232.5C 701.794,226.095 698.294,220.095 694,214.5C 686.191,207.023 678.691,199.189 671.5,191C 664.612,185.794 657.946,180.127 651.5,174C 645.607,170.459 639.94,166.459 634.5,162C 606.017,143.439 575.017,130.272 541.5,122.5C 539.958,121.699 538.292,121.366 536.5,121.5C 536.389,120.883 536.056,120.383 535.5,120C 521.896,118.532 508.396,116.699 495,114.5C 485.743,114.506 476.577,114.84 467.5,115.5C 460.5,115.5 453.5,115.5 446.5,115.5C 526.224,107.003 597.224,127.503 659.5,177C 670.669,188.502 682.169,199.669 694,210.5C 700.895,220.51 708.228,230.177 716,239.5C 718.072,242.971 719.572,246.638 720.5,250.5 Z"/></g>
<g><path style="opacity:1" fill="#0fb8fa" d="M 676.5,91.5 C 708.688,110.337 737.021,134.004 761.5,162.5C 760.448,162.649 759.448,162.483 758.5,162C 756,158.833 753.5,155.667 751,152.5C 750.184,151.177 749.017,150.511 747.5,150.5C 738.718,144.552 731.051,137.386 724.5,129C 721.299,127.206 718.299,125.206 715.5,123C 713.874,120.372 711.874,118.039 709.5,116C 703.913,112.71 698.913,108.71 694.5,104C 687.524,101.031 681.524,96.864 676.5,91.5 Z"/></g>
<g><path style="opacity:1" fill="#3d79ea" d="M 541.5,122.5 C 575.017,130.272 606.017,143.439 634.5,162C 639.94,166.459 645.607,170.459 651.5,174C 657.946,180.127 664.612,185.794 671.5,191C 678.691,199.189 686.191,207.023 694,214.5C 698.294,220.095 701.794,226.095 704.5,232.5C 693.461,219.614 682.128,206.781 670.5,194C 656.863,182.518 642.863,171.518 628.5,161C 617.66,154.746 606.66,148.746 595.5,143C 577.467,136.048 559.467,129.214 541.5,122.5 Z"/></g>
<g><path style="opacity:1" fill="#4373e8" d="M 694.5,109.5 C 701.531,113.357 707.865,118.19 713.5,124C 722.105,130.269 729.771,137.603 736.5,146C 740.746,148.913 744.246,152.413 747,156.5C 755.153,164.15 761.987,172.817 767.5,182.5C 763.457,178.127 759.624,173.461 756,168.5C 750.978,164.141 746.645,159.141 743,153.5C 741.114,150.758 738.614,149.091 735.5,148.5C 726.702,139.202 717.702,130.035 708.5,121C 702.769,118.433 698.102,114.6 694.5,109.5 Z"/></g>
<g><path style="opacity:1" fill="#2d8fef" d="M 480.5,116.5 C 490.522,116.511 500.522,117.011 510.5,118C 519.059,119.804 527.726,120.971 536.5,121.5C 538.292,121.366 539.958,121.699 541.5,122.5C 559.467,129.214 577.467,136.048 595.5,143C 606.66,148.746 617.66,154.746 628.5,161C 642.863,171.518 656.863,182.518 670.5,194C 682.128,206.781 693.461,219.614 704.5,232.5C 705.728,233.306 706.728,234.306 707.5,235.5C 710.167,240.5 712.833,245.5 715.5,250.5C 713.5,248.167 711.5,245.833 709.5,243.5C 667.2,180.828 608.867,141.828 534.5,126.5C 534.167,126.5 533.833,126.5 533.5,126.5C 524.509,124.493 515.509,122.16 506.5,119.5C 497.696,118.401 489.029,117.401 480.5,116.5 Z"/></g>
<g><path style="opacity:1" fill="#0fb7fa" d="M 676.5,91.5 C 669.036,88.35 661.702,85.0167 654.5,81.5C 654.144,80.1301 653.31,79.1301 652,78.5C 646.281,76.0572 640.781,73.2238 635.5,70C 632.647,68.5699 629.647,67.7366 626.5,67.5C 619.723,63.8586 612.723,60.3586 605.5,57C 585.821,50.8789 566.155,45.2123 546.5,40C 538.856,38.9023 531.189,38.069 523.5,37.5C 523.082,36.7784 522.416,36.2784 521.5,36C 482.865,30.6247 444.531,31.4581 406.5,38.5C 395.006,39.6986 383.673,41.8652 372.5,45C 366.539,46.7043 360.872,48.8709 355.5,51.5C 340.633,56.9312 325.966,62.9312 311.5,69.5C 310.127,69.3433 308.793,69.51 307.5,70C 290.766,78.2101 275.1,87.8768 260.5,99C 254.731,101.688 250.065,105.521 246.5,110.5C 243.357,110.969 241.023,112.636 239.5,115.5C 181.907,161.598 142.407,220.265 121,291.5C 120.333,292.167 119.667,292.833 119,293.5C 107.448,339.122 103.448,385.456 107,432.5C 109.443,449.147 111.776,465.814 114,482.5C 115.336,487.158 117.169,491.491 119.5,495.5C 121.306,502.045 123.139,508.711 125,515.5C 129.523,520.561 131.856,526.561 132,533.5C 134.412,539.894 137.412,545.894 141,551.5C 141.747,556.994 144.08,561.66 148,565.5C 148.625,568.75 150.125,571.417 152.5,573.5C 153.942,576.05 155.108,578.716 156,581.5C 156.671,582.252 157.504,582.586 158.5,582.5C 158.954,584.741 158.954,586.741 158.5,588.5C 152.665,580.168 147.332,571.501 142.5,562.5C 98.3635,473.021 90.5301,380.354 119,284.5C 147.088,199.801 198.588,133.301 273.5,85C 362.779,31.9586 458.113,17.2919 559.5,41C 601.579,51.1762 640.579,68.0095 676.5,91.5 Z"/></g>
<g><path style="opacity:1" fill="#239df3" d="M 626.5,67.5 C 629.647,67.7366 632.647,68.5699 635.5,70C 640.781,73.2238 646.281,76.0572 652,78.5C 653.31,79.1301 654.144,80.1301 654.5,81.5C 644.88,77.3568 635.547,72.6901 626.5,67.5 Z"/></g>
<g><path style="opacity:1" fill="#6941db" d="M 582.5,55.5 C 588.894,56.9653 595.228,58.632 601.5,60.5C 605.874,61.3436 610.207,62.3436 614.5,63.5C 617.327,64.1084 619.993,65.1084 622.5,66.5C 622.369,67.3764 622.702,68.0431 623.5,68.5C 630.167,71.8333 636.833,75.1667 643.5,78.5C 645.006,80.4014 646.673,82.0681 648.5,83.5C 627.356,72.0121 605.356,62.6787 582.5,55.5 Z"/></g>
<g><path style="opacity:1" fill="#4374e8" d="M 599.5,57.5 C 604.735,59.129 609.735,61.129 614.5,63.5C 610.207,62.3436 605.874,61.3436 601.5,60.5C 600.449,59.7777 599.782,58.7777 599.5,57.5 Z"/></g>
<g><path style="opacity:1" fill="#3b7eeb" d="M 589.5,54.5 C 593.286,54.32 596.619,55.32 599.5,57.5C 595.779,57.4793 592.446,56.4793 589.5,54.5 Z"/></g>
<g><path style="opacity:1" fill="#2a96f1" d="M 523.5,37.5 C 531.189,38.069 538.856,38.9023 546.5,40C 566.155,45.2123 585.821,50.8789 605.5,57C 612.723,60.3586 619.723,63.8586 626.5,67.5C 625.167,67.1667 623.833,66.8333 622.5,66.5C 619.993,65.1084 617.327,64.1084 614.5,63.5C 609.735,61.129 604.735,59.129 599.5,57.5C 596.619,55.32 593.286,54.32 589.5,54.5C 583.512,51.7276 577.178,49.7276 570.5,48.5C 563.859,47.5911 557.526,45.9244 551.5,43.5C 545.411,41.764 539.078,40.764 532.5,40.5C 531.833,40.5 531.167,40.5 530.5,40.5C 528.112,39.6515 525.779,38.6515 523.5,37.5 Z"/></g>
<g><path style="opacity:1" fill="#486be6" d="M 570.5,48.5 C 577.178,49.7276 583.512,51.7276 589.5,54.5C 582.479,54.0459 576.146,52.0459 570.5,48.5 Z"/></g>
<g><path style="opacity:1" fill="#1ba7f6" d="M 406.5,38.5 C 389.429,42.0775 372.429,46.4108 355.5,51.5C 360.872,48.8709 366.539,46.7043 372.5,45C 383.673,41.8652 395.006,39.6986 406.5,38.5 Z"/></g>
<g><path style="opacity:1" fill="#496ce6" d="M 532.5,40.5 C 539.078,40.764 545.411,41.764 551.5,43.5C 546.303,43.6364 541.137,43.3031 536,42.5C 534.319,42.3917 533.152,41.7251 532.5,40.5 Z"/></g>
<g><path style="opacity:1" fill="#5060e3" d="M 328.5,155.5 C 314.612,164.181 301.612,174.014 289.5,185C 288.552,185.483 287.552,185.649 286.5,185.5C 298.771,173.252 312.771,163.252 328.5,155.5 Z"/></g>
<g><path style="opacity:1" fill="#19abf7" d="M 747.5,150.5 C 749.017,150.511 750.184,151.177 751,152.5C 753.5,155.667 756,158.833 758.5,162C 759.448,162.483 760.448,162.649 761.5,162.5C 768.08,172.745 775.413,182.412 783.5,191.5C 789.363,201.385 795.696,211.051 802.5,220.5C 806.189,233.09 811.689,244.756 819,255.5C 819.53,259.583 820.363,263.583 821.5,267.5C 812.756,248.645 803.423,229.979 793.5,211.5C 790.884,208.045 788.05,204.712 785,201.5C 780.73,193.57 776.064,185.903 771,178.5C 768.191,175.826 765.191,173.493 762,171.5C 761.667,170.167 761.333,168.833 761,167.5C 755.109,162.794 750.609,157.127 747.5,150.5 Z"/></g>
<g><path style="opacity:1" fill="#6b3ad9" d="M 582.5,55.5 C 534.296,41.652 485.296,37.9853 435.5,44.5C 327.069,61.0903 242.235,114.424 181,204.5C 137.282,273.041 117.115,348.208 120.5,430C 122.105,445.874 124.272,461.707 127,477.5C 128.259,485.879 130.425,493.879 133.5,501.5C 134.184,506.9 135.184,512.233 136.5,517.5C 132.654,507.829 129.487,497.829 127,487.5C 125.528,478.376 123.862,469.376 122,460.5C 115.498,410.706 118.165,361.373 130,312.5C 133.738,304.949 136.071,296.949 137,288.5C 144.708,269.612 152.708,250.945 161,232.5C 164.863,229.446 167.197,225.446 168,220.5C 219.229,134.557 293.395,78.0574 390.5,51C 443.762,37.8072 497.429,36.1405 551.5,46C 562.079,48.7225 572.413,51.8891 582.5,55.5 Z"/></g>
<g><path style="opacity:1" fill="#219ff4" d="M 534.5,126.5 C 608.867,141.828 667.2,180.828 709.5,243.5C 715.822,255.434 722.156,267.434 728.5,279.5C 726.621,278.103 724.954,276.437 723.5,274.5C 720.161,265.135 715.327,256.802 709,249.5C 666.723,187.545 608.89,147.045 535.5,128C 534.944,127.617 534.611,127.117 534.5,126.5 Z"/></g>
<g><path style="opacity:0.515" fill="#772cd6" d="M 511.5,109.5 C 590.773,117.212 655.606,151.546 706,212.5C 724.138,236.771 738.638,263.104 749.5,291.5C 748.778,291.918 748.278,292.584 748,293.5C 747.371,289.393 745.537,286.06 742.5,283.5C 740.317,278.444 737.983,273.444 735.5,268.5C 732.686,261.532 729.853,254.532 727,247.5C 718.828,234.486 710.161,221.82 701,209.5C 698,209.167 696.333,207.5 696,204.5C 679.217,185.342 660.55,169.009 640,155.5C 600.733,130.466 557.899,115.133 511.5,109.5 Z"/></g>
<g><path style="opacity:1" fill="#2996f1" d="M 654.5,81.5 C 661.702,85.0167 669.036,88.35 676.5,91.5C 681.524,96.864 687.524,101.031 694.5,104C 698.913,108.71 703.913,112.71 709.5,116C 711.874,118.039 713.874,120.372 715.5,123C 718.299,125.206 721.299,127.206 724.5,129C 731.051,137.386 738.718,144.552 747.5,150.5C 750.609,157.127 755.109,162.794 761,167.5C 761.333,168.833 761.667,170.167 762,171.5C 765.191,173.493 768.191,175.826 771,178.5C 776.064,185.903 780.73,193.57 785,201.5C 788.05,204.712 790.884,208.045 793.5,211.5C 803.423,229.979 812.756,248.645 821.5,267.5C 821.5,267.833 821.5,268.167 821.5,268.5C 824.372,281.32 827.872,293.987 832,306.5C 833.168,313.847 834.335,321.181 835.5,328.5C 831.997,316.033 828.497,303.367 825,290.5C 813.119,253.802 796.119,219.802 774,188.5C 772.465,185.706 770.298,183.706 767.5,182.5C 761.987,172.817 755.153,164.15 747,156.5C 744.246,152.413 740.746,148.913 736.5,146C 729.771,137.603 722.105,130.269 713.5,124C 707.865,118.19 701.531,113.357 694.5,109.5C 691.071,105.738 687.071,102.738 682.5,100.5C 681.833,100.167 681.167,99.8333 680.5,99.5C 678.025,96.7589 675.025,94.7589 671.5,93.5C 665.715,89.6425 660.048,85.6425 654.5,81.5 Z"/></g>
<g><path style="opacity:1" fill="#2a95f1" d="M 400.5,125.5 C 401.833,125.5 403.167,125.5 404.5,125.5C 395.429,128.84 386.096,132.006 376.5,135C 366.823,139.172 357.157,143.339 347.5,147.5C 340.238,153.808 332.238,159.141 323.5,163.5C 312.276,173.367 300.942,182.701 289.5,191.5C 281.773,198.058 274.94,205.391 269,213.5C 265.965,216.87 262.632,219.87 259,222.5C 252.857,232.766 246.191,242.766 239,252.5C 235.545,258.381 232.378,264.381 229.5,270.5C 227.023,273.438 225.023,276.771 223.5,280.5C 222.5,281.167 221.5,281.833 220.5,282.5C 218.392,287.054 216.059,291.388 213.5,295.5C 238.333,235.999 278,188.999 332.5,154.5C 332.369,153.624 332.702,152.957 333.5,152.5C 348.823,144.586 364.49,137.419 380.5,131C 387.378,129.477 394.045,127.644 400.5,125.5 Z"/></g>
<g><path style="opacity:1" fill="#2896f1" d="M 523.5,37.5 C 409.322,25.788 309.989,57.788 225.5,133.5C 224.761,133.369 224.094,133.536 223.5,134C 191.488,164.671 165.655,199.838 146,239.5C 143.054,247.002 139.721,254.335 136,261.5C 133.905,266.347 132.405,271.347 131.5,276.5C 105.756,353.847 104.256,431.514 127,509.5C 129.854,518.592 133.354,527.258 137.5,535.5C 137.737,538.647 138.57,541.647 140,544.5C 142.466,548.761 144.632,553.094 146.5,557.5C 150.243,565.986 154.243,574.319 158.5,582.5C 157.504,582.586 156.671,582.252 156,581.5C 155.108,578.716 153.942,576.05 152.5,573.5C 150.125,571.417 148.625,568.75 148,565.5C 144.08,561.66 141.747,556.994 141,551.5C 137.412,545.894 134.412,539.894 132,533.5C 131.856,526.561 129.523,520.561 125,515.5C 123.139,508.711 121.306,502.045 119.5,495.5C 92.1882,386.155 109.355,284.488 171,190.5C 191.174,163.156 214.007,138.156 239.5,115.5C 241.023,112.636 243.357,110.969 246.5,110.5C 266.896,94.7605 288.563,81.0938 311.5,69.5C 325.966,62.9312 340.633,56.9312 355.5,51.5C 372.429,46.4108 389.429,42.0775 406.5,38.5C 444.531,31.4581 482.865,30.6247 521.5,36C 522.416,36.2784 523.082,36.7784 523.5,37.5 Z"/></g>
<g><path style="opacity:1" fill="#2e8def" d="M 225.5,133.5 C 183.366,174.11 152.033,221.776 131.5,276.5C 132.405,271.347 133.905,266.347 136,261.5C 139.721,254.335 143.054,247.002 146,239.5C 165.655,199.838 191.488,164.671 223.5,134C 224.094,133.536 224.761,133.369 225.5,133.5 Z"/></g>
<g><path style="opacity:0.613" fill="#7829d5" d="M 435.5,44.5 C 297.357,69.6525 201.19,146.986 147,276.5C 119.741,350.129 115.241,425.129 133.5,501.5C 130.425,493.879 128.259,485.879 127,477.5C 124.272,461.707 122.105,445.874 120.5,430C 117.115,348.208 137.282,273.041 181,204.5C 242.235,114.424 327.069,61.0903 435.5,44.5 Z"/></g>
<g><path style="opacity:1" fill="#4f61e4" d="M 286.5,186.5 C 276.194,197.14 265.861,207.807 255.5,218.5C 255.351,217.448 255.517,216.448 256,215.5C 260.474,211.206 264.474,206.539 268,201.5C 272.682,197.097 277.182,192.597 281.5,188C 283.025,186.991 284.692,186.491 286.5,186.5 Z"/></g>
<g><path style="opacity:0.67" fill="#752ed6" d="M 352.5,139.5 C 352.047,140.458 351.381,141.292 350.5,142C 343.832,144.667 337.499,147.834 331.5,151.5C 324.761,154.705 318.094,158.205 311.5,162C 302.551,169.462 293.218,176.296 283.5,182.5C 278.56,186.316 273.56,190.149 268.5,194C 233.317,229.186 209.651,271.019 197.5,319.5C 196.329,328.527 194.829,337.527 193,346.5C 191.395,357.446 190.561,368.446 190.5,379.5C 190.5,387.167 190.5,394.833 190.5,402.5C 184.327,327.177 206.16,261.177 256,204.5C 283.556,175.973 315.723,154.307 352.5,139.5 Z"/></g>
<g><path style="opacity:1" fill="#5e4dde" d="M 648.5,83.5 C 651.802,84.2937 655.135,84.9604 658.5,85.5C 658.5,86.5 658.5,87.5 658.5,88.5C 662.912,89.9704 667.245,91.6371 671.5,93.5C 673.61,96.7291 676.61,98.7291 680.5,99.5C 681.167,99.8333 681.833,100.167 682.5,100.5C 684.239,103.41 686.572,105.91 689.5,108C 691.154,108.608 692.821,109.108 694.5,109.5C 698.102,114.6 702.769,118.433 708.5,121C 717.702,130.035 726.702,139.202 735.5,148.5C 742.011,155.551 748.511,162.551 755,169.5C 758.964,176.121 763.631,182.121 769,187.5C 772.906,193.638 776.572,199.971 780,206.5C 781,207.167 782,207.833 783,208.5C 785.777,213.62 788.11,218.953 790,224.5C 791,225.167 792,225.833 793,226.5C 797.217,235.657 801.717,244.657 806.5,253.5C 819.322,284.949 828.488,317.616 834,351.5C 841.785,408.906 836.785,465.24 819,520.5C 817.275,526.934 814.775,532.934 811.5,538.5C 845.011,444.542 843.011,351.375 805.5,259C 803.331,256.173 801.831,253.006 801,249.5C 797.81,246.623 796.143,242.957 796,238.5C 784.125,216.125 770.791,194.792 756,174.5C 751.679,170.345 747.512,166.012 743.5,161.5C 742.194,160.088 741.36,158.421 741,156.5C 730.184,145.086 719.017,133.919 707.5,123C 703.948,119.727 699.948,117.227 695.5,115.5C 680.345,104.089 664.678,93.4219 648.5,83.5 Z"/></g>
<g><path style="opacity:0.904" fill="#0eb9fa" d="M 533.5,126.5 C 533.833,126.5 534.167,126.5 534.5,126.5C 534.611,127.117 534.944,127.617 535.5,128C 608.89,147.045 666.723,187.545 709,249.5C 715.327,256.802 720.161,265.135 723.5,274.5C 723.878,276.921 724.545,279.254 725.5,281.5C 724.833,281.167 724.167,280.833 723.5,280.5C 723.5,279.833 723.167,279.5 722.5,279.5C 675.215,193.976 603.215,142.476 506.5,125C 429.801,112.666 362.467,132 304.5,183C 240.231,242.368 202.565,315.535 191.5,402.5C 191.5,400.833 191.5,399.167 191.5,397.5C 196.243,352.876 208.909,310.543 229.5,270.5C 238.148,256.554 247.314,242.887 257,229.5C 267.692,216.647 278.525,203.981 289.5,191.5C 300.942,182.701 312.276,173.367 323.5,163.5C 332.238,159.141 340.238,153.808 347.5,147.5C 357.157,143.339 366.823,139.172 376.5,135C 386.096,132.006 395.429,128.84 404.5,125.5C 409.893,124.818 415.227,123.818 420.5,122.5C 429.284,122.152 437.95,120.985 446.5,119C 459.5,118.333 472.5,118.333 485.5,119C 501.449,121.286 517.449,123.786 533.5,126.5 Z"/></g>
<g><path style="opacity:1" fill="#3e78e9" d="M 332.5,154.5 C 278,188.999 238.333,235.999 213.5,295.5C 202.943,321.309 195.943,347.976 192.5,375.5C 192.5,372.167 192.5,368.833 192.5,365.5C 196.05,342.715 201.716,320.381 209.5,298.5C 209.263,297.209 209.596,296.209 210.5,295.5C 222.635,268.061 237.635,242.395 255.5,218.5C 265.861,207.807 276.194,197.14 286.5,186.5C 286.5,186.167 286.5,185.833 286.5,185.5C 287.552,185.649 288.552,185.483 289.5,185C 301.612,174.014 314.612,164.181 328.5,155.5C 329.833,155.167 331.167,154.833 332.5,154.5 Z"/></g>
<g><path style="opacity:1" fill="#1ca5f6" d="M 289.5,191.5 C 278.525,203.981 267.692,216.647 257,229.5C 247.314,242.887 238.148,256.554 229.5,270.5C 232.378,264.381 235.545,258.381 239,252.5C 246.191,242.766 252.857,232.766 259,222.5C 262.632,219.87 265.965,216.87 269,213.5C 274.94,205.391 281.773,198.058 289.5,191.5 Z"/></g>
<g><path style="opacity:1" fill="#4f61e4" d="M 255.5,218.5 C 237.635,242.395 222.635,268.061 210.5,295.5C 210.338,293.473 210.505,291.473 211,289.5C 220.644,267.22 232.644,246.22 247,226.5C 249.538,223.488 252.371,220.821 255.5,218.5 Z"/></g>
<g><path style="opacity:0.987" fill="#2e3775" d="M 555.5,352.5 C 546.449,322.943 527.449,302.443 498.5,291C 478.197,283.542 457.53,281.375 436.5,284.5C 422.815,286.061 410.148,290.395 398.5,297.5C 386.357,303.64 376.357,312.306 368.5,323.5C 362.231,332.038 357.564,341.372 354.5,351.5C 348.996,318.982 359.329,292.482 385.5,272C 422.952,247.136 462.619,243.136 504.5,260C 529.392,271.223 546.226,289.723 555,315.5C 558.05,327.943 558.217,340.276 555.5,352.5 Z"/></g>
<g><path style="opacity:0.995" fill="#2859b2" d="M 674.5,264.5 C 694.272,283.771 713.938,303.271 733.5,323C 737.727,326.737 742.06,330.237 746.5,333.5C 751.008,347.537 754.341,361.87 756.5,376.5C 757.985,384.098 759.152,391.765 760,399.5C 760.278,400.416 760.778,401.082 761.5,401.5C 762.831,394.532 763.497,387.198 763.5,379.5C 763.5,371.992 763.166,364.659 762.5,357.5C 762.5,355.5 762.5,353.5 762.5,351.5C 785.465,373.297 808.298,395.297 831,417.5C 831.5,411.175 831.666,404.842 831.5,398.5C 832.835,433.862 829.169,468.862 820.5,503.5C 760.5,445.5 700.5,387.5 640.5,329.5C 636.352,300.203 624.352,274.536 604.5,252.5C 628.096,254.015 651.429,258.015 674.5,264.5 Z"/></g>
<g><path style="opacity:0.976" fill="#245bb1" d="M 674.5,264.5 C 690.754,268.696 706.754,273.696 722.5,279.5C 723.167,279.5 723.5,279.833 723.5,280.5C 724.167,280.833 724.833,281.167 725.5,281.5C 733.613,298.391 740.613,315.724 746.5,333.5C 742.06,330.237 737.727,326.737 733.5,323C 713.938,303.271 694.272,283.771 674.5,264.5 Z"/></g>
<g><path style="opacity:0.286" fill="#0dbafa" d="M 761.5,162.5 C 810.444,217.421 839.111,281.755 847.5,355.5C 848.273,377.825 848.606,400.158 848.5,422.5C 847.007,421.688 846.34,420.355 846.5,418.5C 847.837,402.988 847.504,387.655 845.5,372.5C 843.338,340.828 837.171,309.828 827,279.5C 825.821,275.434 823.988,271.767 821.5,268.5C 821.5,268.167 821.5,267.833 821.5,267.5C 820.363,263.583 819.53,259.583 819,255.5C 811.689,244.756 806.189,233.09 802.5,220.5C 795.696,211.051 789.363,201.385 783.5,191.5C 775.413,182.412 768.08,172.745 761.5,162.5 Z"/></g>
<g><path style="opacity:1" fill="#3f77e9" d="M 707.5,235.5 C 709.834,238.829 712.834,241.496 716.5,243.5C 717.608,246.059 718.941,248.392 720.5,250.5C 721.167,251.167 721.833,251.833 722.5,252.5C 725.656,261.646 729.989,270.146 735.5,278C 738.75,288.089 742.584,297.922 747,307.5C 753.847,327.569 758.013,348.236 759.5,369.5C 756.756,349.124 752.089,329.124 745.5,309.5C 738.091,292.007 730.091,274.674 721.5,257.5C 719.255,255.322 717.255,252.988 715.5,250.5C 712.833,245.5 710.167,240.5 707.5,235.5 Z"/></g>
<g><path style="opacity:1" fill="#2897f1" d="M 709.5,243.5 C 711.5,245.833 713.5,248.167 715.5,250.5C 717.255,252.988 719.255,255.322 721.5,257.5C 730.091,274.674 738.091,292.007 745.5,309.5C 752.089,329.124 756.756,349.124 759.5,369.5C 759.205,371.735 759.539,373.735 760.5,375.5C 761.411,384.126 761.745,392.792 761.5,401.5C 760.778,401.082 760.278,400.416 760,399.5C 759.152,391.765 757.985,384.098 756.5,376.5C 757.649,376.209 758.316,375.376 758.5,374C 754.24,352.789 749.073,331.622 743,310.5C 740.667,306.554 738.333,302.554 736,298.5C 733,292.329 730.5,285.996 728.5,279.5C 722.156,267.434 715.822,255.434 709.5,243.5 Z"/></g>
<g><path style="opacity:1" fill="#6e36d7" d="M 695.5,115.5 C 699.948,117.227 703.948,119.727 707.5,123C 719.017,133.919 730.184,145.086 741,156.5C 741.36,158.421 742.194,160.088 743.5,161.5C 747.512,166.012 751.679,170.345 756,174.5C 770.791,194.792 784.125,216.125 796,238.5C 796.143,242.957 797.81,246.623 801,249.5C 801.831,253.006 803.331,256.173 805.5,259C 843.011,351.375 845.011,444.542 811.5,538.5C 810.778,538.918 810.278,539.584 810,540.5C 809.601,540.272 809.435,539.938 809.5,539.5C 813.168,527.496 816.835,515.496 820.5,503.5C 829.169,468.862 832.835,433.862 831.5,398.5C 831.209,377.546 828.876,356.879 824.5,336.5C 805.889,248.236 762.889,174.569 695.5,115.5 Z"/></g>
<g><path style="opacity:1" fill="#5e4edf" d="M 331.5,151.5 C 330.5,152.833 329.5,154.167 328.5,155.5C 312.771,163.252 298.771,173.252 286.5,185.5C 286.5,185.833 286.5,186.167 286.5,186.5C 284.692,186.491 283.025,186.991 281.5,188C 277.182,192.597 272.682,197.097 268,201.5C 264.474,206.539 260.474,211.206 256,215.5C 255.517,216.448 255.351,217.448 255.5,218.5C 252.371,220.821 249.538,223.488 247,226.5C 232.644,246.22 220.644,267.22 211,289.5C 210.505,291.473 210.338,293.473 210.5,295.5C 209.596,296.209 209.263,297.209 209.5,298.5C 207.665,299.122 206.498,300.456 206,302.5C 199.017,322.912 194.517,343.912 192.5,365.5C 192.5,368.833 192.5,372.167 192.5,375.5C 192.5,375.833 192.5,376.167 192.5,376.5C 191.833,377.5 191.167,378.5 190.5,379.5C 190.561,368.446 191.395,357.446 193,346.5C 194.829,337.527 196.329,328.527 197.5,319.5C 198.117,319.389 198.617,319.056 199,318.5C 205.493,293.018 215.493,269.018 229,246.5C 232.997,240.538 236.997,234.538 241,228.5C 242.512,227.743 243.846,226.743 245,225.5C 249.182,219.933 253.182,214.267 257,208.5C 266.493,200.17 275.327,191.504 283.5,182.5C 293.218,176.296 302.551,169.462 311.5,162C 318.094,158.205 324.761,154.705 331.5,151.5 Z"/></g>
<g><path style="opacity:0.995" fill="#3252b6" d="M 555.5,352.5 C 553.323,364.853 547.99,375.52 539.5,384.5C 505.193,351.194 470.86,317.861 436.5,284.5C 457.53,281.375 478.197,283.542 498.5,291C 527.449,302.443 546.449,322.943 555.5,352.5 Z"/></g>
<g><path style="opacity:0.995" fill="#3650b8" d="M 436.5,284.5 C 470.86,317.861 505.193,351.194 539.5,384.5C 532.325,394.262 523.325,401.929 512.5,407.5C 478.7,373.867 444.7,340.367 410.5,307C 406.606,303.596 402.606,300.429 398.5,297.5C 410.148,290.395 422.815,286.061 436.5,284.5 Z"/></g>
<g><path style="opacity:1" fill="#5e4dde" d="M 732.5,264.5 C 733.5,265.833 734.5,267.167 735.5,268.5C 737.983,273.444 740.317,278.444 742.5,283.5C 744.507,290.688 747.007,297.688 750,304.5C 752.025,311.068 753.525,317.734 754.5,324.5C 751.286,316.857 748.619,308.857 746.5,300.5C 741.216,288.631 736.549,276.631 732.5,264.5 Z"/></g>
<g><path style="opacity:0.989" fill="#245bb0" d="M 749.5,291.5 C 776.323,303.733 801.323,318.733 824.5,336.5C 828.876,356.879 831.209,377.546 831.5,398.5C 831.666,404.842 831.5,411.175 831,417.5C 808.298,395.297 785.465,373.297 762.5,351.5C 759.953,331.095 755.619,311.095 749.5,291.5 Z"/></g>
<g><path style="opacity:1" fill="#6c3ad9" d="M 283.5,182.5 C 275.327,191.504 266.493,200.17 257,208.5C 253.182,214.267 249.182,219.933 245,225.5C 243.846,226.743 242.512,227.743 241,228.5C 236.997,234.538 232.997,240.538 229,246.5C 215.493,269.018 205.493,293.018 199,318.5C 198.617,319.056 198.117,319.389 197.5,319.5C 209.651,271.019 233.317,229.186 268.5,194C 273.56,190.149 278.56,186.316 283.5,182.5 Z"/></g>
<g><path style="opacity:0.995" fill="#3a4dba" d="M 398.5,297.5 C 402.606,300.429 406.606,303.596 410.5,307C 444.7,340.367 478.7,373.867 512.5,407.5C 499.304,415.342 484.971,420.009 469.5,421.5C 435.86,388.861 402.193,356.194 368.5,323.5C 376.357,312.306 386.357,303.64 398.5,297.5 Z"/></g>
<g><path style="opacity:1" fill="#14aff6" d="M 723.5,274.5 C 724.954,276.437 726.621,278.103 728.5,279.5C 730.5,285.996 733,292.329 736,298.5C 738.333,302.554 740.667,306.554 743,310.5C 749.073,331.622 754.24,352.789 758.5,374C 758.316,375.376 757.649,376.209 756.5,376.5C 754.341,361.87 751.008,347.537 746.5,333.5C 740.613,315.724 733.613,298.391 725.5,281.5C 724.545,279.254 723.878,276.921 723.5,274.5 Z"/></g>
<g><path style="opacity:1" fill="#535ce2" d="M 722.5,252.5 C 723.376,252.369 724.043,252.702 724.5,253.5C 725.67,257.555 728.003,260.555 731.5,262.5C 732.338,262.842 732.672,263.508 732.5,264.5C 736.549,276.631 741.216,288.631 746.5,300.5C 748.619,308.857 751.286,316.857 754.5,324.5C 757.204,339.761 759.537,355.095 761.5,370.5C 761.408,372.258 761.075,373.924 760.5,375.5C 759.539,373.735 759.205,371.735 759.5,369.5C 758.013,348.236 753.847,327.569 747,307.5C 742.584,297.922 738.75,288.089 735.5,278C 729.989,270.146 725.656,261.646 722.5,252.5 Z"/></g>
<g><path style="opacity:1" fill="#5d4cdb" d="M 754.5,324.5 C 755.925,329.407 757.425,334.407 759,339.5C 759.79,348.146 760.79,356.479 762,364.5C 762.497,362.19 762.663,359.857 762.5,357.5C 763.166,364.659 763.5,371.992 763.5,379.5C 763.497,387.198 762.831,394.532 761.5,401.5C 761.745,392.792 761.411,384.126 760.5,375.5C 761.075,373.924 761.408,372.258 761.5,370.5C 759.537,355.095 757.204,339.761 754.5,324.5 Z"/></g>
<g><path style="opacity:0.992" fill="#3f4abc" d="M 368.5,323.5 C 402.193,356.194 435.86,388.861 469.5,421.5C 436.197,425.262 406.531,416.762 380.5,396C 366.792,384.079 358.125,369.246 354.5,351.5C 357.564,341.372 362.231,332.038 368.5,323.5 Z"/></g>
<g><path style="opacity:1" fill="#3e78ea" d="M 767.5,182.5 C 770.298,183.706 772.465,185.706 774,188.5C 796.119,219.802 813.119,253.802 825,290.5C 828.497,303.367 831.997,316.033 835.5,328.5C 846.612,389.167 843.446,449.167 826,508.5C 825.102,511.069 823.935,513.402 822.5,515.5C 848.375,428.442 844.542,342.775 811,258.5C 805.089,247.759 799.756,236.759 795,225.5C 794,223.167 792.333,221.5 790,220.5C 788.613,214.053 785.447,208.719 780.5,204.5C 776.864,196.583 772.531,189.249 767.5,182.5 Z"/></g>
<g><path style="opacity:1" fill="#6939d6" d="M 742.5,283.5 C 745.537,286.06 747.371,289.393 748,293.5C 748.278,292.584 748.778,291.918 749.5,291.5C 755.619,311.095 759.953,331.095 762.5,351.5C 762.5,353.5 762.5,355.5 762.5,357.5C 762.663,359.857 762.497,362.19 762,364.5C 760.79,356.479 759.79,348.146 759,339.5C 757.425,334.407 755.925,329.407 754.5,324.5C 753.525,317.734 752.025,311.068 750,304.5C 747.007,297.688 744.507,290.688 742.5,283.5 Z"/></g>
<g><path style="opacity:1" fill="#515fe3" d="M 209.5,298.5 C 201.716,320.381 196.05,342.715 192.5,365.5C 194.517,343.912 199.017,322.912 206,302.5C 206.498,300.456 207.665,299.122 209.5,298.5 Z"/></g>
<g><path style="opacity:1" fill="#249cf3" d="M 229.5,270.5 C 208.909,310.543 196.243,352.876 191.5,397.5C 191.668,390.49 192.001,383.49 192.5,376.5C 192.5,376.167 192.5,375.833 192.5,375.5C 195.943,347.976 202.943,321.309 213.5,295.5C 216.059,291.388 218.392,287.054 220.5,282.5C 221.5,281.833 222.5,281.167 223.5,280.5C 225.023,276.771 227.023,273.438 229.5,270.5 Z"/></g>
<g><path style="opacity:0.997" fill="#2c56b4" d="M 640.5,329.5 C 700.5,387.5 760.5,445.5 820.5,503.5C 816.835,515.496 813.168,527.496 809.5,539.5C 807.028,545.583 804.361,551.583 801.5,557.5C 743.863,502.53 686.53,447.197 629.5,391.5C 638.124,371.757 641.791,351.09 640.5,329.5 Z"/></g>
<g><path style="opacity:0.981" fill="#235bb0" d="M 847.5,355.5 C 913.127,411.701 958.46,481.368 983.5,564.5C 938.167,520.833 892.833,477.167 847.5,433.5C 847.552,429.802 847.886,426.135 848.5,422.5C 848.606,400.158 848.273,377.825 847.5,355.5 Z"/></g>
<g><path style="opacity:1" fill="#5c4fdf" d="M 519.5,39.5 C 523.154,39.9422 526.821,40.2756 530.5,40.5C 531.167,40.5 531.833,40.5 532.5,40.5C 533.152,41.7251 534.319,42.3917 536,42.5C 541.137,43.3031 546.303,43.6364 551.5,43.5C 557.526,45.9244 563.859,47.5911 570.5,48.5C 576.146,52.0459 582.479,54.0459 589.5,54.5C 592.446,56.4793 595.779,57.4793 599.5,57.5C 599.782,58.7777 600.449,59.7777 601.5,60.5C 595.228,58.632 588.894,56.9653 582.5,55.5C 572.413,51.8891 562.079,48.7225 551.5,46C 497.429,36.1405 443.762,37.8072 390.5,51C 293.395,78.0574 219.229,134.557 168,220.5C 167.197,225.446 164.863,229.446 161,232.5C 152.708,250.945 144.708,269.612 137,288.5C 136.071,296.949 133.738,304.949 130,312.5C 118.165,361.373 115.498,410.706 122,460.5C 123.862,469.376 125.528,478.376 127,487.5C 129.487,497.829 132.654,507.829 136.5,517.5C 146.621,551.79 161.954,583.79 182.5,613.5C 186.761,619.693 190.761,626.026 194.5,632.5C 187.755,623.772 180.922,615.105 174,606.5C 172.846,601.668 170.346,597.668 166.5,594.5C 164.221,590.939 162.221,587.273 160.5,583.5C 160.613,580.951 159.946,578.618 158.5,576.5C 154.225,570.271 150.225,563.938 146.5,557.5C 145.046,549.456 142.046,542.123 137.5,535.5C 136.287,529.64 134.621,523.973 132.5,518.5C 130.239,506.698 127.406,495.031 124,483.5C 122.922,471.278 120.755,459.278 117.5,447.5C 117.167,443 116.833,438.5 116.5,434C 109.936,319.62 146.269,221.954 225.5,141C 307.924,64.0407 405.924,30.2074 519.5,39.5 Z"/></g>
<g><path style="opacity:0.984" fill="#4e41c2" d="M 353.5,509.5 C 314.167,471.833 274.833,434.167 235.5,396.5C 249.513,380.153 264.847,365.153 281.5,351.5C 289.266,397.75 313.099,433.083 353,457.5C 353.5,474.83 353.667,492.163 353.5,509.5 Z"/></g>
<g><path style="opacity:1" fill="#1ca6f6" d="M 239.5,115.5 C 214.007,138.156 191.174,163.156 171,190.5C 109.355,284.488 92.1882,386.155 119.5,495.5C 117.169,491.491 115.336,487.158 114,482.5C 111.776,465.814 109.443,449.147 107,432.5C 103.448,385.456 107.448,339.122 119,293.5C 119.667,292.833 120.333,292.167 121,291.5C 142.407,220.265 181.907,161.598 239.5,115.5 Z"/></g>
<g><path style="opacity:1" fill="#4c68e5" d="M 192.5,376.5 C 192.001,383.49 191.668,390.49 191.5,397.5C 191.5,399.167 191.5,400.833 191.5,402.5C 191.167,402.5 190.833,402.5 190.5,402.5C 190.5,394.833 190.5,387.167 190.5,379.5C 191.167,378.5 191.833,377.5 192.5,376.5 Z"/></g>
<g><path style="opacity:0.998" fill="#3054b6" d="M 629.5,391.5 C 686.53,447.197 743.863,502.53 801.5,557.5C 798.996,565.511 795.662,573.177 791.5,580.5C 733.804,524.136 675.804,468.136 617.5,412.5C 621.753,405.663 625.753,398.663 629.5,391.5 Z"/></g>
<g><path style="opacity:1" fill="#219ff4" d="M 821.5,268.5 C 823.988,271.767 825.821,275.434 827,279.5C 837.171,309.828 843.338,340.828 845.5,372.5C 846.833,392.174 846.667,411.84 845,431.5C 844.802,433.382 844.302,435.048 843.5,436.5C 845.645,399.988 842.978,363.988 835.5,328.5C 834.335,321.181 833.168,313.847 832,306.5C 827.872,293.987 824.372,281.32 821.5,268.5 Z"/></g>
<g><path style="opacity:0.992" fill="#523fc4" d="M 235.5,396.5 C 274.833,434.167 314.167,471.833 353.5,509.5C 353.5,515.167 353.5,520.833 353.5,526.5C 311.807,485.806 270.14,445.139 228.5,404.5C 230.117,401.216 232.45,398.549 235.5,396.5 Z"/></g>
<g><path style="opacity:0.992" fill="#553dc5" d="M 228.5,404.5 C 270.14,445.139 311.807,485.806 353.5,526.5C 353.666,533.841 353.5,541.174 353,548.5C 352.33,551.174 351.163,553.507 349.5,555.5C 304.167,511.167 258.833,466.833 213.5,422.5C 217.776,415.891 222.776,409.891 228.5,404.5 Z"/></g>
<g><path style="opacity:0.998" fill="#3352b7" d="M 617.5,412.5 C 675.804,468.136 733.804,524.136 791.5,580.5C 788.896,585.375 786.562,590.375 784.5,595.5C 783.972,596.847 783.805,598.181 784,599.5C 787.764,594.944 791.264,590.277 794.5,585.5C 796.255,586.072 797.922,586.906 799.5,588C 863.398,651.066 927.731,713.566 992.5,775.5C 990.238,788.885 986.904,801.885 982.5,814.5C 853.471,688.803 724.137,563.47 594.5,438.5C 602.881,430.453 610.548,421.786 617.5,412.5 Z"/></g>
<g><path style="opacity:0.994" fill="#593bc6" d="M 213.5,422.5 C 258.833,466.833 304.167,511.167 349.5,555.5C 347.554,561.004 345.221,566.337 342.5,571.5C 295.836,526.836 249.502,481.836 203.5,436.5C 206.478,431.531 209.811,426.865 213.5,422.5 Z"/></g>
<g><path style="opacity:1" fill="#515fe2" d="M 735.5,148.5 C 738.614,149.091 741.114,150.758 743,153.5C 746.645,159.141 750.978,164.141 756,168.5C 759.624,173.461 763.457,178.127 767.5,182.5C 772.531,189.249 776.864,196.583 780.5,204.5C 785.447,208.719 788.613,214.053 790,220.5C 792.333,221.5 794,223.167 795,225.5C 799.756,236.759 805.089,247.759 811,258.5C 844.542,342.775 848.375,428.442 822.5,515.5C 821.805,519.945 820.638,524.278 819,528.5C 815.184,536.778 811.684,545.111 808.5,553.5C 803.761,563.604 798.427,573.604 792.5,583.5C 789.82,587.537 787.154,591.537 784.5,595.5C 786.562,590.375 788.896,585.375 791.5,580.5C 795.662,573.177 798.996,565.511 801.5,557.5C 804.361,551.583 807.028,545.583 809.5,539.5C 809.435,539.938 809.601,540.272 810,540.5C 810.278,539.584 810.778,538.918 811.5,538.5C 814.775,532.934 817.275,526.934 819,520.5C 836.785,465.24 841.785,408.906 834,351.5C 828.488,317.616 819.322,284.949 806.5,253.5C 801.717,244.657 797.217,235.657 793,226.5C 792,225.833 791,225.167 790,224.5C 788.11,218.953 785.777,213.62 783,208.5C 782,207.833 781,207.167 780,206.5C 776.572,199.971 772.906,193.638 769,187.5C 763.631,182.121 758.964,176.121 755,169.5C 748.511,162.551 742.011,155.551 735.5,148.5 Z"/></g>
<g><path style="opacity:0.996" fill="#2859b2" d="M 847.5,433.5 C 892.833,477.167 938.167,520.833 983.5,564.5C 994.366,602.031 1000.37,640.365 1001.5,679.5C 944.47,623.803 887.137,568.47 829.5,513.5C 838.026,487.397 844.026,460.73 847.5,433.5 Z"/></g>
<g><path style="opacity:0.993" fill="#5c39c8" d="M 203.5,436.5 C 249.502,481.836 295.836,526.836 342.5,571.5C 340.106,577.287 337.44,582.954 334.5,588.5C 287.169,543.169 240.169,497.502 193.5,451.5C 196.092,445.976 199.425,440.976 203.5,436.5 Z"/></g>
<g><path style="opacity:0.998" fill="#3650b8" d="M 594.5,438.5 C 724.137,563.47 853.471,688.803 982.5,814.5C 979.494,826.851 975.494,838.851 970.5,850.5C 969.527,850.013 968.527,849.513 967.5,849C 834.269,718.601 700.602,588.767 566.5,459.5C 576.375,453.301 585.709,446.301 594.5,438.5 Z"/></g>
<g><path style="opacity:0.993" fill="#6036c9" d="M 193.5,451.5 C 240.169,497.502 287.169,543.169 334.5,588.5C 330.552,598.008 326.219,607.342 321.5,616.5C 273.5,570.167 225.5,523.833 177.5,477.5C 182.346,468.463 187.679,459.796 193.5,451.5 Z"/></g>
<g><path style="opacity:0.997" fill="#3b4dba" d="M 566.5,459.5 C 700.602,588.767 834.269,718.601 967.5,849C 968.527,849.513 969.527,850.013 970.5,850.5C 965.286,863.924 959.286,876.924 952.5,889.5C 951.761,889.631 951.094,889.464 950.5,889C 819.602,760.934 688.269,633.434 556.5,506.5C 556.333,492.496 556.5,478.496 557,464.5C 560.141,462.68 563.308,461.014 566.5,459.5 Z"/></g>
<g><path style="opacity:0.993" fill="#6633cb" d="M 177.5,477.5 C 225.5,523.833 273.5,570.167 321.5,616.5C 317.537,626.081 313.203,635.414 308.5,644.5C 260.831,597.498 212.831,550.831 164.5,504.5C 168.029,495.11 172.362,486.11 177.5,477.5 Z"/></g>
<g><path style="opacity:1" fill="#2896f1" d="M 835.5,328.5 C 842.978,363.988 845.645,399.988 843.5,436.5C 840.498,461.045 835.664,485.378 829,509.5C 825.396,517.231 822.396,525.231 820,533.5C 817.212,535.412 815.879,538.079 816,541.5C 813.582,545.647 811.082,549.647 808.5,553.5C 811.684,545.111 815.184,536.778 819,528.5C 820.638,524.278 821.805,519.945 822.5,515.5C 823.935,513.402 825.102,511.069 826,508.5C 843.446,449.167 846.612,389.167 835.5,328.5 Z"/></g>
<g><path style="opacity:0.993" fill="#6a30cd" d="M 164.5,504.5 C 212.831,550.831 260.831,597.498 308.5,644.5C 306.07,650.357 303.403,656.023 300.5,661.5C 252.831,614.498 204.831,567.831 156.5,521.5C 158.411,515.413 161.077,509.747 164.5,504.5 Z"/></g>
<g><path style="opacity:0.993" fill="#6e2ecf" d="M 156.5,521.5 C 204.831,567.831 252.831,614.498 300.5,661.5C 298.554,667.004 296.221,672.337 293.5,677.5C 245.5,631.167 197.5,584.833 149.5,538.5C 151.638,532.753 153.971,527.086 156.5,521.5 Z"/></g>
<g><path style="opacity:0.997" fill="#3f4bbc" d="M 556.5,506.5 C 688.269,633.434 819.602,760.934 950.5,889C 951.094,889.464 951.761,889.631 952.5,889.5C 949.255,896.996 945.255,903.996 940.5,910.5C 812.196,786.863 684.196,662.863 556.5,538.5C 556.5,527.833 556.5,517.167 556.5,506.5 Z"/></g>
<g><path style="opacity:1" fill="#14aff5" d="M 845.5,372.5 C 847.504,387.655 847.837,402.988 846.5,418.5C 846.34,420.355 847.007,421.688 848.5,422.5C 847.886,426.135 847.552,429.802 847.5,433.5C 844.026,460.73 838.026,487.397 829.5,513.5C 823.188,531.124 815.521,548.124 806.5,564.5C 802.753,571.663 798.753,578.663 794.5,585.5C 791.264,590.277 787.764,594.944 784,599.5C 783.805,598.181 783.972,596.847 784.5,595.5C 787.154,591.537 789.82,587.537 792.5,583.5C 794.074,583.063 795.241,582.063 796,580.5C 801.27,571.964 805.436,562.964 808.5,553.5C 811.082,549.647 813.582,545.647 816,541.5C 815.879,538.079 817.212,535.412 820,533.5C 822.396,525.231 825.396,517.231 829,509.5C 835.664,485.378 840.498,461.045 843.5,436.5C 844.302,435.048 844.802,433.382 845,431.5C 846.667,411.84 846.833,392.174 845.5,372.5 Z"/></g>
<g><path style="opacity:0.997" fill="#2c56b4" d="M 829.5,513.5 C 887.137,568.47 944.47,623.803 1001.5,679.5C 1001.46,702.581 1000.13,725.581 997.5,748.5C 939.702,692.536 882.035,636.369 824.5,580C 818.608,574.601 812.608,569.434 806.5,564.5C 815.521,548.124 823.188,531.124 829.5,513.5 Z"/></g>
<g><path style="opacity:0.995" fill="#4249bd" d="M 556.5,538.5 C 684.196,662.863 812.196,786.863 940.5,910.5C 935.665,919.509 930.332,928.176 924.5,936.5C 813.062,828.23 701.729,719.73 590.5,611C 589.906,610.536 589.239,610.369 588.5,610.5C 578.014,588.86 567.514,567.193 557,545.5C 556.503,543.19 556.337,540.857 556.5,538.5 Z"/></g>
<g><path style="opacity:1" fill="#4273e8" d="M 137.5,535.5 C 142.046,542.123 145.046,549.456 146.5,557.5C 144.632,553.094 142.466,548.761 140,544.5C 138.57,541.647 137.737,538.647 137.5,535.5 Z"/></g>
<g><path style="opacity:0.996" fill="#732bd1" d="M 133.5,501.5 C 137.414,515.739 142.247,529.739 148,543.5C 148.608,541.846 149.108,540.179 149.5,538.5C 197.5,584.833 245.5,631.167 293.5,677.5C 289.167,686.833 284.833,696.167 280.5,705.5C 248.172,674.006 215.672,642.673 183,611.5C 182.536,612.094 182.369,612.761 182.5,613.5C 161.954,583.79 146.621,551.79 136.5,517.5C 135.184,512.233 134.184,506.9 133.5,501.5 Z"/></g>
<g><path style="opacity:0.998" fill="#3054b6" d="M 806.5,564.5 C 812.608,569.434 818.608,574.601 824.5,580C 882.035,636.369 939.702,692.536 997.5,748.5C 996.153,757.582 994.487,766.582 992.5,775.5C 927.731,713.566 863.398,651.066 799.5,588C 797.922,586.906 796.255,586.072 794.5,585.5C 798.753,578.663 802.753,571.663 806.5,564.5 Z"/></g>
<g><path style="opacity:1" fill="#4274e8" d="M 146.5,557.5 C 150.225,563.938 154.225,570.271 158.5,576.5C 159.946,578.618 160.613,580.951 160.5,583.5C 159.833,583.167 159.167,582.833 158.5,582.5C 154.243,574.319 150.243,565.986 146.5,557.5 Z"/></g>
<g><path style="opacity:0.993" fill="#7828d3" d="M 142.5,562.5 C 147.332,571.501 152.665,580.168 158.5,588.5C 170.561,607.926 184.561,625.926 200.5,642.5C 201.521,641.998 201.688,641.332 201,640.5C 198.999,637.669 196.833,635.003 194.5,632.5C 190.761,626.026 186.761,619.693 182.5,613.5C 182.369,612.761 182.536,612.094 183,611.5C 215.672,642.673 248.172,674.006 280.5,705.5C 277.072,713.353 273.406,721.02 269.5,728.5C 224.803,683.469 179.469,639.136 133.5,595.5C 135.744,584.182 138.744,573.182 142.5,562.5 Z"/></g>
<g><path style="opacity:1" fill="#2a96f2" d="M 808.5,553.5 C 805.436,562.964 801.27,571.964 796,580.5C 795.241,582.063 794.074,583.063 792.5,583.5C 798.427,573.604 803.761,563.604 808.5,553.5 Z"/></g>
<g><path style="opacity:0.988" fill="#7b26d5" d="M 133.5,595.5 C 179.469,639.136 224.803,683.469 269.5,728.5C 241.982,789.869 213.649,850.869 184.5,911.5C 127.484,812.736 110.484,707.402 133.5,595.5 Z"/></g>
<g><path style="opacity:0.976" fill="#513fc3" d="M 531.5,698.5 C 530.761,698.631 530.094,698.464 529.5,698C 499.631,668.63 469.631,639.464 439.5,610.5C 445.261,593.618 456.261,588.785 472.5,596C 475.273,598.383 477.439,601.217 479,604.5C 496.778,635.726 514.278,667.06 531.5,698.5 Z"/></g>
<g><path style="opacity:0.989" fill="#553dc5" d="M 439.5,610.5 C 469.631,639.464 499.631,668.63 529.5,698C 530.094,698.464 530.761,698.631 531.5,698.5C 539.323,710.804 546.657,723.471 553.5,736.5C 551.795,740.563 549.128,743.896 545.5,746.5C 506.876,707.544 467.543,669.211 427.5,631.5C 430.745,624.004 434.745,617.004 439.5,610.5 Z"/></g>
<g><path style="opacity:0.994" fill="#4646bf" d="M 588.5,610.5 C 589.239,610.369 589.906,610.536 590.5,611C 701.729,719.73 813.062,828.23 924.5,936.5C 916.987,947.524 908.987,958.191 900.5,968.5C 814.398,885.899 728.731,802.733 643.5,719C 642.473,718.487 641.473,717.987 640.5,717.5C 622.928,682.021 605.594,646.354 588.5,610.5 Z"/></g>
<g><path style="opacity:1" fill="#25a2f4" d="M 158.5,582.5 C 159.167,582.833 159.833,583.167 160.5,583.5C 162.221,587.273 164.221,590.939 166.5,594.5C 170.346,597.668 172.846,601.668 174,606.5C 180.922,615.105 187.755,623.772 194.5,632.5C 196.833,635.003 198.999,637.669 201,640.5C 201.688,641.332 201.521,641.998 200.5,642.5C 184.561,625.926 170.561,607.926 158.5,588.5C 158.954,586.741 158.954,584.741 158.5,582.5 Z"/></g>
<g><path style="opacity:0.996" fill="#583bc5" d="M 427.5,631.5 C 467.543,669.211 506.876,707.544 545.5,746.5C 542.68,749.081 539.346,750.914 535.5,752C 485.665,752.832 435.998,752.665 386.5,751.5C 397.167,751.5 407.833,751.5 418.5,751.5C 432.167,751.5 445.833,751.5 459.5,751.5C 473.5,751.5 487.5,751.5 501.5,751.5C 509.84,751.666 518.173,751.5 526.5,751C 490.327,716.327 454.327,681.494 418.5,646.5C 421.263,641.299 424.263,636.299 427.5,631.5 Z"/></g>
<g><path style="opacity:0.995" fill="#5b39c8" d="M 418.5,646.5 C 454.327,681.494 490.327,716.327 526.5,751C 518.173,751.5 509.84,751.666 501.5,751.5C 471.468,721.134 440.801,691.467 409.5,662.5C 412.5,657.167 415.5,651.833 418.5,646.5 Z"/></g>
<g><path style="opacity:0.994" fill="#6036c9" d="M 409.5,662.5 C 440.801,691.467 471.468,721.134 501.5,751.5C 487.5,751.5 473.5,751.5 459.5,751.5C 438.194,730.527 416.86,709.527 395.5,688.5C 400.154,679.86 404.821,671.194 409.5,662.5 Z"/></g>
<g><path style="opacity:0.991" fill="#6533cb" d="M 395.5,688.5 C 416.86,709.527 438.194,730.527 459.5,751.5C 445.833,751.5 432.167,751.5 418.5,751.5C 405.86,739.194 393.193,726.861 380.5,714.5C 385.515,705.798 390.515,697.131 395.5,688.5 Z"/></g>
<g><path style="opacity:0.982" fill="#6b30cd" d="M 380.5,714.5 C 393.193,726.861 405.86,739.194 418.5,751.5C 407.833,751.5 397.167,751.5 386.5,751.5C 378.472,749.475 372.472,744.808 368.5,737.5C 372.232,729.703 376.232,722.036 380.5,714.5 Z"/></g>
<g><path style="opacity:0.993" fill="#4b43c1" d="M 640.5,717.5 C 641.473,717.987 642.473,718.487 643.5,719C 728.731,802.733 814.398,885.899 900.5,968.5C 897.189,973.445 893.189,977.778 888.5,981.5C 812.833,908.167 737.167,834.833 661.5,761.5C 653.991,747.146 646.991,732.479 640.5,717.5 Z"/></g>
<g><path style="opacity:1" fill="#2e3776" d="M 553.5,736.5 C 557.213,751.239 552.213,761.739 538.5,768C 486.833,768.667 435.167,768.667 383.5,768C 370.037,761.908 365.037,751.742 368.5,737.5C 372.472,744.808 378.472,749.475 386.5,751.5C 435.998,752.665 485.665,752.832 535.5,752C 539.346,750.914 542.68,749.081 545.5,746.5C 549.128,743.896 551.795,740.563 553.5,736.5 Z"/></g>
<g><path style="opacity:0.991" fill="#4f41c2" d="M 661.5,761.5 C 737.167,834.833 812.833,908.167 888.5,981.5C 881.201,990.467 873.201,998.8 864.5,1006.5C 811.5,955.167 758.5,903.833 705.5,852.5C 690.597,822.358 675.93,792.025 661.5,761.5 Z"/></g>
<g><path style="opacity:0.994" fill="#7b26d4" d="M 382.5,836.5 C 418.528,872.529 454.862,908.195 491.5,943.5C 429.832,943.667 368.166,943.5 306.5,943C 295.586,939.587 288.586,932.42 285.5,921.5C 296.044,898.745 306.877,876.078 318,853.5C 323.133,844.181 330.966,838.681 341.5,837C 355.163,836.5 368.829,836.333 382.5,836.5 Z"/></g>
<g><path style="opacity:0.993" fill="#7828d3" d="M 382.5,836.5 C 393.5,836.5 404.5,836.5 415.5,836.5C 451.64,872.396 487.974,908.062 524.5,943.5C 513.5,943.5 502.5,943.5 491.5,943.5C 454.862,908.195 418.528,872.529 382.5,836.5 Z"/></g>
<g><path style="opacity:0.993" fill="#722bd0" d="M 415.5,836.5 C 429.167,836.5 442.833,836.5 456.5,836.5C 493.167,872.167 529.833,907.833 566.5,943.5C 552.5,943.5 538.5,943.5 524.5,943.5C 487.974,908.062 451.64,872.396 415.5,836.5 Z"/></g>
<g><path style="opacity:0.993" fill="#6e2ecf" d="M 456.5,836.5 C 464.833,836.5 473.167,836.5 481.5,836.5C 518.167,872.167 554.833,907.833 591.5,943.5C 583.167,943.5 574.833,943.5 566.5,943.5C 529.833,907.833 493.167,872.167 456.5,836.5 Z"/></g>
<g><path style="opacity:0.993" fill="#6a30cd" d="M 481.5,836.5 C 489.833,836.5 498.167,836.5 506.5,836.5C 542.805,871.471 578.805,906.804 614.5,942.5C 606.92,943.466 599.253,943.799 591.5,943.5C 554.833,907.833 518.167,872.167 481.5,836.5 Z"/></g>
<g><path style="opacity:0.992" fill="#6633cb" d="M 506.5,836.5 C 520.5,836.5 534.5,836.5 548.5,836.5C 576.8,864.633 605.3,892.633 634,920.5C 634.464,921.094 634.631,921.761 634.5,922.5C 631.509,932.824 624.843,939.491 614.5,942.5C 578.805,906.804 542.805,871.471 506.5,836.5 Z"/></g>
<g><path style="opacity:0.956" fill="#6136ca" d="M 548.5,836.5 C 558.839,836.334 569.172,836.5 579.5,837C 588.745,838.255 595.912,842.755 601,850.5C 613.061,873.955 624.561,897.621 635.5,921.5C 635.5,922.167 635.167,922.5 634.5,922.5C 634.631,921.761 634.464,921.094 634,920.5C 605.3,892.633 576.8,864.633 548.5,836.5 Z"/></g>
<g><path style="opacity:0.988" fill="#523ec4" d="M 705.5,852.5 C 758.5,903.833 811.5,955.167 864.5,1006.5C 862.12,1009.88 859.12,1012.55 855.5,1014.5C 810.831,970.498 765.831,926.831 720.5,883.5C 714.719,873.603 709.719,863.269 705.5,852.5 Z"/></g>
<g><path style="opacity:0.984" fill="#553dc5" d="M 720.5,883.5 C 765.831,926.831 810.831,970.498 855.5,1014.5C 850.156,1019.84 844.489,1024.84 838.5,1029.5C 809.702,1001.87 781.035,974.036 752.5,946C 751.906,945.536 751.239,945.369 750.5,945.5C 739.991,925.147 729.991,904.48 720.5,883.5 Z"/></g>
<g><path style="opacity:1" fill="#2f3677" d="M 285.5,921.5 C 288.586,932.42 295.586,939.587 306.5,943C 368.166,943.5 429.832,943.667 491.5,943.5C 502.5,943.5 513.5,943.5 524.5,943.5C 538.5,943.5 552.5,943.5 566.5,943.5C 574.833,943.5 583.167,943.5 591.5,943.5C 599.253,943.799 606.92,943.466 614.5,942.5C 624.843,939.491 631.509,932.824 634.5,922.5C 635.167,922.5 635.5,922.167 635.5,921.5C 639.21,935.532 635.21,947.032 623.5,956C 620.052,957.927 616.385,959.261 612.5,960C 511.167,960.667 409.833,960.667 308.5,960C 293.039,956.263 284.706,946.43 283.5,930.5C 283.678,927.263 284.345,924.263 285.5,921.5 Z"/></g>
<g><path style="opacity:0.976" fill="#593ac7" d="M 750.5,945.5 C 751.239,945.369 751.906,945.536 752.5,946C 781.035,974.036 809.702,1001.87 838.5,1029.5C 827.356,1039 815.522,1047.67 803,1055.5C 785.216,1018.93 767.716,982.266 750.5,945.5 Z"/></g>
</svg>
