<?xml version="1.0" encoding="UTF-8"?>
<!DOCTYPE svg PUBLIC "-//W3C//DTD SVG 1.1//EN" "http://www.w3.org/Graphics/SVG/1.1/DTD/svg11.dtd">
<svg xmlns="http://www.w3.org/2000/svg" version="1.1" width="300px" height="300px" style="shape-rendering:geometricPrecision; text-rendering:geometricPrecision; image-rendering:optimizeQuality; fill-rule:evenodd; clip-rule:evenodd" xmlns:xlink="http://www.w3.org/1999/xlink">
<g><path style="opacity:1" fill="#040204" d="M -0.5,-0.5 C 99.5,-0.5 199.5,-0.5 299.5,-0.5C 299.5,99.5 299.5,199.5 299.5,299.5C 199.5,299.5 99.5,299.5 -0.5,299.5C -0.5,199.5 -0.5,99.5 -0.5,-0.5 Z"/></g>
<g><path style="opacity:1" fill="#3e60c0" d="M 120.5,110.5 C 120.5,110.833 120.5,111.167 120.5,111.5C 112.663,89.6652 119.663,74.4985 141.5,66C 147.902,65.1824 154.235,65.5158 160.5,67C 139.078,64.1083 125.244,72.9416 119,93.5C 118.311,99.2753 118.811,104.942 120.5,110.5 Z"/></g>
<g><path style="opacity:1" fill="#365fb7" d="M 138.5,74.5 C 139.552,74.3505 140.552,74.5172 141.5,75C 131.745,79.7682 126.245,87.6015 125,98.5C 124.55,87.7357 129.05,79.7357 138.5,74.5 Z"/></g>
<g><path style="opacity:1" fill="#27306b" d="M 156.5,94.5 C 155.821,90.3238 153.321,87.9905 149,87.5C 145.417,87.9684 142.25,89.3018 139.5,91.5C 142.17,85.0079 146.837,83.1746 153.5,86C 156.762,88.2996 157.762,91.1329 156.5,94.5 Z"/></g>
<g><path style="opacity:1" fill="#364db2" d="M 156.5,94.5 C 155.235,98.5558 152.402,100.556 148,100.5C 142.207,100.204 139.374,97.2043 139.5,91.5C 142.25,89.3018 145.417,87.9684 149,87.5C 153.321,87.9905 155.821,90.3238 156.5,94.5 Z"/></g>
<g><path style="opacity:1" fill="#4f3cbb" d="M 136.5,116.5 C 136.389,115.883 136.056,115.383 135.5,115C 137.007,114.163 137.507,112.996 137,111.5C 133.609,107.33 130.443,103.663 127.5,100.5C 128.396,97.9308 130.062,95.9308 132.5,94.5C 133.69,98.1923 135.857,101.192 139,103.5C 140.156,108.347 139.323,112.68 136.5,116.5 Z"/></g>
<g><path style="opacity:1" fill="#2b5ab4" d="M 195.5,130.5 C 195.439,128.408 194.439,126.908 192.5,126C 194.905,123.968 194.405,122.468 191,121.5C 190.07,123.966 189.237,123.799 188.5,121C 189.62,118.722 188.787,117.222 186,116.5C 185.667,117.167 185.333,117.833 185,118.5C 183.5,117 182,115.5 180.5,114C 180.833,113.667 181.167,113.333 181.5,113C 179.887,112.911 178.72,113.745 178,115.5C 178.416,113.113 177.249,111.28 174.5,110C 174.833,109.667 175.167,109.333 175.5,109C 173.19,107.363 171.69,105.196 171,102.5C 170.667,103.5 170.333,104.5 170,105.5C 169.333,104.167 168.667,102.833 168,101.5C 167.333,100.167 166.667,100.167 166,101.5C 166.148,100.175 165.982,99.0084 165.5,98C 167.742,96.9926 167.408,96.1593 164.5,95.5C 164.937,92.1934 164.27,89.1934 162.5,86.5C 165.238,85.5072 167.905,85.8406 170.5,87.5C 170.833,87.1667 171.167,86.8333 171.5,86.5C 165.273,77.5511 156.606,73.0511 145.5,73C 158.677,70.8376 168.177,75.671 174,87.5C 179.372,93.4398 181.039,92.7731 179,85.5C 176.346,80.3668 172.846,75.8668 168.5,72C 177.152,76.7213 181.986,84.2213 183,94.5C 194.06,104.181 198.226,116.181 195.5,130.5 Z"/></g>
<g><path style="opacity:1" fill="#5e37c7" d="M 127.5,100.5 C 130.443,103.663 133.609,107.33 137,111.5C 137.507,112.996 137.007,114.163 135.5,115C 136.056,115.383 136.389,115.883 136.5,116.5C 136.672,117.492 136.338,118.158 135.5,118.5C 131.288,115.801 127.455,112.468 124,108.5C 124.027,110.417 124.861,112.084 126.5,113.5C 124.887,113.968 123.387,113.301 122,111.5C 121.508,112.549 121.674,113.549 122.5,114.5C 121.452,115.548 120.452,116.548 119.5,117.5C 119.517,115.435 119.85,113.435 120.5,111.5C 120.5,111.167 120.5,110.833 120.5,110.5C 122.341,106.817 124.674,103.484 127.5,100.5 Z"/></g>
<g><path style="opacity:1" fill="#3e4bba" d="M 158.5,103.5 C 158.829,106.032 159.995,107.032 162,106.5C 165.5,110.333 169,114.167 172.5,118C 174.259,118.98 175.926,119.647 177.5,120C 176.465,121.507 176.632,123.007 178,124.5C 178.718,123.549 179.551,123.383 180.5,124C 181.79,126.292 183.457,128.292 185.5,130C 184.66,131.666 185.16,131.833 187,130.5C 189.639,133.45 191.473,136.783 192.5,140.5C 191.921,143.331 190.588,145.664 188.5,147.5C 181.898,141.408 175.065,134.742 168,127.5C 167.283,128.044 166.783,128.711 166.5,129.5C 163.713,123.925 160.879,118.259 158,112.5C 157.195,109.304 157.362,106.304 158.5,103.5 Z"/></g>
<g><path style="opacity:1" fill="#3451b6" d="M 164.5,95.5 C 167.408,96.1593 167.742,96.9926 165.5,98C 165.982,99.0084 166.148,100.175 166,101.5C 166.667,100.167 167.333,100.167 168,101.5C 168.667,102.833 169.333,104.167 170,105.5C 170.333,104.5 170.667,103.5 171,102.5C 171.69,105.196 173.19,107.363 175.5,109C 175.167,109.333 174.833,109.667 174.5,110C 177.249,111.28 178.416,113.113 178,115.5C 178.72,113.745 179.887,112.911 181.5,113C 181.167,113.333 180.833,113.667 180.5,114C 182,115.5 183.5,117 185,118.5C 185.333,117.833 185.667,117.167 186,116.5C 188.787,117.222 189.62,118.722 188.5,121C 189.237,123.799 190.07,123.966 191,121.5C 194.405,122.468 194.905,123.968 192.5,126C 194.439,126.908 195.439,128.408 195.5,130.5C 195.41,134.214 194.41,137.548 192.5,140.5C 191.473,136.783 189.639,133.45 187,130.5C 185.16,131.833 184.66,131.666 185.5,130C 183.457,128.292 181.79,126.292 180.5,124C 179.551,123.383 178.718,123.549 178,124.5C 176.632,123.007 176.465,121.507 177.5,120C 175.926,119.647 174.259,118.98 172.5,118C 169,114.167 165.5,110.333 162,106.5C 159.995,107.032 158.829,106.032 158.5,103.5C 161.449,101.627 163.449,98.9607 164.5,95.5 Z"/></g>
<g><path style="opacity:1" fill="#7427cc" d="M 135.5,118.5 C 132.209,127.082 128.376,135.415 124,143.5C 119.411,135.273 117.911,126.607 119.5,117.5C 120.452,116.548 121.452,115.548 122.5,114.5C 121.674,113.549 121.508,112.549 122,111.5C 123.387,113.301 124.887,113.968 126.5,113.5C 124.861,112.084 124.027,110.417 124,108.5C 127.455,112.468 131.288,115.801 135.5,118.5 Z"/></g>
<g><path style="opacity:1" fill="#5b37c3" d="M 156.5,129.5 C 151.073,129.782 145.74,129.449 140.5,128.5C 142.407,123.452 145.24,119.119 149,115.5C 152.804,119.44 155.304,124.107 156.5,129.5 Z"/></g>
<g><path style="opacity:1" fill="#4c40bf" d="M 188.5,147.5 C 186.072,151.457 182.738,153.957 178.5,155C 174.36,146.554 170.36,138.054 166.5,129.5C 166.783,128.711 167.283,128.044 168,127.5C 175.065,134.742 181.898,141.408 188.5,147.5 Z"/></g>
<g><path style="opacity:1" fill="#2b3576" d="M 140.5,128.5 C 145.74,129.449 151.073,129.782 156.5,129.5C 154.022,130.164 151.355,130.497 148.5,130.5C 145.41,130.478 142.743,129.812 140.5,128.5 Z"/></g>
<g><path style="opacity:1" fill="#6f28c6" d="M 137.5,136.5 C 145.174,136.334 152.841,136.5 160.5,137C 162.533,139.896 163.866,143.063 164.5,146.5C 154.167,146.5 143.833,146.5 133.5,146.5C 133.731,142.707 135.065,139.374 137.5,136.5 Z"/></g>
<g><path style="opacity:1" fill="#424db3" d="M 64.5,170.5 C 71.3914,169.901 78.058,170.735 84.5,173C 91.052,178.855 92.2187,185.689 88,193.5C 86.4422,195.359 84.6089,196.859 82.5,198C 76.5771,199.304 70.5771,199.804 64.5,199.5C 64.5,189.833 64.5,180.167 64.5,170.5 Z"/></g>
<g><path style="opacity:1" fill="#226bb6" d="M 186.5,172.5 C 185.507,180.984 185.174,189.651 185.5,198.5C 190.167,198.5 194.833,198.5 199.5,198.5C 194.695,199.487 189.695,199.821 184.5,199.5C 184.168,190.143 184.502,180.81 185.5,171.5C 186.107,171.624 186.44,171.957 186.5,172.5 Z"/></g>
<g><path style="opacity:1" fill="#2b8bee" d="M 186.5,172.5 C 186.5,180.833 186.5,189.167 186.5,197.5C 191.032,197.182 195.366,197.515 199.5,198.5C 194.833,198.5 190.167,198.5 185.5,198.5C 185.174,189.651 185.507,180.984 186.5,172.5 Z"/></g>
<g><path style="opacity:1" fill="#1b5895" d="M 203.5,172.5 C 202.51,178.645 202.177,184.978 202.5,191.5C 201.182,184.989 201.182,178.322 202.5,171.5C 203.107,171.624 203.44,171.957 203.5,172.5 Z"/></g>
<g><path style="opacity:1" fill="#050308" d="M 70.5,174.5 C 81.54,173.704 86.04,178.704 84,189.5C 82.9243,192.079 81.091,193.746 78.5,194.5C 75.8333,194.5 73.1667,194.5 70.5,194.5C 70.5,187.833 70.5,181.167 70.5,174.5 Z"/></g>
<g><path style="opacity:1" fill="#252960" d="M 111.5,174.5 C 114.5,174.5 117.5,174.5 120.5,174.5C 120.5,182.5 120.5,190.5 120.5,198.5C 121.833,198.5 123.167,198.5 124.5,198.5C 124.263,197.209 124.596,196.209 125.5,195.5C 125.5,196.833 125.5,198.167 125.5,199.5C 123.5,199.5 121.5,199.5 119.5,199.5C 119.5,191.5 119.5,183.5 119.5,175.5C 116.615,175.806 113.948,175.473 111.5,174.5 Z"/></g>
<g><path style="opacity:1" fill="#2678cd" d="M 164.5,171.5 C 170.061,170.802 175.227,171.802 180,174.5C 182.376,185.298 177.876,189.964 166.5,188.5C 166.823,192.226 166.489,195.893 165.5,199.5C 164.502,190.19 164.168,180.857 164.5,171.5 Z"/></g>
<g><path style="opacity:1" fill="#06080e" d="M 166.5,173.5 C 170.273,173.263 173.94,173.763 177.5,175C 180.167,178.333 180.167,181.667 177.5,185C 173.974,186.337 170.308,186.837 166.5,186.5C 166.5,182.167 166.5,177.833 166.5,173.5 Z"/></g>
<g><path style="opacity:1" fill="#2679ce" d="M 231.5,171.5 C 235.384,171.024 238.717,172.024 241.5,174.5C 240.424,175.656 239.424,175.489 238.5,174C 231.022,172.143 228.356,174.81 230.5,182C 232.957,183.562 235.624,184.562 238.5,185C 242.125,187.206 243.292,190.373 242,194.5C 239.103,199.155 234.937,200.655 229.5,199C 228.167,198 226.833,197 225.5,196C 226,195.5 226.5,195 227,194.5C 231.406,198.423 235.739,198.423 240,194.5C 240.687,192.432 240.52,190.432 239.5,188.5C 235.515,186.783 231.682,184.783 228,182.5C 226.518,177.774 227.685,174.107 231.5,171.5 Z"/></g>
<g><path style="opacity:1" fill="#414bb0" d="M 140.5,170.5 C 142.604,170.201 144.604,170.534 146.5,171.5C 149.971,180.58 153.638,189.58 157.5,198.5C 152.881,200.242 150.214,198.576 149.5,193.5C 145.217,192.508 140.884,192.174 136.5,192.5C 136.982,197.813 134.649,200.146 129.5,199.5C 132.885,189.729 136.552,180.063 140.5,170.5 Z"/></g>
<g><path style="opacity:1" fill="#090711" d="M 142.5,176.5 C 144.725,179.812 146.392,183.478 147.5,187.5C 144.554,188.655 141.554,188.821 138.5,188C 140.53,184.411 141.863,180.578 142.5,176.5 Z"/></g>
<g><path style="opacity:1" fill="#2f3275" d="M 70.5,174.5 C 70.5,181.167 70.5,187.833 70.5,194.5C 73.1667,194.5 75.8333,194.5 78.5,194.5C 75.7131,195.477 72.7131,195.81 69.5,195.5C 69.1755,188.313 69.5088,181.313 70.5,174.5 Z"/></g>
<g><path style="opacity:1" fill="#404aac" d="M 99.5,170.5 C 101.604,170.201 103.604,170.534 105.5,171.5C 108.971,180.58 112.638,189.58 116.5,198.5C 111.721,200.342 109.054,198.676 108.5,193.5C 104.217,192.508 99.8839,192.174 95.5,192.5C 95.9825,197.813 93.6491,200.146 88.5,199.5C 91.5755,189.607 95.2422,179.94 99.5,170.5 Z"/></g>
<g><path style="opacity:1" fill="#0b0814" d="M 101.5,176.5 C 103.725,179.812 105.392,183.478 106.5,187.5C 103.5,188.833 100.5,188.833 97.5,187.5C 99.2342,183.963 100.568,180.296 101.5,176.5 Z"/></g>
<g><path style="opacity:1" fill="#444eb7" d="M 125.5,195.5 C 124.596,196.209 124.263,197.209 124.5,198.5C 123.167,198.5 121.833,198.5 120.5,198.5C 120.5,190.5 120.5,182.5 120.5,174.5C 117.5,174.5 114.5,174.5 111.5,174.5C 111.5,173.167 111.5,171.833 111.5,170.5C 119.167,170.5 126.833,170.5 134.5,170.5C 134.5,171.833 134.5,173.167 134.5,174.5C 131.5,174.5 128.5,174.5 125.5,174.5C 125.5,181.5 125.5,188.5 125.5,195.5 Z"/></g>
<g><path style="opacity:1" fill="#2982dd" d="M 202.5,191.5 C 202.177,184.978 202.51,178.645 203.5,172.5C 203.334,178.842 203.5,185.175 204,191.5C 206.884,197.543 211.384,199.043 217.5,196C 218.701,195.097 219.535,193.931 220,192.5C 220.169,185.476 220.669,178.476 221.5,171.5C 222.665,178.811 222.831,186.144 222,193.5C 218.194,199.386 213.028,200.886 206.5,198C 204.266,196.362 202.933,194.195 202.5,191.5 Z"/></g>
<g><path style="opacity:1" fill="#293070" d="M 64.5,205.5 C 65.7479,206.334 66.4146,207.667 66.5,209.5C 66.1667,210.833 65.8333,212.167 65.5,213.5C 64.52,210.914 64.1866,208.247 64.5,205.5 Z"/></g>
<g><path style="opacity:1" fill="#23285f" d="M 194.5,205.5 C 195.748,206.334 196.415,207.667 196.5,209.5C 196.167,210.833 195.833,212.167 195.5,213.5C 194.52,210.914 194.187,208.247 194.5,205.5 Z"/></g>
<g><path style="opacity:1" fill="#353d90" d="M 77.5,206.5 C 80.6201,207.695 80.9534,209.195 78.5,211C 80.5117,212.152 80.6783,213.318 79,214.5C 77.1814,211.928 76.6814,209.262 77.5,206.5 Z"/></g>
<g><path style="opacity:1" fill="#2a2f6f" d="M 103.5,208.5 C 109.344,208.98 109.678,210.147 104.5,212C 105.833,212.333 107.167,212.667 108.5,213C 106.522,215.015 104.688,214.848 103,212.5C 102.421,211.072 102.588,209.738 103.5,208.5 Z"/></g>
<g><path style="opacity:1" fill="#2c3172" d="M 190.5,205.5 C 192.369,207.635 193.036,210.302 192.5,213.5C 191.178,213.33 190.011,213.663 189,214.5C 185.8,212.253 185.8,209.92 189,207.5C 189.333,207.833 189.667,208.167 190,208.5C 190.483,207.552 190.649,206.552 190.5,205.5 Z"/></g>
<g><path style="opacity:1" fill="#3b439e" d="M 210.5,205.5 C 212.836,207.004 214.669,209.004 216,211.5C 216.333,209.5 216.667,207.5 217,205.5C 218.329,214.286 216.663,215.286 212,208.5C 211.667,210.167 211.333,211.833 211,213.5C 210.503,210.854 210.336,208.187 210.5,205.5 Z"/></g>
<g><path style="opacity:1" fill="#333c8b" d="M 229.5,207.5 C 231.338,207.977 233.172,208.31 235,208.5C 235.667,210.167 235.667,211.833 235,213.5C 234.091,208.27 232.925,208.27 231.5,213.5C 230.075,208.27 228.909,208.27 228,213.5C 227.257,211.126 227.757,209.126 229.5,207.5 Z"/></g>
<g><path style="opacity:1" fill="#333a88" d="M 69.5,208.5 C 71.1667,208.5 72.8333,208.5 74.5,208.5C 74.4019,214.373 73.4019,214.706 71.5,209.5C 70.0133,214.657 69.3466,214.324 69.5,208.5 Z"/></g>
<g><path style="opacity:1" fill="#303781" d="M 137.5,205.5 C 143.501,205.741 144.834,208.241 141.5,213C 134.17,213.486 132.837,210.986 137.5,205.5 Z"/></g>
<g><path style="opacity:1" fill="#040308" d="M 136.5,207.5 C 138.167,207.5 139.833,207.5 141.5,207.5C 142.169,211.676 140.669,213.009 137,211.5C 136.51,210.207 136.343,208.873 136.5,207.5 Z"/></g>
<g><path style="opacity:1" fill="#3d46a4" d="M 145.5,208.5 C 146.234,209.878 146.901,211.378 147.5,213C 147.167,213.167 146.833,213.333 146.5,213.5C 145.548,211.955 145.215,210.288 145.5,208.5 Z"/></g>
<g><path style="opacity:1" fill="#404bae" d="M 153.5,208.5 C 154.552,208.351 155.552,208.517 156.5,209C 155.033,210.098 154.199,211.598 154,213.5C 153.506,211.866 153.34,210.199 153.5,208.5 Z"/></g>
<g><path style="opacity:1" fill="#373f97" d="M 166.5,210.5 C 165.883,210.389 165.383,210.056 165,209.5C 164.667,210.833 164.333,212.167 164,213.5C 163.333,210.833 163.333,208.167 164,205.5C 165.372,206.91 166.205,208.577 166.5,210.5 Z"/></g>
<g><path style="opacity:1" fill="#2f357d" d="M 166.5,210.5 C 168.373,209.137 170.039,207.47 171.5,205.5C 172.833,208.167 172.833,210.833 171.5,213.5C 170.719,212.271 170.219,210.938 170,209.5C 168.982,212.642 167.815,212.976 166.5,210.5 Z"/></g>
<g><path style="opacity:1" fill="#2b306f" d="M 182.5,205.5 C 184.369,207.635 185.036,210.302 184.5,213.5C 181.49,215.353 179.49,214.52 178.5,211C 179.707,208.977 181.04,207.144 182.5,205.5 Z"/></g>
<g><path style="opacity:1" fill="#2a3071" d="M 238.5,208.5 C 244.344,208.98 244.678,210.147 239.5,212C 240.833,212.333 242.167,212.667 243.5,213C 241.522,215.015 239.688,214.848 238,212.5C 237.421,211.072 237.588,209.738 238.5,208.5 Z"/></g>
<g><path style="opacity:1" fill="#2c3173" d="M 84.5,207.5 C 86.5323,208.048 87.5323,209.381 87.5,211.5C 82.2063,211.682 82.2063,212.182 87.5,213C 84.9924,214.922 83.3258,214.256 82.5,211C 82.8618,209.566 83.5285,208.399 84.5,207.5 Z"/></g>
<g><path style="opacity:1" fill="#2d3378" d="M 89.5,208.5 C 90.8734,208.343 92.2068,208.51 93.5,209C 92.1414,210.204 91.1414,211.704 90.5,213.5C 89.5481,211.955 89.2148,210.288 89.5,208.5 Z"/></g>
<g><path style="opacity:1" fill="#282e6a" d="M 97.5,207.5 C 98.4959,207.414 99.3292,207.748 100,208.5C 100.667,210.167 100.667,211.833 100,213.5C 99.0914,208.27 97.9247,208.27 96.5,213.5C 95.2291,211.194 95.5624,209.194 97.5,207.5 Z"/></g>
<g><path style="opacity:1" fill="#2e367d" d="M 110.5,206.5 C 113.838,208.047 114.171,210.381 111.5,213.5C 110.526,211.257 110.192,208.924 110.5,206.5 Z"/></g>
<g><path style="opacity:1" fill="#22275c" d="M 174.5,205.5 C 175.748,206.334 176.415,207.667 176.5,209.5C 176.167,210.833 175.833,212.167 175.5,213.5C 174.52,210.914 174.187,208.247 174.5,205.5 Z"/></g>
<g><path style="opacity:1" fill="#414cb1" d="M 149.5,208.5 C 150.788,210.035 150.788,211.701 149.5,213.5C 149.193,212.113 149.193,210.446 149.5,208.5 Z"/></g>
<g><path style="opacity:1" fill="#2e3379" d="M 198.5,208.5 C 200.167,208.5 201.833,208.5 203.5,208.5C 203.5,209.5 203.5,210.5 203.5,211.5C 198.206,211.682 198.206,212.182 203.5,213C 202.351,214.744 201.017,214.911 199.5,213.5C 198.548,211.955 198.215,210.288 198.5,208.5 Z"/></g>
<g><path style="opacity:1" fill="#363e90" d="M 221.5,207.5 C 222.496,207.414 223.329,207.748 224,208.5C 224.667,210.167 224.667,211.833 224,213.5C 222.983,210.972 221.816,210.972 220.5,213.5C 220.167,213.167 219.833,212.833 219.5,212.5C 220.381,211.029 221.714,210.196 223.5,210C 221.065,209.925 220.398,209.092 221.5,207.5 Z"/></g>
<g><path style="opacity:1" fill="#282c6a" d="M 125.5,211.5 C 126.209,210.596 127.209,210.263 128.5,210.5C 128.642,214.223 127.309,215.056 124.5,213C 125.5,212.667 126.5,212.333 127.5,212C 126.906,211.536 126.239,211.369 125.5,211.5 Z"/></g>
</svg>
