<?xml version="1.0" encoding="UTF-8"?>
<!DOCTYPE svg PUBLIC "-//W3C//DTD SVG 1.1//EN" "http://www.w3.org/Graphics/SVG/1.1/DTD/svg11.dtd">
<svg xmlns="http://www.w3.org/2000/svg" version="1.1" width="512px" height="512px" style="shape-rendering:geometricPrecision; text-rendering:geometricPrecision; image-rendering:optimizeQuality; fill-rule:evenodd; clip-rule:evenodd" xmlns:xlink="http://www.w3.org/1999/xlink">
<g><path style="opacity:1" fill="#26a5f5" d="M 245.5,105.5 C 253.219,105.932 260.553,107.599 267.5,110.5C 265.833,110.5 264.167,110.5 262.5,110.5C 257.894,108.124 252.894,107.124 247.5,107.5C 246.833,106.833 246.167,106.167 245.5,105.5 Z"/></g>
<g><path style="opacity:1" fill="#6449dd" d="M 247.5,107.5 C 252.894,107.124 257.894,108.124 262.5,110.5C 257.304,109.861 252.304,108.861 247.5,107.5 Z"/></g>
<g><path style="opacity:1" fill="#5f53df" d="M 245.5,105.5 C 246.167,106.167 246.833,106.833 247.5,107.5C 225.112,106.063 204.112,110.73 184.5,121.5C 181.892,121.4 179.558,122.067 177.5,123.5C 179.131,121.357 181.131,119.69 183.5,118.5C 202.84,108.298 223.506,103.965 245.5,105.5 Z"/></g>
<g><path style="opacity:1" fill="#5667e4" d="M 262.5,110.5 C 264.167,110.5 265.833,110.5 267.5,110.5C 267.833,111.167 268.167,111.833 268.5,112.5C 266.214,112.405 264.214,111.738 262.5,110.5 Z"/></g>
<g><path style="opacity:1" fill="#20a6f5" d="M 245.5,105.5 C 223.506,103.965 202.84,108.298 183.5,118.5C 181.784,118.629 180.117,118.962 178.5,119.5C 199.033,106.139 221.366,101.472 245.5,105.5 Z"/></g>
<g><path style="opacity:1" fill="#714be0" d="M 268.5,112.5 C 271.542,112.733 274.208,113.733 276.5,115.5C 273.458,115.267 270.792,114.267 268.5,112.5 Z"/></g>
<g><path style="opacity:0.969" fill="#6646df" d="M 276.5,115.5 C 279.992,116.41 282.992,118.076 285.5,120.5C 282.008,119.59 279.008,117.924 276.5,115.5 Z"/></g>
<g><path style="opacity:1" fill="#624add" d="M 285.5,120.5 C 288.198,120.845 290.198,122.178 291.5,124.5C 289.147,123.66 287.147,122.326 285.5,120.5 Z"/></g>
<g><path style="opacity:1" fill="#604fde" d="M 291.5,124.5 C 321.827,144.311 336.827,172.478 336.5,209C 336.333,214.167 336.167,219.333 336,224.5C 334.775,231.265 333.275,237.932 331.5,244.5C 330.167,246.5 328.833,248.5 327.5,250.5C 328.707,246.214 329.707,241.88 330.5,237.5C 334.963,222.134 335.63,206.467 332.5,190.5C 332.5,189.833 332.167,189.5 331.5,189.5C 326.042,162.904 312.709,141.237 291.5,124.5 Z"/></g>
<g><path style="opacity:1" fill="#13b2f8" d="M 178.5,119.5 C 166.204,128.796 155.204,139.462 145.5,151.5C 151.479,142.007 158.812,133.507 167.5,126C 171.071,123.579 174.738,121.413 178.5,119.5 Z"/></g>
<g><path style="opacity:1" fill="#299ef3" d="M 274.5,137.5 C 281.085,143.481 287.751,149.481 294.5,155.5C 295.794,156.29 296.961,157.29 298,158.5C 301.856,165.076 305.523,171.742 309,178.5C 311.329,184.646 312.829,190.979 313.5,197.5C 314.492,200.779 314.659,204.112 314,207.5C 312.571,195.717 309.071,184.717 303.5,174.5C 303.5,173.833 303.167,173.5 302.5,173.5C 289.4,149.943 269.4,135.776 242.5,131C 232.811,130.307 223.144,130.473 213.5,131.5C 215.877,130.113 218.543,129.279 221.5,129C 234.678,127.856 247.678,128.856 260.5,132C 264.943,134.534 269.61,136.367 274.5,137.5 Z"/></g>
<g><path style="opacity:1" fill="#5063e4" d="M 274.5,137.5 C 283.222,141.198 289.888,147.198 294.5,155.5C 287.751,149.481 281.085,143.481 274.5,137.5 Z"/></g>
<g><path style="opacity:1" fill="#2d91f0" d="M 183.5,118.5 C 181.131,119.69 179.131,121.357 177.5,123.5C 175.973,123.427 174.973,124.094 174.5,125.5C 166.965,130.524 160.132,136.524 154,143.5C 149.001,150.162 144.501,157.162 140.5,164.5C 142.143,160.179 143.809,155.846 145.5,151.5C 155.204,139.462 166.204,128.796 178.5,119.5C 180.117,118.962 181.784,118.629 183.5,118.5 Z"/></g>
<g><path style="opacity:0.898" fill="#1caef8" d="M 213.5,131.5 C 204.838,134.332 196.838,138.498 189.5,144C 182.233,150.762 175.566,157.928 169.5,165.5C 169.608,163.217 170.441,161.217 172,159.5C 176.965,154.606 181.798,149.606 186.5,144.5C 188.401,142.204 190.734,140.371 193.5,139C 197.925,136.787 202.259,134.621 206.5,132.5C 208.806,132.007 211.139,131.674 213.5,131.5 Z"/></g>
<g><path style="opacity:1" fill="#525fe3" d="M 174.5,125.5 C 167.869,131.631 161.369,137.964 155,144.5C 149.139,154.896 143.306,165.229 137.5,175.5C 137.892,171.658 138.892,167.991 140.5,164.5C 144.501,157.162 149.001,150.162 154,143.5C 160.132,136.524 166.965,130.524 174.5,125.5 Z"/></g>
<g><path style="opacity:0.989" fill="#2e3775" d="M 256.5,194.5 C 248.919,178.228 236.252,172.395 218.5,177C 216.509,177.374 214.842,178.207 213.5,179.5C 206.739,182.592 202.073,187.592 199.5,194.5C 199.805,176.03 209.305,166.696 228,166.5C 244.609,166.283 254.442,174.283 257.5,190.5C 257.489,192.045 257.156,193.378 256.5,194.5 Z"/></g>
<g><path style="opacity:0.998" fill="#2759b2" d="M 302.5,173.5 C 303.167,173.5 303.5,173.833 303.5,174.5C 309.071,184.717 312.571,195.717 314,207.5C 314.659,204.112 314.492,200.779 313.5,197.5C 314.156,196.378 314.489,195.045 314.5,193.5C 313.881,188.405 312.881,183.405 311.5,178.5C 318.657,181.336 325.324,185.002 331.5,189.5C 332.167,189.5 332.5,189.833 332.5,190.5C 335.63,206.467 334.963,222.134 330.5,237.5C 314.163,221.163 297.497,205.163 280.5,189.5C 279.192,181.055 275.859,173.555 270.5,167C 281.374,167.883 292.041,170.05 302.5,173.5 Z"/></g>
<g><path style="opacity:1" fill="#644add" d="M 206.5,132.5 C 202.259,134.621 197.925,136.787 193.5,139C 190.734,140.371 188.401,142.204 186.5,144.5C 165.98,159.075 155.313,179.075 154.5,204.5C 151.476,184.615 159.476,165.448 178.5,147C 186.861,140.319 196.195,135.486 206.5,132.5 Z"/></g>
<g><path style="opacity:1" fill="#2d98f2" d="M 186.5,144.5 C 181.798,149.606 176.965,154.606 172,159.5C 170.441,161.217 169.608,163.217 169.5,165.5C 161.961,177.569 156.961,190.569 154.5,204.5C 155.313,179.075 165.98,159.075 186.5,144.5 Z"/></g>
<g><path style="opacity:0.996" fill="#3451b7" d="M 256.5,194.5 C 255.191,201.814 251.191,207.147 244.5,210.5C 233.86,200.527 223.527,190.194 213.5,179.5C 214.842,178.207 216.509,177.374 218.5,177C 236.252,172.395 248.919,178.228 256.5,194.5 Z"/></g>
<g><path style="opacity:1" fill="#23a3f4" d="M 267.5,110.5 C 308.251,124.582 331.917,152.916 338.5,195.5C 340.365,210.913 338.698,225.913 333.5,240.5C 333.34,242.153 332.674,243.486 331.5,244.5C 333.275,237.932 334.775,231.265 336,224.5C 336.167,219.333 336.333,214.167 336.5,209C 336.827,172.478 321.827,144.311 291.5,124.5C 290.198,122.178 288.198,120.845 285.5,120.5C 282.992,118.076 279.992,116.41 276.5,115.5C 274.208,113.733 271.542,112.733 268.5,112.5C 268.167,111.833 267.833,111.167 267.5,110.5 Z"/></g>
<g><path style="opacity:0.996" fill="#3c4cbb" d="M 213.5,179.5 C 223.527,190.194 233.86,200.527 244.5,210.5C 235.62,214.751 226.286,215.584 216.5,213C 207.488,209.825 201.822,203.658 199.5,194.5C 202.073,187.592 206.739,182.592 213.5,179.5 Z"/></g>
<g><path style="opacity:1" fill="#6448dc" d="M 311.5,178.5 C 312.881,183.405 313.881,188.405 314.5,193.5C 314.489,195.045 314.156,196.378 313.5,197.5C 312.829,190.979 311.329,184.646 309,178.5C 305.523,171.742 301.856,165.076 298,158.5C 296.961,157.29 295.794,156.29 294.5,155.5C 289.888,147.198 283.222,141.198 274.5,137.5C 269.61,136.367 264.943,134.534 260.5,132C 247.678,128.856 234.678,127.856 221.5,129C 218.543,129.279 215.877,130.113 213.5,131.5C 211.139,131.674 208.806,132.007 206.5,132.5C 239.081,120.458 268.247,126.125 294,149.5C 301.869,157.898 307.702,167.565 311.5,178.5 Z"/></g>
<g><path style="opacity:1" fill="#20a7f5" d="M 145.5,151.5 C 143.809,155.846 142.143,160.179 140.5,164.5C 138.892,167.991 137.892,171.658 137.5,175.5C 134.756,181.797 132.923,188.464 132,195.5C 131.333,205.833 131.333,216.167 132,226.5C 132.698,229.004 133.531,231.337 134.5,233.5C 136.508,240.208 138.508,246.875 140.5,253.5C 140.167,253.5 139.833,253.5 139.5,253.5C 125.053,222.995 124.886,192.328 139,161.5C 140.929,157.964 143.096,154.631 145.5,151.5 Z"/></g>
<g><path style="opacity:0.998" fill="#2c56b4" d="M 280.5,189.5 C 297.497,205.163 314.163,221.163 330.5,237.5C 329.707,241.88 328.707,246.214 327.5,250.5C 326.788,251.739 325.788,252.239 324.5,252C 309.269,236.267 293.602,221.1 277.5,206.5C 279.399,201.006 280.399,195.339 280.5,189.5 Z"/></g>
<g><path style="opacity:0.998" fill="#523ec3" d="M 198.5,251.5 C 185.198,239.865 172.531,227.532 160.5,214.5C 166.093,207.403 172.26,200.736 179,194.5C 181.672,207.181 188.339,217.181 199,224.5C 199.824,233.676 199.657,242.676 198.5,251.5 Z"/></g>
<g><path style="opacity:1" fill="#4b6be6" d="M 137.5,175.5 C 133.475,194.656 132.475,213.989 134.5,233.5C 133.531,231.337 132.698,229.004 132,226.5C 131.333,216.167 131.333,205.833 132,195.5C 132.923,188.464 134.756,181.797 137.5,175.5 Z"/></g>
<g><path style="opacity:0.999" fill="#3253b7" d="M 277.5,206.5 C 293.602,221.1 309.269,236.267 324.5,252C 325.788,252.239 326.788,251.739 327.5,250.5C 327.579,251.93 327.246,253.264 326.5,254.5C 344.904,271.573 362.904,288.907 380.5,306.5C 380.272,312.639 379.272,318.639 377.5,324.5C 359.755,308.927 342.422,292.761 325.5,276C 306.972,257.138 288.138,238.638 269,220.5C 268.536,219.906 268.369,219.239 268.5,218.5C 271.998,214.819 274.998,210.819 277.5,206.5 Z"/></g>
<g><path style="opacity:0.998" fill="#2759b2" d="M 338.5,195.5 C 365.346,218.976 380.012,248.643 382.5,284.5C 381.778,284.918 381.278,285.584 381,286.5C 365.602,270.6 349.769,255.267 333.5,240.5C 338.698,225.913 340.365,210.913 338.5,195.5 Z"/></g>
<g><path style="opacity:0.998" fill="#3650b8" d="M 268.5,218.5 C 268.369,219.239 268.536,219.906 269,220.5C 288.138,238.638 306.972,257.138 325.5,276C 342.422,292.761 359.755,308.927 377.5,324.5C 376.167,328.167 374.833,331.833 373.5,335.5C 335.777,298.442 297.777,261.775 259.5,225.5C 262.28,222.936 265.28,220.603 268.5,218.5 Z"/></g>
<g><path style="opacity:0.997" fill="#5b3ac7" d="M 160.5,214.5 C 172.531,227.532 185.198,239.865 198.5,251.5C 197.397,255.497 195.731,259.164 193.5,262.5C 193.631,261.761 193.464,261.094 193,260.5C 180.601,247.599 167.768,235.266 154.5,223.5C 155.759,219.975 157.759,216.975 160.5,214.5 Z"/></g>
<g><path style="opacity:0.997" fill="#3b4dba" d="M 259.5,225.5 C 297.777,261.775 335.777,298.442 373.5,335.5C 372.01,339.813 370.01,343.813 367.5,347.5C 361.094,339.589 354.094,332.089 346.5,325C 316.328,296.327 286.328,267.494 256.5,238.5C 256.334,234.486 256.501,230.486 257,226.5C 257.671,225.748 258.504,225.414 259.5,225.5 Z"/></g>
<g><path style="opacity:0.997" fill="#6434cb" d="M 154.5,223.5 C 167.768,235.266 180.601,247.599 193,260.5C 193.464,261.094 193.631,261.761 193.5,262.5C 191.694,267.254 189.694,271.92 187.5,276.5C 186.761,276.631 186.094,276.464 185.5,276C 172.424,263.151 159.424,250.318 146.5,237.5C 148.145,232.206 150.811,227.539 154.5,223.5 Z"/></g>
<g><path style="opacity:0.997" fill="#6e32d1" d="M 184.5,121.5 C 146.697,147.121 130.531,182.787 136,228.5C 137.061,235.081 138.894,241.414 141.5,247.5C 143.197,244.106 144.864,240.773 146.5,237.5C 159.424,250.318 172.424,263.151 185.5,276C 186.094,276.464 186.761,276.631 187.5,276.5C 184.64,282.412 181.974,288.412 179.5,294.5C 170.568,287.071 162.068,279.071 154,270.5C 154,271.833 154,273.167 154,274.5C 152.519,273.529 151.685,272.196 151.5,270.5C 151.262,268.596 150.262,267.262 148.5,266.5C 146.527,262.553 144.527,258.553 142.5,254.5C 142.043,253.702 141.376,253.369 140.5,253.5C 138.508,246.875 136.508,240.208 134.5,233.5C 132.475,213.989 133.475,194.656 137.5,175.5C 143.306,165.229 149.139,154.896 155,144.5C 161.369,137.964 167.869,131.631 174.5,125.5C 174.973,124.094 175.973,123.427 177.5,123.5C 179.558,122.067 181.892,121.4 184.5,121.5 Z"/></g>
<g><path style="opacity:0.998" fill="#3e4bbc" d="M 256.5,238.5 C 286.328,267.494 316.328,296.327 346.5,325C 354.094,332.089 361.094,339.589 367.5,347.5C 367.25,349.674 366.25,351.341 364.5,352.5C 335.7,323.867 306.7,295.367 277.5,267C 270.698,261.199 264.198,255.032 258,248.5C 257.601,248.728 257.435,249.062 257.5,249.5C 256.518,246.038 256.185,242.371 256.5,238.5 Z"/></g>
<g><path style="opacity:0.995" fill="#2d57b5" d="M 333.5,240.5 C 349.769,255.267 365.602,270.6 381,286.5C 381.278,285.584 381.778,284.918 382.5,284.5C 382.69,292.056 382.023,299.389 380.5,306.5C 362.904,288.907 344.904,271.573 326.5,254.5C 327.246,253.264 327.579,251.93 327.5,250.5C 328.833,248.5 330.167,246.5 331.5,244.5C 332.674,243.486 333.34,242.153 333.5,240.5 Z"/></g>
<g><path style="opacity:0.998" fill="#4249bd" d="M 364.5,352.5 C 363.921,355.331 362.588,357.664 360.5,359.5C 329.167,329.167 297.833,298.833 266.5,268.5C 262.696,262.557 259.696,256.224 257.5,249.5C 257.435,249.062 257.601,248.728 258,248.5C 264.198,255.032 270.698,261.199 277.5,267C 306.7,295.367 335.7,323.867 364.5,352.5 Z"/></g>
<g><path style="opacity:1" fill="#2c99f2" d="M 140.5,253.5 C 141.376,253.369 142.043,253.702 142.5,254.5C 144.527,258.553 146.527,262.553 148.5,266.5C 145.048,262.701 142.382,258.368 140.5,253.5 Z"/></g>
<g><path style="opacity:0.995" fill="#7b26d4" d="M 139.5,253.5 C 139.833,253.5 140.167,253.5 140.5,253.5C 142.382,258.368 145.048,262.701 148.5,266.5C 148.738,268.404 149.738,269.738 151.5,270.5C 151.685,272.196 152.519,273.529 154,274.5C 154,273.167 154,271.833 154,270.5C 162.068,279.071 170.568,287.071 179.5,294.5C 170.584,313.393 161.75,332.393 153,351.5C 152.333,352.833 151.667,352.833 151,351.5C 134.365,320.346 130.531,287.679 139.5,253.5 Z"/></g>
<g><path style="opacity:1" fill="#3291f0" d="M 148.5,266.5 C 150.262,267.262 151.262,268.596 151.5,270.5C 149.738,269.738 148.738,268.404 148.5,266.5 Z"/></g>
<g><path style="opacity:0.993" fill="#563cc5" d="M 255.5,303.5 C 254.71,304.794 253.71,305.961 252.5,307C 248.514,307.499 244.514,307.666 240.5,307.5C 232.5,298.833 224.167,290.5 215.5,282.5C 218.876,275.574 222.876,269.074 227.5,263C 229.167,262.333 230.833,262.333 232.5,263C 241.076,275.986 248.743,289.486 255.5,303.5 Z"/></g>
<g><path style="opacity:0.997" fill="#4646bf" d="M 266.5,268.5 C 297.833,298.833 329.167,329.167 360.5,359.5C 358.518,362.81 356.185,365.81 353.5,368.5C 329.474,345.472 305.474,322.472 281.5,299.5C 275.735,289.634 270.735,279.3 266.5,268.5 Z"/></g>
<g><path style="opacity:0.997" fill="#6235ca" d="M 215.5,282.5 C 224.167,290.5 232.5,298.833 240.5,307.5C 229.495,307.667 218.495,307.5 207.5,307C 205.65,306.31 204.316,305.144 203.5,303.5C 207.262,296.302 211.262,289.302 215.5,282.5 Z"/></g>
<g><path style="opacity:1" fill="#2e3675" d="M 203.5,303.5 C 204.316,305.144 205.65,306.31 207.5,307C 218.495,307.5 229.495,307.667 240.5,307.5C 244.514,307.666 248.514,307.499 252.5,307C 253.71,305.961 254.71,304.794 255.5,303.5C 256.762,306.867 255.762,309.7 252.5,312C 237.5,312.667 222.5,312.667 207.5,312C 204.179,310.188 202.845,307.355 203.5,303.5 Z"/></g>
<g><path style="opacity:0.991" fill="#4d42c2" d="M 281.5,299.5 C 305.474,322.472 329.474,345.472 353.5,368.5C 350.858,372.775 347.525,376.442 343.5,379.5C 329.163,365.163 314.496,351.163 299.5,337.5C 292.94,325.049 286.94,312.383 281.5,299.5 Z"/></g>
<g><path style="opacity:0.998" fill="#7b26d4" d="M 217.5,331.5 C 227.194,341.86 237.194,351.86 247.5,361.5C 226.831,361.667 206.164,361.5 185.5,361C 183.313,359.975 181.646,358.475 180.5,356.5C 183.387,347.558 187.721,339.392 193.5,332C 201.493,331.5 209.493,331.334 217.5,331.5 Z"/></g>
<g><path style="opacity:1" fill="#6b30ce" d="M 217.5,331.5 C 233.503,331.333 249.503,331.5 265.5,332C 266.931,332.465 268.097,333.299 269,334.5C 272.513,341.527 276.013,348.527 279.5,355.5C 278.41,357.761 276.744,359.594 274.5,361C 265.506,361.5 256.506,361.666 247.5,361.5C 237.194,351.86 227.194,341.86 217.5,331.5 Z"/></g>
<g><path style="opacity:0.988" fill="#553dc5" d="M 299.5,337.5 C 314.496,351.163 329.163,365.163 343.5,379.5C 338.375,384.988 332.542,389.655 326,393.5C 317.058,374.817 308.224,356.15 299.5,337.5 Z"/></g>
<g><path style="opacity:1" fill="#2e3675" d="M 279.5,355.5 C 280.3,360.194 278.633,363.694 274.5,366C 244.833,366.667 215.167,366.667 185.5,366C 181.033,364.008 179.367,360.841 180.5,356.5C 181.646,358.475 183.313,359.975 185.5,361C 206.164,361.5 226.831,361.667 247.5,361.5C 256.506,361.666 265.506,361.5 274.5,361C 276.744,359.594 278.41,357.761 279.5,355.5 Z"/></g>
</svg>
